<svg width="69" height="70" viewBox="0 0 69 70" fill="none" xmlns="http://www.w3.org/2000/svg">
<path d="M34.4829 69.5C15.4684 69.5 0 54.0239 0 35C0 15.9761 15.4684 0.5 34.4829 0.5C53.4973 0.5 68.9657 15.9761 68.9657 35C68.9657 54.0239 53.4973 69.5 34.4829 69.5ZM34.4829 3.375C17.0546 3.375 2.87357 17.5631 2.87357 35C2.87357 52.4369 17.0546 66.625 34.4829 66.625C51.9111 66.625 66.0921 52.4369 66.0921 35C66.0921 17.5631 51.9111 3.375 34.4829 3.375ZM42.5289 49.0875C43.1639 48.6102 43.2932 47.7104 42.8191 47.075L34.4857 35.9574V16.3125C34.4857 15.519 33.8421 14.875 33.0489 14.875C32.2558 14.875 31.6122 15.519 31.6122 16.3125V36.4375C31.6122 36.748 31.7127 37.0499 31.8995 37.3L40.5202 48.8C40.8047 49.1766 41.2358 49.375 41.6697 49.375C41.9685 49.375 42.2702 49.2801 42.5289 49.0875Z" fill="#1F1F1F"/>
</svg>
