<svg width="40" height="40" viewBox="0 0 40 40" fill="none" xmlns="http://www.w3.org/2000/svg">
<path d="M9.53265 37.588C8.35025 37.588 7.39185 36.6296 7.39185 35.4472V27.6128H21.7878V35.348C21.7878 36.5848 20.7854 37.588 19.5478 37.588H9.53185H9.53265Z" fill="#5E6478"/>
<path d="M19.4534 27.6136V35.3488C19.4534 36.5856 18.451 37.5888 17.2134 37.5888H19.5478C20.7846 37.5888 21.7878 36.5864 21.7878 35.3488V27.6136H19.4534Z" fill="#4C5061"/>
<path d="M4.24177 13.0504V10.2384C4.24177 5.916 7.74577 2.412 12.0682 2.412H18.3962C22.7186 2.412 26.2226 5.916 26.2226 10.2384V21.836C26.2226 25.4664 23.2794 28.4088 19.6498 28.4088H9.51937C4.99697 28.4088 1.33057 24.7424 1.33057 20.22V17.2416C1.33057 14.8312 3.28417 12.8776 5.69457 12.8776H8.66657C10.345 12.8776 11.705 14.2384 11.705 15.916C11.705 17.5944 10.3442 18.9544 8.66657 18.9544H5.99617" fill="#FF7373"/>
<path d="M18.3959 2.412H16.0615C20.3839 2.412 23.8879 5.916 23.8879 10.2384V21.836C23.8879 25.4664 20.9447 28.4088 17.3151 28.4088H19.6495C23.2799 28.4088 26.2223 25.4656 26.2223 21.836V10.2384C26.2223 5.916 22.7183 2.412 18.3959 2.412Z" fill="#E05E5E"/>
<path d="M11.1831 17.7416C11.8911 17.952 12.6415 18.0656 13.4183 18.0656H18.8791C20.6351 18.0656 22.0591 16.6416 22.0591 14.8856V12.8168" fill="#FF7373"/>
<path d="M19.7256 12.8168V14.1072C19.7256 15.8632 18.3016 17.2872 16.5456 17.2872H17.324H10.344L11.0048 17.7416C11.892 17.952 12.6424 18.0656 13.4192 18.0656H18.88C20.636 18.0656 22.06 16.6416 22.06 14.8856V12.8168H19.7256Z" fill="#E05E5E"/>
<path d="M21.7887 34.8298H15.5103C14.4943 34.8298 13.6711 34.0066 13.6711 32.9906C13.6711 31.9746 14.4943 31.1514 15.5103 31.1514H21.7887V34.8298Z" fill="#FDDB33"/>
<path d="M21.788 31.1504H19.4536V34.8288H21.788V31.1504Z" fill="#F9C032"/>
<path d="M8.66643 12.8784H6.33203C8.01043 12.8784 9.37043 14.2392 9.37043 15.9168C9.37043 17.5952 8.00963 18.9552 6.33203 18.9552H8.66643C10.3448 18.9552 11.7048 17.5944 11.7048 15.9168C11.7048 14.2384 10.344 12.8784 8.66643 12.8784Z" fill="#E05E5E"/>
<path d="M26.2233 17.144C26.5161 17.144 26.7537 16.9064 26.7537 16.6136V10.2392C26.7537 5.63121 23.0049 1.88161 18.396 1.88161H12.0681C7.46005 1.88161 3.71045 5.63041 3.71045 10.2392V12.7696C1.99765 13.532 0.800049 15.2496 0.800049 17.2424V20.2208C0.800049 24.1024 3.34965 27.3992 6.86165 28.5256V35.448C6.86165 36.9208 8.06005 38.1192 9.53285 38.1192H10.5224C11.2064 38.1192 11.2064 37.0584 10.5224 37.0584H9.53285C8.09365 37.0584 7.92245 35.72 7.92245 34.6176H11.1232C11.8072 34.6176 11.8072 33.5568 11.1232 33.5568H7.92245V28.9232H21.2577V30.6208H15.5096C14.2032 30.6208 13.14 31.684 13.14 32.9904C13.14 34.2968 14.2032 35.36 15.5096 35.36H21.2568C21.2505 36.2968 20.4865 37.0576 19.548 37.0576H13.9881C13.3041 37.0576 13.3041 38.1184 13.9881 38.1184H19.548C21.0753 38.1184 22.3185 36.876 22.3185 35.348V28.4184C24.9169 27.3608 26.7529 24.8088 26.7529 21.836V19.7968C26.7529 19.112 25.6921 19.112 25.6921 19.7968V21.836C25.6921 25.0208 23.2145 27.6368 20.0857 27.8608H9.00805C5.02245 27.5968 1.86085 24.2704 1.86085 20.22V17.2416C1.86085 15.128 3.58005 13.4088 5.69365 13.4088H8.66565C10.0488 13.4088 11.1736 14.5336 11.1736 15.9168C11.1736 17.3 10.0488 18.4248 8.66565 18.4248H5.99525C5.31125 18.4248 5.31125 19.4856 5.99525 19.4856H8.66565C9.70725 19.4856 10.6448 19.0376 11.2984 18.324C11.9872 18.504 12.6993 18.596 13.4177 18.596H18.8785C20.4585 18.596 21.8104 17.6024 22.344 16.208L24.1945 15.1256C24.7857 14.78 24.2497 13.864 23.6585 14.2096L22.5881 14.8352V12.816C22.5881 12.1312 21.5273 12.1312 21.5273 12.816V14.8848C21.5273 16.3456 20.3384 17.5344 18.8776 17.5344H13.416C12.9096 17.5344 12.4088 17.4816 11.9184 17.3792C12.12 16.932 12.2336 16.4376 12.2336 15.916C12.2336 13.948 10.6328 12.3464 8.66405 12.3464H5.69205C5.37685 12.3464 5.06885 12.3776 4.76965 12.4352V10.2376C4.76965 6.21441 8.04245 2.94161 12.0656 2.94161H18.3937C22.4169 2.94161 25.6896 6.21441 25.6896 10.2376V16.612C25.6896 16.9048 25.9272 17.1424 26.2201 17.1424L26.2233 17.144ZM21.2048 34.2984H15.5105C14.7888 34.2984 14.2016 33.7112 14.2016 32.9896C14.2016 32.268 14.7888 31.6808 15.5105 31.6808H21.2048V34.2984Z" fill="black"/>
<path d="M21.9792 37.588C20.7968 37.588 19.8384 36.6296 19.8384 35.4472V27.6128H34.2344V35.348C34.2344 36.5848 33.232 37.588 31.9944 37.588H21.9784H21.9792Z" fill="#5E6478"/>
<path d="M31.9002 27.6136V35.3488C31.9002 36.5856 30.8978 37.5888 29.6602 37.5888H31.9946C33.2314 37.5888 34.2346 36.5864 34.2346 35.3488V27.6136H31.9002Z" fill="#4C5061"/>
<path d="M16.6881 13.0504V10.2384C16.6881 5.91602 20.1921 2.41202 24.5145 2.41202H30.8425C35.1649 2.41202 38.6689 5.91602 38.6689 10.2384V21.836C38.6689 25.4664 35.7257 28.4088 32.0961 28.4088H21.9657C17.4433 28.4088 13.7769 24.7424 13.7769 20.22V17.2416C13.7769 14.8312 15.7305 12.8776 18.1409 12.8776H21.1129C22.7913 12.8776 24.1513 14.2384 24.1513 15.916C24.1513 17.5944 22.7905 18.9544 21.1129 18.9544H18.4425" fill="#FF7373"/>
<path d="M30.8425 2.41202H28.5081C32.8305 2.41202 36.3345 5.91602 36.3345 10.2384V21.836C36.3345 25.4664 33.3913 28.4088 29.7617 28.4088H32.0961C35.7265 28.4088 38.6689 25.4656 38.6689 21.836V10.2384C38.6689 5.91602 35.1649 2.41202 30.8425 2.41202Z" fill="#E05E5E"/>
<path d="M23.6294 17.7416C24.3374 17.952 25.0878 18.0656 25.8646 18.0656H31.3254C33.0814 18.0656 34.5054 16.6416 34.5054 14.8856V12.8168" fill="#FF7373"/>
<path d="M32.1712 12.8168V14.1072C32.1712 15.8632 30.7472 17.2872 28.9912 17.2872H29.7696H22.7896L23.4504 17.7416C24.3376 17.952 25.088 18.0656 25.8648 18.0656H31.3256C33.0816 18.0656 34.5056 16.6416 34.5056 14.8856V12.8168H32.1712Z" fill="#E05E5E"/>
<path d="M34.2353 34.8298H27.9569C26.9409 34.8298 26.1177 34.0066 26.1177 32.9906C26.1177 31.9746 26.9409 31.1514 27.9569 31.1514H34.2353V34.8298Z" fill="#FDDB33"/>
<path d="M34.2343 31.1504H31.8999V34.8288H34.2343V31.1504Z" fill="#F9C032"/>
<path d="M21.1127 12.8784H18.7783C20.4567 12.8784 21.8167 14.2392 21.8167 15.9168C21.8167 17.5952 20.4559 18.9552 18.7783 18.9552H21.1127C22.7911 18.9552 24.1511 17.5944 24.1511 15.9168C24.1511 14.2384 22.7903 12.8784 21.1127 12.8784Z" fill="#E05E5E"/>
<path d="M38.6698 17.144C38.9626 17.144 39.2002 16.9064 39.2002 16.6136V10.2392C39.2002 5.63122 35.4514 1.88162 30.8426 1.88162H24.5146C19.9066 1.88162 16.157 5.63042 16.157 10.2392V12.7696C14.4442 13.532 13.2466 15.2496 13.2466 17.2424V20.2208C13.2466 24.1024 15.7962 27.3992 19.3082 28.5256V35.448C19.3082 36.9208 20.5066 38.1192 21.9794 38.1192H22.969C23.653 38.1192 23.653 37.0584 22.969 37.0584H21.9794C20.5402 37.0584 20.369 35.72 20.369 34.6176H23.5698C24.2538 34.6176 24.2538 33.5568 23.5698 33.5568H20.369V28.9232H33.7042V30.6208H27.9562C26.6498 30.6208 25.5866 31.684 25.5866 32.9904C25.5866 34.2968 26.6498 35.36 27.9562 35.36H33.7034C33.697 36.2968 32.933 37.0576 31.9946 37.0576H26.4346C25.7506 37.0576 25.7506 38.1184 26.4346 38.1184H31.9946C33.5218 38.1184 34.765 36.876 34.765 35.348V28.4184C37.3634 27.3608 39.1994 24.8088 39.1994 21.836V19.7968C39.1994 19.112 38.1386 19.112 38.1386 19.7968V21.836C38.1386 25.0208 35.661 27.6368 32.5322 27.8608H21.4538C17.4682 27.5968 14.3066 24.2704 14.3066 20.22V17.2416C14.3066 15.128 16.0258 13.4088 18.1394 13.4088H21.1114C22.4946 13.4088 23.6194 14.5336 23.6194 15.9168C23.6194 17.3 22.4946 18.4248 21.1114 18.4248H18.441C17.757 18.4248 17.757 19.4856 18.441 19.4856H21.1114C22.153 19.4856 23.0906 19.0376 23.7442 18.324C24.433 18.504 25.145 18.596 25.8634 18.596H31.3242C32.9042 18.596 34.2562 17.6024 34.7898 16.208L36.6402 15.1256C37.2314 14.78 36.6954 13.864 36.1042 14.2096L35.0338 14.8352V12.816C35.0338 12.1312 33.973 12.1312 33.973 12.816V14.8848C33.973 16.3456 32.7842 17.5344 31.3234 17.5344H25.8618C25.3554 17.5344 24.8546 17.4816 24.3642 17.3792C24.5658 16.932 24.6794 16.4376 24.6794 15.916C24.6794 13.948 23.0786 12.3464 21.1098 12.3464H18.1378C17.8226 12.3464 17.5146 12.3776 17.2154 12.4352V10.2376C17.2154 6.21442 20.4882 2.94162 24.5114 2.94162H30.8394C34.8626 2.94162 38.1354 6.21442 38.1354 10.2376V16.612C38.1354 16.9048 38.373 17.1424 38.6658 17.1424L38.6698 17.144ZM33.6514 34.2984H27.957C27.2354 34.2984 26.6482 33.7112 26.6482 32.9896C26.6482 32.268 27.2354 31.6808 27.957 31.6808H33.6514V34.2984Z" fill="black"/>
</svg>
