<svg width="28" height="34" viewBox="0 0 28 34" fill="none" xmlns="http://www.w3.org/2000/svg">
<path d="M23.8305 3.99896C21.308 1.54931 17.9411 0.200195 14.35 0.200195C10.7589 0.200195 7.39201 1.54931 4.86949 3.99896C0.175712 8.55728 -0.559102 14.0311 2.68553 20.2683C5.34685 25.3841 10.1397 30.038 13.6393 33.4361L13.7767 33.5695C13.9351 33.7233 14.1425 33.8002 14.35 33.8002C14.5576 33.8002 14.7652 33.7233 14.9234 33.5695L15.061 33.4359C18.5605 30.0378 23.3534 25.3839 26.0146 20.2681C29.2591 14.031 28.5243 8.55728 23.8305 3.99896ZM24.5671 19.5579C22.1294 24.2441 17.7247 28.6181 14.35 31.8989C10.9755 28.6182 6.5707 24.244 4.13306 19.5581C1.199 13.9179 1.81495 9.19272 6.01631 5.11269C8.31394 2.88144 11.332 1.76575 14.35 1.76575C17.368 1.76575 20.3861 2.88137 22.6837 5.11269C26.885 9.19266 27.5011 13.9178 24.5671 19.5579ZM14.35 8.19319C11.0653 8.19319 8.393 10.7884 8.393 13.9783C8.393 17.1682 11.0653 19.7634 14.35 19.7634C17.6347 19.7634 20.307 17.1682 20.307 13.9783C20.307 10.7884 17.6347 8.19319 14.35 8.19319ZM14.35 18.1884C11.9596 18.1884 10.0148 16.2998 10.0148 13.9783C10.0148 11.6568 11.9596 9.76819 14.35 9.76819C16.7404 9.76819 18.6852 11.6568 18.6852 13.9783C18.6852 16.2998 16.7404 18.1884 14.35 18.1884Z" fill="#1F1F1F"/>
</svg>
