<svg width="76" height="40" viewBox="0 0 76 40" fill="none" xmlns="http://www.w3.org/2000/svg">
<path d="M40.9414 10.2727C40.9414 4.92565 36.5672 0.593018 31.1736 0.593018H19.5312V39.4979H29.9196V19.9525H31.1736C36.5693 19.9525 40.9414 15.6177 40.9414 10.2727Z" fill="#18191E"/>
<path d="M14.5194 0.593018H6.26372C5.6751 0.593018 5.19737 1.06644 5.19737 1.64976V13.2697C2.28198 13.5613 0 16.0087 0 18.9739C0 21.9391 2.28198 24.3844 5.19737 24.6782V38.4433C5.19737 39.0266 5.6751 39.5 6.26372 39.5H14.5194C15.108 39.5 15.5857 39.0266 15.5857 38.4433V1.64976C15.5857 1.06644 15.108 0.593018 14.5194 0.593018Z" fill="#18191E"/>
<path d="M54.6076 0.5H46.352C45.7633 0.5 45.2856 0.973419 45.2856 1.55674V28.1675H39.9326C36.8018 28.1675 34.2617 30.6826 34.2617 33.7873C34.2617 36.8899 36.7996 39.407 39.9326 39.407H54.6076C55.1962 39.407 55.674 38.9336 55.674 38.3503V1.55674C55.674 0.973419 55.1962 0.5 54.6076 0.5Z" fill="#18191E"/>
<path d="M70.0055 15.3218V1.55674C70.0055 0.973419 69.5278 0.5 68.9392 0.5H60.6835C60.0949 0.5 59.6172 0.973419 59.6172 1.55674V38.3482C59.6172 38.9315 60.0949 39.4049 60.6835 39.4049H68.9392C69.5278 39.4049 70.0055 38.9315 70.0055 38.3482V26.7283C72.9209 26.4366 75.2029 23.9892 75.2029 21.024C75.2029 18.0588 72.9209 15.6114 70.0055 15.3197V15.3218Z" fill="#18191E"/>
</svg>
