<svg width="243" height="34" viewBox="0 0 243 34" fill="none" xmlns="http://www.w3.org/2000/svg">
<path d="M93.9152 6.43311H80.1783C79.9526 6.43311 79.766 6.50571 79.624 6.64813C79.4791 6.79334 79.4095 6.97764 79.4095 7.20384V27.2736C79.4095 27.4998 79.4819 27.6869 79.624 27.8293C79.7688 27.9745 79.9526 28.0443 80.1783 28.0443H83.4426C83.6682 28.0443 83.852 27.9717 83.9969 27.8293C84.1417 27.6869 84.2113 27.4998 84.2113 27.2736V19.9572H93.2969C93.5225 19.9572 93.7063 19.8846 93.8512 19.7422C93.996 19.597 94.0656 19.4239 94.0656 19.2172V16.5923C94.0656 16.3661 93.9932 16.1818 93.8512 16.0365C93.7063 15.8941 93.5225 15.8215 93.2969 15.8215H84.2141V10.6023H93.9152C94.1408 10.6023 94.3247 10.5297 94.4695 10.3873C94.6143 10.2449 94.684 10.0578 94.684 9.83159V7.20663C94.684 6.98043 94.6116 6.79613 94.4695 6.65092C94.3247 6.50571 94.1408 6.4359 93.9152 6.4359V6.43311Z" fill="white"/>
<path d="M100.104 11.9902H97.0236C96.8175 11.9902 96.6448 12.0628 96.5 12.2053C96.3552 12.3505 96.2855 12.5348 96.2855 12.761V27.2736C96.2855 27.4998 96.3579 27.6869 96.5 27.8294C96.6448 27.9746 96.8175 28.0444 97.0236 28.0444H100.104C100.33 28.0444 100.514 27.9718 100.658 27.8294C100.803 27.6869 100.873 27.4998 100.873 27.2736V12.761C100.873 12.5348 100.8 12.3505 100.658 12.2053C100.514 12.0628 100.33 11.9902 100.104 11.9902Z" fill="white"/>
<path d="M100.165 5.4751H96.9317C96.7256 5.4751 96.5501 5.55329 96.4081 5.70688C96.2632 5.86046 96.1936 6.05315 96.1936 6.27934V8.75071C96.1936 8.97691 96.266 9.16401 96.4081 9.30642C96.5501 9.45163 96.7256 9.52145 96.9317 9.52145H100.165C100.391 9.52145 100.58 9.44884 100.736 9.30642C100.89 9.16401 100.968 8.97691 100.968 8.75071V6.27934C100.968 6.05315 100.89 5.86326 100.736 5.70688C100.583 5.5505 100.391 5.4751 100.165 5.4751Z" fill="white"/>
<path d="M113.563 24.249H111.315C110.616 24.249 110.128 24.0284 109.853 23.5844C109.574 23.1432 109.438 22.5288 109.438 21.7469V15.6341H113.287C113.493 15.6341 113.666 15.5615 113.81 15.4191C113.955 15.2767 114.025 15.0896 114.025 14.8634V12.7634C114.025 12.5372 113.953 12.3529 113.81 12.2077C113.666 12.0653 113.493 11.9927 113.287 11.9927H109.438V6.89915C109.438 6.67296 109.365 6.48865 109.223 6.34344C109.078 6.20102 108.894 6.12842 108.669 6.12842H105.65C105.443 6.12842 105.265 6.20102 105.109 6.34344C104.956 6.48865 104.878 6.67296 104.878 6.89915V11.9927H102.477C102.252 11.9927 102.065 12.0653 101.923 12.2077C101.781 12.3501 101.708 12.5372 101.708 12.7634V14.8634C101.708 15.0896 101.781 15.2767 101.923 15.4191C102.065 15.5643 102.252 15.6341 102.477 15.6341H104.878V22.1183C104.878 23.4559 105.109 24.5674 105.572 25.4526C106.034 26.3378 106.716 26.9913 107.619 27.4129C108.521 27.8346 109.61 28.0468 110.883 28.0468H113.563C113.769 28.0468 113.941 27.9742 114.086 27.8318C114.231 27.6894 114.301 27.5023 114.301 27.2761V24.9918C114.301 24.7852 114.228 24.612 114.086 24.4668C113.941 24.3244 113.769 24.2518 113.563 24.2518V24.249Z" fill="white"/>
<path d="M128.3 12.5008C127.386 11.9563 126.322 11.6826 125.113 11.6826C123.904 11.6826 122.874 11.8976 122.033 12.3305C121.191 12.7633 120.504 13.3079 119.969 13.9669V12.7633C119.969 12.5371 119.896 12.3528 119.754 12.2076C119.609 12.0652 119.426 11.9926 119.2 11.9926H116.181C115.975 11.9926 115.802 12.0652 115.657 12.2076C115.512 12.3528 115.443 12.5371 115.443 12.7633V27.276C115.443 27.5022 115.515 27.6893 115.657 27.8317C115.802 27.9769 115.975 28.0467 116.181 28.0467H119.445C119.651 28.0467 119.824 27.9741 119.969 27.8317C120.114 27.6893 120.183 27.5022 120.183 27.276V18.8454C120.183 17.7535 120.47 16.9046 121.047 16.2986C121.62 15.6927 122.392 15.3883 123.356 15.3883C124.319 15.3883 125.127 15.6927 125.651 16.2986C126.174 16.9074 126.436 17.7563 126.436 18.8454V27.276C126.436 27.5022 126.509 27.6893 126.651 27.8317C126.795 27.9769 126.979 28.0467 127.205 28.0467H130.469C130.675 28.0467 130.854 27.9741 131.01 27.8317C131.163 27.6893 131.241 27.5022 131.241 27.276V18.6611C131.241 17.1783 130.979 15.9189 130.455 14.88C129.932 13.8412 129.213 13.0482 128.3 12.5036V12.5008Z" fill="white"/>
<path d="M144.836 12.7466C143.677 12.0373 142.234 11.6826 140.507 11.6826C138.967 11.6826 137.622 11.987 136.474 12.593C135.324 13.2017 134.43 14.0758 133.795 15.2179C133.157 16.3601 132.798 17.7256 132.717 19.309V20.6354C132.798 23.1459 133.533 25.0615 134.92 26.3796C136.307 27.6977 138.179 28.3567 140.541 28.3567C141.73 28.3567 142.783 28.2031 143.697 27.8931C144.61 27.5832 145.376 27.1978 145.992 26.7342C146.607 26.2707 147.075 25.7988 147.393 25.3129C147.71 24.8298 147.88 24.4221 147.899 24.0925C147.919 23.8859 147.863 23.7267 147.73 23.615C147.596 23.5033 147.426 23.4447 147.223 23.4447H144.02C143.774 23.4447 143.593 23.4698 143.479 23.5229C143.365 23.5731 143.217 23.7044 143.034 23.9082C142.931 24.0534 142.772 24.2266 142.557 24.4332C142.343 24.6399 142.07 24.813 141.741 24.9582C141.413 25.1034 140.992 25.1732 140.48 25.1732C139.864 25.1732 139.335 25.0085 138.892 24.679C138.449 24.3494 138.112 23.911 137.875 23.3665C137.639 22.8219 137.51 22.2188 137.491 21.5597V21.314H147.562C147.769 21.314 147.947 21.2414 148.103 21.099C148.256 20.9538 148.334 20.7806 148.334 20.574V19.8647C148.334 18.2785 148.042 16.8739 147.457 15.6508C146.872 14.4277 146 13.4587 144.838 12.7494L144.836 12.7466ZM143.527 18.5047H137.491V18.4433C137.491 17.7033 137.608 17.0582 137.845 16.5137C138.081 15.9691 138.424 15.5419 138.878 15.2319C139.329 14.9219 139.872 14.7683 140.51 14.7683C141.148 14.7683 141.691 14.9219 142.142 15.2319C142.594 15.5419 142.939 15.9691 143.173 16.5137C143.41 17.0582 143.527 17.7033 143.527 18.4433V18.5047Z" fill="white"/>
<path d="M161.297 19.5856C160.475 19.0913 159.366 18.7199 157.971 18.4741C156.801 18.2479 155.927 18.0329 155.353 17.8263C154.779 17.6196 154.398 17.3934 154.214 17.1477C154.03 16.902 153.935 16.6339 153.935 16.3435C153.935 15.8911 154.113 15.5141 154.473 15.2153C154.832 14.9165 155.35 14.7685 156.027 14.7685C156.581 14.7685 157.032 14.8495 157.383 15.0142C157.732 15.179 158.035 15.3689 158.291 15.5867C158.548 15.8017 158.798 15.9944 159.046 16.1591C159.107 16.2206 159.18 16.2681 159.261 16.2988C159.341 16.3295 159.436 16.3462 159.539 16.3462H162.28C162.464 16.3462 162.628 16.2736 162.773 16.1312C162.918 15.9888 162.979 15.8129 162.957 15.6062C162.937 15.2767 162.776 14.8913 162.48 14.4473C162.182 14.0061 161.745 13.5733 161.171 13.1516C160.598 12.7299 159.882 12.3809 159.032 12.1016C158.18 11.8224 157.188 11.6855 156.06 11.6855C154.581 11.6855 153.35 11.9285 152.364 12.4116C151.378 12.8947 150.635 13.5063 150.13 14.2491C149.626 14.9891 149.376 15.7626 149.376 16.5641C149.376 17.4493 149.571 18.2061 149.961 18.8344C150.351 19.4627 150.935 19.9821 151.715 20.3926C152.495 20.8059 153.439 21.1326 154.548 21.3811C155.718 21.6269 156.601 21.8559 157.197 22.0597C157.793 22.2664 158.197 22.4926 158.414 22.7383C158.628 22.984 158.737 23.294 158.737 23.6654C158.737 24.1792 158.5 24.5758 158.03 24.855C157.556 25.1343 156.982 25.2711 156.305 25.2711C155.732 25.2711 155.253 25.1901 154.874 25.0254C154.492 24.8606 154.161 24.6595 153.874 24.4222C153.587 24.1848 153.308 23.9754 153.041 23.7883C152.98 23.7073 152.919 23.6543 152.857 23.6347C152.796 23.6152 152.735 23.604 152.673 23.604H149.685C149.521 23.604 149.356 23.6766 149.192 23.819C149.028 23.9642 148.955 24.1485 148.977 24.3747C148.997 24.6847 149.147 25.0589 149.423 25.5029C149.702 25.9469 150.122 26.3825 150.685 26.8154C151.25 27.2482 151.988 27.614 152.902 27.91C153.815 28.2088 154.907 28.3568 156.183 28.3568C157.784 28.3568 159.135 28.1446 160.233 27.7229C161.33 27.3013 162.168 26.7148 162.742 25.9637C163.316 25.2125 163.606 24.3524 163.606 23.3862C163.606 22.6462 163.425 21.9508 163.068 21.303C162.709 20.6551 162.118 20.0826 161.297 19.5883V19.5856Z" fill="white"/>
<path d="M176.449 19.5856C175.627 19.0913 174.518 18.7199 173.123 18.4741C171.953 18.2479 171.079 18.0329 170.505 17.8263C169.931 17.6196 169.549 17.3934 169.366 17.1477C169.182 16.902 169.087 16.6339 169.087 16.3435C169.087 15.8911 169.265 15.5141 169.625 15.2153C169.984 14.9165 170.502 14.7685 171.179 14.7685C171.733 14.7685 172.184 14.8495 172.535 15.0142C172.883 15.179 173.187 15.3689 173.443 15.5867C173.7 15.8017 173.95 15.9944 174.198 16.1591C174.259 16.2206 174.332 16.2681 174.413 16.2988C174.493 16.3295 174.588 16.3462 174.691 16.3462H177.432C177.616 16.3462 177.78 16.2736 177.925 16.1312C178.07 15.9888 178.131 15.8129 178.109 15.6062C178.089 15.2767 177.928 14.8913 177.632 14.4473C177.334 14.0061 176.897 13.5733 176.323 13.1516C175.749 12.7299 175.034 12.3809 174.184 12.1016C173.332 11.8224 172.34 11.6855 171.212 11.6855C169.733 11.6855 168.502 11.9285 167.516 12.4116C166.53 12.8947 165.787 13.5063 165.282 14.2491C164.778 14.9891 164.528 15.7626 164.528 16.5641C164.528 17.4493 164.723 18.2061 165.113 18.8344C165.502 19.4627 166.087 19.9821 166.867 20.3926C167.647 20.8059 168.591 21.1326 169.7 21.3811C170.87 21.6269 171.753 21.8559 172.349 22.0597C172.945 22.2664 173.349 22.4926 173.566 22.7383C173.78 22.984 173.889 23.294 173.889 23.6654C173.889 24.1792 173.652 24.5758 173.181 24.855C172.708 25.1343 172.134 25.2711 171.457 25.2711C170.884 25.2711 170.405 25.1901 170.026 25.0254C169.644 24.8606 169.313 24.6595 169.026 24.4222C168.739 24.1848 168.46 23.9754 168.193 23.7883C168.132 23.7073 168.07 23.6543 168.009 23.6347C167.948 23.6152 167.887 23.604 167.825 23.604H164.837C164.672 23.604 164.508 23.6766 164.344 23.819C164.179 23.9642 164.107 24.1485 164.129 24.3747C164.149 24.6847 164.299 25.0589 164.575 25.5029C164.853 25.9469 165.274 26.3825 165.837 26.8154C166.402 27.2482 167.14 27.614 168.054 27.91C168.967 28.2088 170.059 28.3568 171.335 28.3568C172.936 28.3568 174.287 28.1446 175.385 27.7229C176.482 27.3013 177.32 26.7148 177.894 25.9637C178.468 25.2125 178.758 24.3524 178.758 23.3862C178.758 22.6462 178.577 21.9508 178.22 21.303C177.861 20.6551 177.27 20.0826 176.449 19.5883V19.5856Z" fill="white"/>
<path d="M199.285 7.20384C198.062 6.69001 196.622 6.43311 194.957 6.43311H186.548C186.322 6.43311 186.136 6.50571 185.994 6.64813C185.849 6.79334 185.779 6.97764 185.779 7.20384V27.2736C185.779 27.4998 185.852 27.6869 185.994 27.8293C186.136 27.9745 186.322 28.0443 186.548 28.0443H190.06C190.286 28.0443 190.47 27.9717 190.614 27.8293C190.759 27.6869 190.829 27.4998 190.829 27.2736V20.2951H194.957C196.62 20.2951 198.062 20.0494 199.285 19.5551C200.505 19.0608 201.46 18.3041 202.148 17.2848C202.836 16.2655 203.179 14.9754 203.179 13.4088C203.179 11.8422 202.833 10.5744 202.148 9.53279C201.46 8.49398 200.505 7.71766 199.285 7.20105V7.20384ZM197.252 15.6959C196.667 16.2097 195.851 16.4666 194.804 16.4666H190.74V10.2924H194.804C195.973 10.2924 196.82 10.58 197.344 11.158C197.867 11.7333 198.129 12.4761 198.129 13.3809C198.129 14.4113 197.837 15.182 197.252 15.6959Z" fill="white"/>
<path d="M208.293 6.12305H205.212C204.987 6.12305 204.8 6.19565 204.658 6.33807C204.516 6.48049 204.443 6.66758 204.443 6.89378V27.2735C204.443 27.4997 204.516 27.6868 204.658 27.8292C204.8 27.9744 204.987 28.0443 205.212 28.0443H208.293C208.499 28.0443 208.671 27.9716 208.816 27.8292C208.961 27.6868 209.031 27.4997 209.031 27.2735V6.89378C209.031 6.66758 208.958 6.48328 208.816 6.33807C208.671 6.19565 208.499 6.12305 208.293 6.12305Z" fill="white"/>
<path d="M226.185 11.9901H222.921C222.695 11.9901 222.509 12.0627 222.367 12.2051C222.225 12.3475 222.152 12.5346 222.152 12.7608V21.1914C222.152 22.2833 221.871 23.1322 221.305 23.7382C220.74 24.347 219.977 24.6485 219.01 24.6485C216.997 24.6485 215.991 23.4952 215.991 21.1914V12.7608C215.991 12.5346 215.919 12.3503 215.777 12.2051C215.632 12.0627 215.448 11.9901 215.222 11.9901H211.958C211.752 11.9901 211.579 12.0627 211.434 12.2051C211.29 12.3475 211.22 12.5346 211.22 12.7608V21.3757C211.22 22.8585 211.471 24.118 211.975 25.1568C212.479 26.1956 213.186 26.9887 214.1 27.5332C215.014 28.0778 216.066 28.3514 217.256 28.3514C218.445 28.3514 219.492 28.1559 220.336 27.765C221.177 27.374 221.865 26.8072 222.4 26.0671V27.2707C222.4 27.4969 222.472 27.684 222.615 27.8264C222.757 27.9716 222.943 28.0415 223.169 28.0415H226.188C226.394 28.0415 226.567 27.9688 226.712 27.8264C226.857 27.684 226.926 27.4969 226.926 27.2707V12.758C226.926 12.5318 226.854 12.3475 226.712 12.2023C226.567 12.0599 226.394 11.9873 226.188 11.9873L226.185 11.9901Z" fill="white"/>
<path d="M242.462 21.3002C242.103 20.6523 241.513 20.0798 240.691 19.5856C239.869 19.0913 238.761 18.7199 237.365 18.4741C236.196 18.2479 235.321 18.0329 234.747 17.8263C234.173 17.6196 233.792 17.3934 233.608 17.1477C233.424 16.902 233.329 16.6339 233.329 16.3435C233.329 15.8911 233.508 15.5141 233.867 15.2153C234.226 14.9165 234.744 14.7685 235.421 14.7685C235.976 14.7685 236.427 14.8495 236.778 15.0142C237.126 15.179 237.429 15.3689 237.686 15.5867C237.942 15.8017 238.193 15.9944 238.44 16.1591C238.502 16.2206 238.574 16.2681 238.655 16.2988C238.736 16.3295 238.83 16.3462 238.933 16.3462H241.674C241.858 16.3462 242.022 16.2736 242.167 16.1312C242.312 15.9888 242.373 15.8129 242.351 15.6062C242.332 15.2767 242.17 14.8913 241.875 14.4473C241.577 14.0061 241.139 13.5733 240.566 13.1516C239.992 12.7299 239.276 12.3809 238.427 12.1016C237.574 11.8224 236.583 11.6855 235.455 11.6855C233.976 11.6855 232.745 11.9285 231.759 12.4116C230.773 12.8947 230.029 13.5063 229.525 14.2491C229.021 14.9891 228.77 15.7626 228.77 16.5641C228.77 17.4493 228.965 18.2061 229.355 18.8344C229.745 19.4627 230.33 19.9821 231.11 20.3926C231.89 20.8059 232.834 21.1326 233.942 21.3811C235.112 21.6269 235.995 21.8559 236.591 22.0597C237.187 22.2664 237.591 22.4926 237.808 22.7383C238.023 22.984 238.131 23.294 238.131 23.6654C238.131 24.1792 237.895 24.5758 237.424 24.855C236.95 25.1343 236.377 25.2711 235.7 25.2711C235.126 25.2711 234.647 25.1901 234.268 25.0254C233.887 24.8606 233.555 24.6595 233.268 24.4222C232.981 24.1848 232.703 23.9754 232.435 23.7883C232.374 23.7073 232.313 23.6543 232.252 23.6347C232.19 23.6152 232.129 23.604 232.068 23.604H229.079C228.915 23.604 228.751 23.6766 228.586 23.819C228.422 23.9642 228.349 24.1485 228.372 24.3747C228.391 24.6847 228.542 25.0589 228.817 25.5029C229.096 25.9469 229.516 26.3825 230.079 26.8154C230.644 27.2482 231.383 27.614 232.296 27.91C233.21 28.2088 234.302 28.3568 235.577 28.3568C237.179 28.3568 238.53 28.1446 239.627 27.7229C240.724 27.3013 241.563 26.7148 242.137 25.9637C242.71 25.2125 243 24.3524 243 23.3862C243 22.6462 242.819 21.9508 242.462 21.303V21.3002Z" fill="white"/>
<path d="M35.2792 8.51979C35.2792 3.85822 31.51 0.0810547 26.8623 0.0810547H16.8301V33.9981H25.7818V16.9585H26.8623C31.5118 16.9585 35.2792 13.1795 35.2792 8.51979Z" fill="white"/>
<path d="M12.5114 0.0810547H5.39746C4.89024 0.0810547 4.47859 0.493779 4.47859 1.00231V11.1325C1.96639 11.3868 0 13.5204 0 16.1054C0 18.6905 1.96639 20.8223 4.47859 21.0784V33.0787C4.47859 33.5873 4.89024 34 5.39746 34H12.5114C13.0186 34 13.4302 33.5873 13.4302 33.0787V1.00231C13.4302 0.493779 13.0186 0.0810547 12.5114 0.0810547Z" fill="white"/>
<path d="M47.0554 0H39.9415C39.4343 0 39.0227 0.412724 39.0227 0.921259V24.1204H34.4099C31.7121 24.1204 29.5233 26.313 29.5233 29.0197C29.5233 31.7245 31.7103 33.9189 34.4099 33.9189H47.0554C47.5627 33.9189 47.9743 33.5062 47.9743 32.9977V0.921259C47.9743 0.412724 47.5627 0 47.0554 0Z" fill="white"/>
<path d="M60.324 12.9216V0.92126C60.324 0.412724 59.9124 0 59.4052 0H52.2912C51.784 0 51.3724 0.412724 51.3724 0.92126V32.9958C51.3724 33.5044 51.784 33.9171 52.2912 33.9171H59.4052C59.9124 33.9171 60.324 33.5044 60.324 32.9958V22.8657C62.8362 22.6114 64.8026 20.4778 64.8026 17.8927C64.8026 15.3076 62.8362 13.174 60.324 12.9197V12.9216Z" fill="white"/>
</svg>
