<svg width="377" height="53" viewBox="0 0 377 53" fill="none" xmlns="http://www.w3.org/2000/svg">
<path d="M145.468 9.93839H124.191C123.841 9.93839 123.552 10.0506 123.332 10.2706C123.108 10.4949 123 10.7797 123 11.1291V42.1353C123 42.4848 123.112 42.7738 123.332 42.9938C123.557 43.2182 123.841 43.326 124.191 43.326H129.247C129.596 43.326 129.881 43.2139 130.105 42.9938C130.33 42.7738 130.438 42.4848 130.438 42.1353V30.8321H144.511C144.86 30.8321 145.145 30.7199 145.369 30.4999C145.593 30.2756 145.701 30.0081 145.701 29.6888V25.6335C145.701 25.284 145.589 24.9993 145.369 24.7749C145.145 24.5549 144.86 24.4428 144.511 24.4428H130.442V16.3795H145.468C145.818 16.3795 146.103 16.2673 146.327 16.0473C146.551 15.8273 146.659 15.5382 146.659 15.1888V11.1334C146.659 10.784 146.547 10.4992 146.327 10.2749C146.103 10.0506 145.818 9.94271 145.468 9.94271V9.93839Z" fill="#18191E"/>
<path d="M155.055 18.5237H150.283C149.964 18.5237 149.696 18.6358 149.472 18.8559C149.248 19.0802 149.14 19.3649 149.14 19.7144V42.1353C149.14 42.4848 149.252 42.7738 149.472 42.9939C149.696 43.2182 149.964 43.326 150.283 43.326H155.055C155.404 43.326 155.689 43.2139 155.913 42.9939C156.137 42.7738 156.245 42.4848 156.245 42.1353V19.7144C156.245 19.3649 156.133 19.0802 155.913 18.8559C155.689 18.6358 155.404 18.5237 155.055 18.5237Z" fill="#18191E"/>
<path d="M155.149 8.45862H150.141C149.821 8.45862 149.55 8.57942 149.33 8.8167C149.105 9.05398 148.997 9.35166 148.997 9.70111V13.5192C148.997 13.8686 149.11 14.1577 149.33 14.3777C149.55 14.602 149.821 14.7099 150.141 14.7099H155.149C155.499 14.7099 155.792 14.5977 156.034 14.3777C156.271 14.1577 156.392 13.8686 156.392 13.5192V9.70111C156.392 9.35166 156.271 9.05829 156.034 8.8167C155.797 8.5751 155.499 8.45862 155.149 8.45862Z" fill="#18191E"/>
<path d="M175.901 37.463H172.419C171.336 37.463 170.581 37.1222 170.154 36.4362C169.723 35.7546 169.511 34.8055 169.511 33.5975V24.1537H175.474C175.793 24.1537 176.06 24.0415 176.285 23.8215C176.509 23.6015 176.617 23.3124 176.617 22.963V19.7187C176.617 19.3692 176.505 19.0845 176.285 18.8602C176.06 18.6401 175.793 18.528 175.474 18.528H169.511V10.6589C169.511 10.3094 169.399 10.0247 169.179 9.80033C168.955 9.58031 168.67 9.46814 168.321 9.46814H163.644C163.325 9.46814 163.049 9.58031 162.807 9.80033C162.57 10.0247 162.449 10.3094 162.449 10.6589V18.528H158.73C158.381 18.528 158.092 18.6401 157.872 18.8602C157.652 19.0802 157.54 19.3692 157.54 19.7187V22.963C157.54 23.3124 157.652 23.6015 157.872 23.8215C158.092 24.0458 158.381 24.1537 158.73 24.1537H162.449V34.1713C162.449 36.2378 162.807 37.9548 163.523 39.3225C164.24 40.6901 165.296 41.6996 166.694 42.351C168.092 43.0025 169.779 43.3304 171.751 43.3304H175.901C176.22 43.3304 176.488 43.2182 176.712 42.9982C176.936 42.7781 177.044 42.4891 177.044 42.1396V38.6106C177.044 38.2914 176.932 38.0239 176.712 37.7995C176.488 37.5795 176.22 37.4673 175.901 37.4673V37.463Z" fill="#18191E"/>
<path d="M198.727 19.3132C197.312 18.4719 195.664 18.0491 193.792 18.0491C191.919 18.0491 190.323 18.3813 189.02 19.05C187.717 19.7187 186.652 20.56 185.823 21.5781V19.7187C185.823 19.3693 185.711 19.0845 185.491 18.8602C185.267 18.6401 184.982 18.528 184.633 18.528H179.956C179.637 18.528 179.369 18.6401 179.145 18.8602C178.921 19.0845 178.813 19.3693 178.813 19.7187V42.1396C178.813 42.4891 178.925 42.7781 179.145 42.9982C179.369 43.2225 179.637 43.3304 179.956 43.3304H185.012C185.332 43.3304 185.599 43.2182 185.823 42.9982C186.048 42.7781 186.156 42.4891 186.156 42.1396V29.115C186.156 27.4282 186.6 26.1167 187.493 25.1805C188.382 24.2443 189.577 23.7741 191.07 23.7741C192.562 23.7741 193.813 24.2443 194.624 25.1805C195.436 26.121 195.841 27.4325 195.841 29.115V42.1396C195.841 42.4891 195.953 42.7781 196.173 42.9982C196.398 43.2225 196.682 43.3304 197.032 43.3304H202.088C202.407 43.3304 202.683 43.2182 202.925 42.9982C203.162 42.7781 203.283 42.4891 203.283 42.1396V28.8303C203.283 26.5395 202.878 24.5938 202.066 22.9889C201.255 21.384 200.142 20.1587 198.727 19.3175V19.3132Z" fill="#18191E"/>
<path d="M224.341 19.6928C222.546 18.597 220.311 18.0491 217.636 18.0491C215.251 18.0491 213.167 18.5194 211.389 19.4555C209.608 20.396 208.223 21.7464 207.239 23.5109C206.251 25.2754 205.695 27.385 205.57 29.8312V31.8804C205.695 35.7589 206.834 38.7185 208.982 40.7548C211.131 42.7911 214.03 43.8092 217.688 43.8092C219.53 43.8092 221.161 43.572 222.576 43.0931C223.991 42.6142 225.178 42.0188 226.131 41.3027C227.085 40.5865 227.809 39.8574 228.301 39.1067C228.793 38.3604 229.056 37.7305 229.086 37.2214C229.117 36.9022 229.03 36.6563 228.823 36.4837C228.616 36.3111 228.353 36.2205 228.038 36.2205H223.077C222.697 36.2205 222.417 36.2594 222.24 36.3413C222.063 36.419 221.834 36.6218 221.549 36.9367C221.39 37.161 221.144 37.4285 220.812 37.7478C220.479 38.067 220.057 38.3345 219.548 38.5588C219.039 38.7832 218.387 38.891 217.593 38.891C216.64 38.891 215.82 38.6365 215.134 38.1274C214.448 37.6183 213.926 36.941 213.56 36.0997C213.193 35.2585 212.994 34.3266 212.964 33.3084V32.9288H228.564C228.884 32.9288 229.16 32.8166 229.401 32.5966C229.639 32.3723 229.759 32.1048 229.759 31.7855V30.6897C229.759 28.2393 229.306 26.0692 228.4 24.1796C227.494 22.29 226.144 20.7929 224.345 19.6971L224.341 19.6928ZM222.313 28.5887H212.964V28.4938C212.964 27.3505 213.145 26.354 213.512 25.5127C213.879 24.6714 214.409 24.0113 215.113 23.5325C215.812 23.0536 216.653 22.8163 217.641 22.8163C218.629 22.8163 219.47 23.0536 220.169 23.5325C220.868 24.0113 221.403 24.6714 221.765 25.5127C222.132 26.354 222.313 27.3505 222.313 28.4938V28.5887Z" fill="#18191E"/>
<path d="M249.838 30.2583C248.565 29.4947 246.848 28.9209 244.687 28.5413C242.875 28.1918 241.52 27.8596 240.631 27.5404C239.742 27.2211 239.151 26.8717 238.867 26.492C238.582 26.1124 238.435 25.6982 238.435 25.2495C238.435 24.5506 238.711 23.9682 239.268 23.5066C239.824 23.045 240.627 22.8163 241.675 22.8163C242.534 22.8163 243.233 22.9414 243.776 23.196C244.316 23.4505 244.786 23.7439 245.183 24.0804C245.58 24.4126 245.968 24.7102 246.352 24.9648C246.447 25.0597 246.559 25.133 246.684 25.1805C246.809 25.2279 246.956 25.2538 247.115 25.2538H251.361C251.645 25.2538 251.9 25.1417 252.124 24.9216C252.349 24.7016 252.443 24.4298 252.409 24.1106C252.379 23.6015 252.129 23.0061 251.671 22.3202C251.21 21.6385 250.532 20.9698 249.644 20.3184C248.755 19.6669 247.646 19.1277 246.33 18.6962C245.01 18.2648 243.474 18.0534 241.727 18.0534C239.436 18.0534 237.529 18.4288 236.002 19.1751C234.475 19.9215 233.323 20.8663 232.542 22.0139C231.761 23.1571 231.373 24.3522 231.373 25.5903C231.373 26.9579 231.675 28.1271 232.279 29.0978C232.883 30.0685 233.789 30.8709 234.997 31.5051C236.205 32.1436 237.667 32.6484 239.384 33.0323C241.196 33.412 242.564 33.7658 243.487 34.0807C244.41 34.3999 245.036 34.7494 245.372 35.129C245.705 35.5087 245.873 35.9876 245.873 36.5614C245.873 37.3552 245.506 37.9678 244.777 38.3992C244.044 38.8306 243.155 39.042 242.107 39.042C241.218 39.042 240.476 38.9169 239.889 38.6624C239.298 38.4078 238.785 38.0972 238.34 37.7305C237.896 37.3638 237.465 37.0402 237.05 36.7512C236.955 36.6261 236.861 36.5441 236.766 36.5139C236.671 36.4837 236.576 36.4664 236.481 36.4664H231.852C231.597 36.4664 231.343 36.5786 231.088 36.7986C230.834 37.023 230.721 37.3077 230.756 37.6572C230.786 38.1361 231.019 38.7141 231.446 39.4001C231.878 40.0861 232.529 40.7591 233.401 41.4278C234.276 42.0965 235.42 42.6617 236.835 43.119C238.25 43.5806 239.941 43.8092 241.917 43.8092C244.397 43.8092 246.49 43.4814 248.19 42.8299C249.889 42.1785 251.188 41.2725 252.077 40.112C252.965 38.9514 253.414 37.6227 253.414 36.1299C253.414 34.9867 253.134 33.9124 252.582 32.9115C252.025 31.9107 251.11 31.0262 249.838 30.2626V30.2583Z" fill="#18191E"/>
<path d="M273.307 30.2583C272.034 29.4947 270.317 28.9209 268.156 28.5413C266.344 28.1918 264.989 27.8596 264.1 27.5404C263.212 27.2211 262.621 26.8717 262.336 26.492C262.051 26.1124 261.905 25.6982 261.905 25.2495C261.905 24.5506 262.181 23.9682 262.737 23.5066C263.294 23.045 264.096 22.8163 265.145 22.8163C266.003 22.8163 266.702 22.9414 267.246 23.196C267.785 23.4505 268.255 23.7439 268.652 24.0804C269.049 24.4126 269.437 24.7102 269.821 24.9648C269.916 25.0597 270.028 25.133 270.153 25.1805C270.278 25.2279 270.425 25.2538 270.585 25.2538H274.83C275.115 25.2538 275.369 25.1417 275.594 24.9216C275.818 24.7016 275.913 24.4298 275.878 24.1106C275.848 23.6015 275.598 23.0061 275.141 22.3202C274.679 21.6385 274.002 20.9698 273.113 20.3184C272.224 19.6669 271.115 19.1277 269.8 18.6962C268.479 18.2648 266.944 18.0534 265.196 18.0534C262.905 18.0534 260.999 18.4288 259.471 19.1751C257.944 19.9215 256.792 20.8663 256.011 22.0139C255.23 23.1571 254.842 24.3522 254.842 25.5903C254.842 26.9579 255.144 28.1271 255.748 29.0978C256.352 30.0685 257.258 30.8709 258.466 31.5051C259.674 32.1436 261.137 32.6484 262.854 33.0323C264.666 33.412 266.033 33.7658 266.956 34.0807C267.88 34.3999 268.505 34.7494 268.842 35.129C269.174 35.5087 269.342 35.9876 269.342 36.5614C269.342 37.3552 268.976 37.9678 268.246 38.3992C267.513 38.8306 266.624 39.042 265.576 39.042C264.687 39.042 263.945 38.9169 263.358 38.6624C262.767 38.4078 262.254 38.0972 261.81 37.7305C261.365 37.3638 260.934 37.0402 260.52 36.7512C260.425 36.6261 260.33 36.5441 260.235 36.5139C260.14 36.4837 260.045 36.4664 259.95 36.4664H255.321C255.067 36.4664 254.812 36.5786 254.557 36.7986C254.303 37.023 254.191 37.3077 254.225 37.6572C254.255 38.1361 254.488 38.7141 254.916 39.4001C255.347 40.0861 255.998 40.7591 256.87 41.4278C257.746 42.0965 258.889 42.6617 260.304 43.119C261.719 43.5806 263.41 43.8092 265.386 43.8092C267.867 43.8092 269.959 43.4814 271.659 42.8299C273.359 42.1785 274.657 41.2725 275.546 40.112C276.435 38.9514 276.883 37.6227 276.883 36.1299C276.883 34.9867 276.603 33.9124 276.051 32.9115C275.494 31.9107 274.58 31.0262 273.307 30.2626V30.2583Z" fill="#18191E"/>
<path d="M308.679 11.1291C306.785 10.3353 304.555 9.93839 301.975 9.93839H288.95C288.601 9.93839 288.312 10.0506 288.092 10.2706C287.867 10.4949 287.76 10.7797 287.76 11.1291V42.1353C287.76 42.4848 287.872 42.7738 288.092 42.9938C288.312 43.2182 288.601 43.326 288.95 43.326H294.39C294.74 43.326 295.025 43.2139 295.249 42.9938C295.473 42.7738 295.581 42.4848 295.581 42.1353V31.3541H301.975C304.55 31.3541 306.785 30.9745 308.679 30.2108C310.569 29.4472 312.049 28.2781 313.114 26.7034C314.18 25.1287 314.71 23.1356 314.71 20.7153C314.71 18.295 314.175 16.3364 313.114 14.7272C312.049 13.1223 310.569 11.9229 308.679 11.1248V11.1291ZM305.53 24.2486C304.624 25.0424 303.36 25.4393 301.738 25.4393H295.443V15.9006H301.738C303.55 15.9006 304.861 16.345 305.672 17.238C306.483 18.1268 306.889 19.2743 306.889 20.6721C306.889 22.2641 306.436 23.4548 305.53 24.2486Z" fill="#18191E"/>
<path d="M322.631 9.45952H317.86C317.51 9.45952 317.221 9.57168 317.001 9.79171C316.781 10.0117 316.669 10.3008 316.669 10.6502V42.1353C316.669 42.4848 316.781 42.7738 317.001 42.9938C317.221 43.2182 317.51 43.326 317.86 43.326H322.631C322.951 43.326 323.218 43.2139 323.442 42.9938C323.667 42.7738 323.775 42.4848 323.775 42.1353V10.6502C323.775 10.3008 323.662 10.016 323.442 9.79171C323.218 9.57168 322.951 9.45952 322.631 9.45952Z" fill="#18191E"/>
<path d="M350.346 18.5237H345.29C344.94 18.5237 344.651 18.6358 344.431 18.8559C344.211 19.0759 344.099 19.3649 344.099 19.7144V32.739C344.099 34.4258 343.663 35.7374 342.787 36.6735C341.912 37.614 340.729 38.08 339.232 38.08C336.113 38.08 334.556 36.2982 334.556 32.739V19.7144C334.556 19.3649 334.444 19.0802 334.224 18.8559C333.999 18.6358 333.715 18.5237 333.365 18.5237H328.309C327.99 18.5237 327.722 18.6358 327.498 18.8559C327.273 19.0759 327.166 19.3649 327.166 19.7144V33.0237C327.166 35.3146 327.554 37.2603 328.335 38.8652C329.116 40.47 330.211 41.6953 331.626 42.5365C333.041 43.3778 334.672 43.8006 336.514 43.8006C338.357 43.8006 339.979 43.4986 341.286 42.8946C342.589 42.2906 343.654 41.4148 344.483 40.2716V42.131C344.483 42.4805 344.595 42.7695 344.815 42.9895C345.035 43.2139 345.324 43.3217 345.673 43.3217H350.35C350.669 43.3217 350.937 43.2096 351.161 42.9895C351.385 42.7695 351.493 42.4805 351.493 42.131V19.7101C351.493 19.3606 351.381 19.0759 351.161 18.8515C350.937 18.6315 350.669 18.5194 350.35 18.5194L350.346 18.5237Z" fill="#18191E"/>
<path d="M375.558 32.9072C375.001 31.9063 374.087 31.0219 372.814 30.2583C371.541 29.4947 369.824 28.9209 367.663 28.5413C365.851 28.1918 364.496 27.8596 363.608 27.5404C362.719 27.2211 362.128 26.8717 361.843 26.492C361.558 26.1124 361.412 25.6982 361.412 25.2495C361.412 24.5506 361.688 23.9682 362.244 23.5066C362.801 23.045 363.603 22.8163 364.652 22.8163C365.51 22.8163 366.209 22.9414 366.753 23.196C367.292 23.4505 367.762 23.7439 368.159 24.0804C368.556 24.4126 368.944 24.7102 369.328 24.9648C369.423 25.0597 369.535 25.133 369.66 25.1805C369.786 25.2279 369.932 25.2538 370.092 25.2538H374.337C374.622 25.2538 374.876 25.1417 375.101 24.9216C375.325 24.7016 375.42 24.4298 375.385 24.1106C375.355 23.6015 375.105 23.0061 374.648 22.3202C374.186 21.6385 373.509 20.9698 372.62 20.3184C371.731 19.6669 370.623 19.1277 369.307 18.6962C367.987 18.2648 366.451 18.0534 364.703 18.0534C362.413 18.0534 360.506 18.4288 358.978 19.1751C357.451 19.9215 356.299 20.8663 355.518 22.0139C354.738 23.1571 354.349 24.3522 354.349 25.5903C354.349 26.9579 354.651 28.1271 355.255 29.0978C355.859 30.0685 356.765 30.8709 357.973 31.5051C359.181 32.1436 360.644 32.6484 362.361 33.0323C364.173 33.412 365.54 33.7658 366.464 34.0807C367.387 34.3999 368.012 34.7494 368.349 35.129C368.681 35.5087 368.849 35.9876 368.849 36.5614C368.849 37.3552 368.483 37.9678 367.754 38.3992C367.02 38.8306 366.131 39.042 365.083 39.042C364.194 39.042 363.452 38.9169 362.866 38.6624C362.275 38.4078 361.761 38.0972 361.317 37.7305C360.872 37.3638 360.441 37.0402 360.027 36.7512C359.932 36.6261 359.837 36.5441 359.742 36.5139C359.647 36.4837 359.552 36.4664 359.457 36.4664H354.828C354.574 36.4664 354.319 36.5786 354.065 36.7986C353.81 37.023 353.698 37.3077 353.732 37.6572C353.763 38.1361 353.996 38.7141 354.423 39.4001C354.854 40.0861 355.506 40.7591 356.377 41.4278C357.253 42.0965 358.396 42.6617 359.811 43.119C361.226 43.5806 362.917 43.8092 364.893 43.8092C367.374 43.8092 369.466 43.4814 371.166 42.8299C372.866 42.1785 374.164 41.2725 375.053 40.112C375.942 38.9514 376.391 37.6227 376.391 36.1299C376.391 34.9867 376.11 33.9124 375.558 32.9115V32.9072Z" fill="#18191E"/>
<path d="M93.4378 19.9628V1.42327C93.4378 0.637626 92.8002 0 92.0145 0H80.9955C80.2099 0 79.5723 0.637626 79.5723 1.42327V50.9759C79.5723 51.7616 80.2099 52.3992 80.9955 52.3992H92.0145C92.8002 52.3992 93.4378 51.7616 93.4378 50.9759V35.3256C97.329 34.9328 100.375 31.6365 100.375 27.6428C100.375 23.6491 97.329 20.3528 93.4378 19.96V19.9628Z" fill="#18191E"/>
<path d="M72.8857 0H61.8667C61.0811 0 60.4435 0.637626 60.4435 1.42327V37.2641H53.2986C49.1199 37.2641 45.7297 40.6515 45.7297 44.8331C45.7297 49.0118 49.1171 52.4021 53.2986 52.4021H72.8857C73.6714 52.4021 74.309 51.7644 74.309 50.9788V1.42327C74.309 0.637626 73.6714 0 72.8857 0Z" fill="#18191E"/>
<path d="M54.6453 13.1624C54.6453 5.96066 48.807 0.125244 41.6081 0.125244H26.0688V52.5244H39.9344V26.1996H41.6081C48.8099 26.1996 54.6453 20.3613 54.6453 13.1624Z" fill="#18191E"/>
<path d="M19.3793 0.125244H8.3603C7.57465 0.125244 6.93703 0.76287 6.93703 1.54852V17.1988C3.0458 17.5916 0 20.8879 0 24.8816C0 28.8754 3.0458 32.1688 6.93703 32.5645V51.104C6.93703 51.8897 7.57465 52.5273 8.3603 52.5273H19.3793C20.1649 52.5273 20.8026 51.8897 20.8026 51.104V1.54852C20.8026 0.76287 20.1649 0.125244 19.3793 0.125244Z" fill="#18191E"/>
</svg>
