<svg width="96" height="50" viewBox="0 0 96 50" fill="none" xmlns="http://www.w3.org/2000/svg">
<path d="M52.5269 12.529C52.5269 5.67379 47.0012 0.119141 40.1878 0.119141H25.4806V49.9972H38.6037V24.939H40.1878C47.0039 24.939 52.5269 19.3816 52.5269 12.529Z" fill="white"/>
<path d="M19.1494 0.119141H8.72052C7.97694 0.119141 7.37346 0.726088 7.37346 1.47393V16.3712C3.6906 16.7452 0.807892 19.8829 0.807892 23.6844C0.807892 27.486 3.6906 30.621 7.37346 30.9976V48.6451C7.37346 49.393 7.97694 49.9999 8.72052 49.9999H19.1494C19.893 49.9999 20.4965 49.393 20.4965 48.6451V1.47393C20.4965 0.726088 19.893 0.119141 19.1494 0.119141Z" fill="white"/>
<path d="M69.7908 0H59.3619C58.6183 0 58.0148 0.606947 58.0148 1.35479V35.4712H51.2526C47.2976 35.4712 44.0889 38.6956 44.0889 42.676C44.0889 46.6537 47.2949 49.8808 51.2526 49.8808H69.7908C70.5344 49.8808 71.1378 49.2738 71.1378 48.526V1.35479C71.1378 0.606947 70.5344 0 69.7908 0Z" fill="white"/>
<path d="M89.2423 19.0023V1.35479C89.2423 0.606947 88.6388 0 87.8953 0H77.4663C76.7227 0 76.1193 0.606947 76.1193 1.35479V48.5233C76.1193 49.2711 76.7227 49.8781 77.4663 49.8781H87.8953C88.6388 49.8781 89.2423 49.2711 89.2423 48.5233V33.626C92.9252 33.252 95.8079 30.1143 95.8079 26.3128C95.8079 22.5112 92.9252 19.3735 89.2423 18.9996V19.0023Z" fill="white"/>
</svg>
