<svg width="100" height="100" viewBox="0 0 100 100" fill="none" xmlns="http://www.w3.org/2000/svg">
<path d="M71.9828 27.8376L51.7303 23.5263C50.6141 23.1113 49.3866 23.1113 48.2703 23.5263L28.0178 27.8376C25.7028 28.6976 24.7791 31.2001 24.7791 33.5413V39.4576C24.7791 42.5063 25.9503 45.2813 27.8666 47.3588L33.6953 74.4301C33.9916 75.8038 35.2053 76.7838 36.6103 76.7838H63.3953C64.8003 76.7838 66.0141 75.8038 66.3091 74.4301L72.1466 47.3163C74.0578 45.2313 75.2241 42.4538 75.2241 39.4026V33.5401C75.2241 31.0001 74.2991 28.6963 71.9853 27.8363" fill="#FED2A4"/>
<path d="M55.0227 62.2939H44.9777C42.9765 62.2939 41.3552 63.9152 41.3552 65.9164C41.3552 67.9177 42.9765 69.5389 44.9777 69.5389H55.0227C57.024 69.5389 58.6452 67.9177 58.6452 65.9164C58.6452 63.9152 57.0227 62.2939 55.0227 62.2939Z" fill="#FFBD86"/>
<path d="M45.599 65.9177C45.599 63.9164 47.2202 62.2952 49.2215 62.2952H44.9777C42.9765 62.2952 41.3552 63.9177 41.3552 65.9177C41.3552 67.9177 42.9765 69.5402 44.9777 69.5402H49.2215C47.2202 69.5402 45.599 67.9177 45.599 65.9177Z" fill="#F6A96C"/>
<path d="M41.3552 73.1625C41.3552 75.1638 42.9765 76.785 44.9777 76.785H55.0227C57.024 76.785 58.6452 75.1625 58.6452 73.1625C58.6452 71.1625 57.024 69.54 55.0227 69.54H44.9777C42.9765 69.54 41.3552 71.1625 41.3552 73.1625Z" fill="#FFBD86"/>
<path d="M45.599 73.1625C45.599 71.1613 47.2202 69.54 49.2215 69.54H44.9777C42.9765 69.54 41.3552 71.1625 41.3552 73.1625C41.3552 75.1625 42.9765 76.785 44.9777 76.785H49.2215C47.2202 76.785 45.599 75.1638 45.599 73.1625Z" fill="#F6A96C"/>
<path d="M55.0227 70.7902H44.9777C42.2915 70.7902 40.1052 68.6039 40.1052 65.9177C40.1052 63.2314 42.2915 61.0452 44.9777 61.0452H55.0227C57.709 61.0452 59.8952 63.2314 59.8952 65.9177C59.8952 68.6039 57.709 70.7902 55.0227 70.7902ZM44.9777 63.5439C43.669 63.5439 42.6052 64.6077 42.6052 65.9164C42.6052 67.2252 43.669 68.2889 44.9777 68.2889H55.0227C56.3315 68.2889 57.3952 67.2252 57.3952 65.9164C57.3952 64.6077 56.3315 63.5439 55.0227 63.5439H44.9777Z" fill="black"/>
<path d="M55.0227 78.035H44.9777C42.2915 78.035 40.1052 75.8488 40.1052 73.1625C40.1052 70.4763 42.2915 68.29 44.9777 68.29H55.0227C57.709 68.29 59.8952 70.4763 59.8952 73.1625C59.8952 75.8488 57.709 78.035 55.0227 78.035ZM44.9777 70.7888C43.669 70.7888 42.6052 71.8525 42.6052 73.1613C42.6052 74.47 43.669 75.5338 44.9777 75.5338H55.0227C56.3315 75.5338 57.3952 74.47 57.3952 73.1613C57.3952 71.8525 56.3315 70.7888 55.0227 70.7888H44.9777Z" fill="black"/>
<path d="M24.7777 33.9375V39.4588C24.7777 45.9 29.999 51.1213 36.4402 51.1213H42.4652C44.109 51.1213 45.704 50.5588 46.9852 49.5275L50.0002 47.0988V37.36" fill="#FED2A4"/>
<path d="M39.0302 74.4314L33.2015 47.3601C31.2865 45.2826 30.114 42.5076 30.114 39.4589V31.4701C30.114 29.9051 30.5277 28.2701 31.4927 27.0989L28.0165 27.8389C25.7015 28.6989 24.7777 31.2014 24.7777 33.5426V39.4589C24.7777 42.5076 25.949 45.2826 27.8652 47.3601L33.694 74.4314C33.9902 75.8051 35.204 76.7851 36.6077 76.7851H41.944C40.539 76.7851 39.3252 75.8051 39.0302 74.4314Z" fill="#FFBD86"/>
<path d="M63.3927 78.0351H36.6077C34.6277 78.0351 32.8877 76.6301 32.4715 74.6938L26.7127 47.9463C24.6565 45.5926 23.5277 42.5913 23.5277 39.4576V33.5413C23.5277 30.2288 25.0815 27.5951 27.5815 26.6663C27.639 26.6451 27.6965 26.6276 27.7565 26.6151L47.9252 22.3213C49.2665 21.8463 50.7327 21.8463 52.074 22.3213L60.6902 24.1563C61.3652 24.3001 61.7965 24.9638 61.6527 25.6388C61.509 26.3138 60.8452 26.7451 60.1702 26.6013L51.469 24.7488C51.409 24.7363 51.3515 24.7188 51.294 24.6976C50.459 24.3876 49.539 24.3876 48.704 24.6976C48.6465 24.7188 48.589 24.7363 48.529 24.7488L28.3727 29.0401C26.6452 29.7363 26.0265 31.8113 26.0265 33.5413V39.4576C26.0265 42.0788 27.0052 44.5838 28.7827 46.5113C28.934 46.6751 29.039 46.8776 29.0852 47.0951L34.914 74.1663C35.084 74.9588 35.7965 75.5326 36.6065 75.5326H63.3915C64.2015 75.5326 64.9127 74.9576 65.084 74.1663L70.9215 47.0526C70.9677 46.8351 71.0715 46.6351 71.2215 46.4713C72.994 44.5376 73.9702 42.0263 73.9702 39.4026V33.5401C73.9702 32.2013 73.6627 29.8526 71.624 29.0388L64.4727 27.5163C63.7977 27.3726 63.3665 26.7088 63.5102 26.0338C63.654 25.3588 64.3177 24.9276 64.9927 25.0713L72.239 26.6138C72.299 26.6263 72.3565 26.6438 72.414 26.6651C74.9902 27.6213 76.4677 30.1276 76.4677 33.5401V39.4026C76.4677 42.5376 75.3427 45.5426 73.2927 47.9013L67.5252 74.6926C67.109 76.6288 65.369 78.0338 63.389 78.0338L63.3927 78.0351Z" fill="black"/>
<path d="M63.5065 52.3701H57.5353C55.6128 52.3701 53.729 51.7063 52.2315 50.5001L49.2165 48.0713C48.679 47.6388 48.594 46.8513 49.0265 46.3138C49.459 45.7763 50.2465 45.6913 50.784 46.1238L53.799 48.5526C54.854 49.4013 56.1803 49.8701 57.5353 49.8701H63.5065C69.2778 49.8701 73.9728 45.1751 73.9728 39.4038C73.9728 38.7138 74.5328 38.1538 75.2228 38.1538C75.9128 38.1538 76.4728 38.7138 76.4728 39.4038C76.4728 46.5538 70.6565 52.3701 63.5065 52.3701Z" fill="black"/>
<path d="M42.4652 52.3701H40.0652C39.3752 52.3701 38.8152 51.8101 38.8152 51.1201C38.8152 50.4301 39.3752 49.8701 40.0652 49.8701H42.4652C43.8189 49.8701 45.1464 49.4026 46.2014 48.5526L48.7514 46.5001V37.3589C48.7514 36.6689 49.3114 36.1089 50.0014 36.1089C50.6914 36.1089 51.2514 36.6689 51.2514 37.3589V47.0976C51.2514 47.4764 51.0802 47.8339 50.7852 48.0714L47.7702 50.5001C46.2727 51.7064 44.3889 52.3701 42.4664 52.3701H42.4652Z" fill="black"/>
<path d="M35.6652 52.3437C35.6377 52.3437 35.6102 52.3437 35.5815 52.3412C28.8227 51.8975 23.5277 46.2387 23.5277 39.4587C23.5277 38.7687 24.0877 38.2087 24.7777 38.2087C25.4677 38.2087 26.0277 38.7687 26.0277 39.4587C26.0277 44.9262 30.2965 49.4887 35.7452 49.8475C36.434 49.8925 36.9552 50.4875 36.9102 51.1762C36.8665 51.8375 36.3165 52.3437 35.664 52.3437H35.6652Z" fill="black"/>
<path d="M50.0002 78.035C49.3102 78.035 48.7502 77.475 48.7502 76.785V53.46C48.7502 52.77 49.3102 52.21 50.0002 52.21C50.6902 52.21 51.2502 52.77 51.2502 53.46V76.785C51.2502 77.475 50.6902 78.035 50.0002 78.035Z" fill="black"/>
<path d="M53.6765 63.5439H46.3228C42.894 63.5439 40.104 60.7539 40.104 57.3252V56.4402C40.104 55.7502 40.664 55.1902 41.354 55.1902C42.044 55.1902 42.604 55.7502 42.604 56.4402V57.3252C42.604 59.3752 44.2728 61.0439 46.3228 61.0439H53.6765C55.7265 61.0439 57.3953 59.3752 57.3953 57.3252V56.4402C57.3953 55.7502 57.9553 55.1902 58.6453 55.1902C59.3353 55.1902 59.8953 55.7502 59.8953 56.4402V57.3252C59.8953 60.7539 57.1053 63.5439 53.6765 63.5439Z" fill="black"/>
<path d="M46.0253 34.9251H38.6715C36.6715 34.9251 34.7803 33.9538 33.614 32.3251C33.2115 31.7638 33.3403 30.9826 33.9015 30.5813C34.4628 30.1788 35.244 30.3076 35.6453 30.8688C36.3428 31.8426 37.474 32.4251 38.6703 32.4251H46.024C46.714 32.4251 47.274 32.9851 47.274 33.6751C47.274 34.3651 46.714 34.9251 46.024 34.9251H46.0253Z" fill="black"/>
<path d="M61.329 34.9251H53.9752C53.2852 34.9251 52.7252 34.3651 52.7252 33.6751C52.7252 32.9851 53.2852 32.4251 53.9752 32.4251H61.329C62.5252 32.4251 63.6565 31.8438 64.354 30.8688C64.7565 30.3076 65.5365 30.1788 66.0977 30.5813C66.659 30.9838 66.7877 31.7638 66.3852 32.3251C65.219 33.9526 63.3277 34.9251 61.3277 34.9251H61.329Z" fill="black"/>
<path d="M30.0365 68.6037L36.8152 63.5462C37.1527 63.295 37.1527 62.79 36.8152 62.5387L30.0365 57.4812C29.6215 57.1712 29.0315 57.4675 29.0315 57.985V60.1487C29.0315 60.4962 28.7502 60.7775 28.4027 60.7775H19.379C19.0315 60.7775 18.7502 61.0587 18.7502 61.4062V64.68C18.7502 65.0275 19.0315 65.3087 19.379 65.3087H28.4027C28.7502 65.3087 29.0315 65.59 29.0315 65.9375V68.1C29.0315 68.6175 29.6215 68.9137 30.0365 68.6037Z" fill="#62DBFB"/>
<path d="M23.004 64.6789V61.4051C23.004 61.0576 23.2853 60.7764 23.6328 60.7764H19.3778C19.0303 60.7764 18.749 61.0576 18.749 61.4051V64.6789C18.749 65.0264 19.0303 65.3076 19.3778 65.3076H23.6328C23.2853 65.3076 23.004 65.0264 23.004 64.6789Z" fill="#01D0FB"/>
<path d="M29.6632 69.9799C29.3757 69.9799 29.0882 69.9137 28.8195 69.7787C28.1807 69.4574 27.7832 68.8149 27.7832 68.0987V66.5574H19.3807C18.3445 66.5574 17.502 65.7149 17.502 64.6787V61.4049C17.502 60.3687 18.3445 59.5262 19.3807 59.5262H27.7832V57.9837C27.7832 57.2687 28.1807 56.6249 28.8195 56.3037C29.4595 55.9837 30.212 56.0499 30.7857 56.4774L37.5645 61.5349C38.037 61.8874 38.3195 62.4499 38.3195 63.0399C38.3195 63.6299 38.037 64.1937 37.5645 64.5462L30.7857 69.6037C30.4532 69.8512 30.0607 69.9787 29.6645 69.9787L29.6632 69.9799ZM29.292 67.6012C29.292 67.6012 29.292 67.6012 29.2907 67.6012H29.292ZM20.0007 64.0574H28.4032C29.4395 64.0574 30.282 64.8999 30.282 65.9362V66.8612L35.4007 63.0424L30.282 59.2237V60.1487C30.282 61.1849 29.4395 62.0274 28.4032 62.0274H20.0007V64.0587V64.0574Z" fill="black"/>
<path d="M69.964 57.4812L63.1853 62.5387C62.8478 62.79 62.8478 63.295 63.1853 63.5462L69.964 68.6037C70.379 68.9125 70.969 68.6175 70.969 68.1V65.9375C70.969 65.59 71.2503 65.3087 71.5978 65.3087H80.6227C80.9702 65.3087 81.2515 65.0275 81.2515 64.68V61.4062C81.2515 61.0587 80.9702 60.7775 80.6227 60.7775H71.5978C71.2503 60.7775 70.969 60.4962 70.969 60.1487V57.985C70.969 57.4675 70.379 57.1712 69.964 57.4812Z" fill="#62DBFB"/>
<path d="M65.259 61.4163C65.1615 61.3438 65.0928 61.2488 65.0515 61.145L63.184 62.5388C62.8465 62.79 62.8465 63.295 63.184 63.5463L69.9628 68.6038C70.3778 68.9125 70.9678 68.6175 70.9678 68.1V65.9375C70.9678 65.8563 70.984 65.78 71.0128 65.7088L65.259 61.4163Z" fill="#01D0FB"/>
<path d="M70.3377 69.9802C69.9415 69.9802 69.549 69.8539 69.2165 69.6052L62.4377 64.5477C61.9652 64.1952 61.6827 63.6314 61.6827 63.0414C61.6827 62.4514 61.9652 61.8889 62.4377 61.5352L69.2165 56.4777C69.789 56.0502 70.5427 55.9839 71.1827 56.3039C71.8215 56.6239 72.219 57.2677 72.219 57.9839V59.5264H80.6227C81.659 59.5264 82.5015 60.3689 82.5015 61.4052V64.6789C82.5015 65.7152 81.659 66.5577 80.6227 66.5577H78.0452C77.3552 66.5577 76.7952 65.9977 76.7952 65.3077C76.7952 64.6177 77.3552 64.0577 78.0452 64.0577H80.0015V62.0264H71.5977C70.5615 62.0264 69.719 61.1839 69.719 60.1477V59.2227L64.6002 63.0414L69.719 66.8602V65.9352C69.719 64.8989 70.5615 64.0564 71.5977 64.0564H73.6427C74.3327 64.0564 74.8927 64.6164 74.8927 65.3064C74.8927 65.9964 74.3327 66.5564 73.6427 66.5564H72.219V68.0977C72.219 68.8127 71.8215 69.4564 71.1827 69.7777C70.914 69.9127 70.6252 69.9789 70.339 69.9789L70.3377 69.9802Z" fill="black"/>
</svg>
