<?xml version="1.0" encoding="UTF-8"?>
<svg id="Capa_2" xmlns="http://www.w3.org/2000/svg" viewBox="0 0 40 40">
  <defs>
    <style>
      .cls-1 {
        fill: #5e6478;
      }

      .cls-2 {
        fill: #fddb33;
      }

      .cls-3 {
        fill: #e05e5e;
      }

      .cls-4 {
        fill: #4c5061;
      }

      .cls-5 {
        fill: none;
      }

      .cls-6 {
        fill: #ff7373;
      }

      .cls-7 {
        fill: #f9c032;
      }
    </style>
  </defs>
  <g id="Capa_1-2" data-name="Capa_1">
    <g id="boxeo">
      <g>
        <path class="cls-1" d="M9.53,37.59c-1.18,0-2.14-.96-2.14-2.14v-7.83h14.4v7.74c0,1.24-1,2.24-2.24,2.24h-10.02,0Z"/>
        <path class="cls-4" d="M19.45,27.61v7.74c0,1.24-1,2.24-2.24,2.24h2.33c1.24,0,2.24-1,2.24-2.24v-7.74h-2.33Z"/>
        <path class="cls-6" d="M4.24,13.05v-2.81c0-4.32,3.5-7.83,7.83-7.83h6.33c4.32,0,7.83,3.5,7.83,7.83v11.6c0,3.63-2.94,6.57-6.57,6.57h-10.13c-4.52,0-8.19-3.67-8.19-8.19v-2.98c0-2.41,1.95-4.36,4.36-4.36h2.97c1.68,0,3.04,1.36,3.04,3.04s-1.36,3.04-3.04,3.04h-2.67"/>
        <path class="cls-3" d="M18.4,2.41h-2.33c4.32,0,7.83,3.5,7.83,7.83v11.6c0,3.63-2.94,6.57-6.57,6.57h2.33c3.63,0,6.57-2.94,6.57-6.57v-11.6c0-4.32-3.5-7.83-7.83-7.83Z"/>
        <path class="cls-6" d="M11.18,17.74c.71.21,1.46.32,2.24.32h5.46c1.76,0,3.18-1.42,3.18-3.18v-2.07"/>
        <path class="cls-3" d="M19.73,12.82v1.29c0,1.76-1.42,3.18-3.18,3.18h.78-6.98l.66.45c.89.21,1.64.32,2.41.32h5.46c1.76,0,3.18-1.42,3.18-3.18v-2.07h-2.33Z"/>
        <path class="cls-2" d="M21.79,34.83h-6.28c-1.02,0-1.84-.82-1.84-1.84s.82-1.84,1.84-1.84h6.28v3.68Z"/>
        <path class="cls-7" d="M21.79,31.15h-2.33v3.68h2.33v-3.68Z"/>
        <path class="cls-3" d="M8.67,12.88h-2.33c1.68,0,3.04,1.36,3.04,3.04s-1.36,3.04-3.04,3.04h2.33c1.68,0,3.04-1.36,3.04-3.04s-1.36-3.04-3.04-3.04Z"/>
        <path d="M26.22,17.14c.29,0,.53-.24.53-.53v-6.37c0-4.61-3.75-8.36-8.36-8.36h-6.33C7.46,1.88,3.71,5.63,3.71,10.24v2.53c-1.71.76-2.91,2.48-2.91,4.47v2.98c0,3.88,2.55,7.18,6.06,8.3v6.92c0,1.47,1.2,2.67,2.67,2.67h.99c.68,0,.68-1.06,0-1.06h-.99c-1.44,0-1.61-1.34-1.61-2.44h3.2c.68,0,.68-1.06,0-1.06h-3.2v-4.63h13.34v1.7h-5.75c-1.31,0-2.37,1.06-2.37,2.37s1.06,2.37,2.37,2.37h5.75c0,.94-.77,1.7-1.71,1.7h-5.56c-.68,0-.68,1.06,0,1.06h5.56c1.53,0,2.77-1.24,2.77-2.77v-6.93c2.6-1.06,4.43-3.61,4.43-6.58v-2.04c0-.68-1.06-.68-1.06,0v2.04c0,3.18-2.48,5.8-5.61,6.02h-11.08c-3.99-.26-7.15-3.59-7.15-7.64v-2.98c0-2.11,1.72-3.83,3.83-3.83h2.97c1.38,0,2.51,1.12,2.51,2.51s-1.12,2.51-2.51,2.51h-2.67c-.68,0-.68,1.06,0,1.06h2.67c1.04,0,1.98-.45,2.63-1.16.69.18,1.4.27,2.12.27h5.46c1.58,0,2.93-.99,3.47-2.39l1.85-1.08c.59-.35.06-1.26-.54-.92l-1.07.63v-2.02c0-.68-1.06-.68-1.06,0v2.07c0,1.46-1.19,2.65-2.65,2.65h-5.46c-.51,0-1.01-.05-1.5-.16.2-.45.32-.94.32-1.46,0-1.97-1.6-3.57-3.57-3.57h-2.97c-.32,0-.62.03-.92.09v-2.2c0-4.02,3.27-7.3,7.3-7.3h6.33c4.02,0,7.3,3.27,7.3,7.3v6.37c0,.29.24.53.53.53h0ZM21.2,34.3h-5.69c-.72,0-1.31-.59-1.31-1.31s.59-1.31,1.31-1.31h5.69v2.62Z"/>
        <path class="cls-1" d="M21.98,37.59c-1.18,0-2.14-.96-2.14-2.14v-7.83h14.4v7.74c0,1.24-1,2.24-2.24,2.24h-10.02,0Z"/>
        <path class="cls-4" d="M31.9,27.61v7.74c0,1.24-1,2.24-2.24,2.24h2.33c1.24,0,2.24-1,2.24-2.24v-7.74h-2.33Z"/>
        <path class="cls-6" d="M16.69,13.05v-2.81c0-4.32,3.5-7.83,7.83-7.83h6.33c4.32,0,7.83,3.5,7.83,7.83v11.6c0,3.63-2.94,6.57-6.57,6.57h-10.13c-4.52,0-8.19-3.67-8.19-8.19v-2.98c0-2.41,1.95-4.36,4.36-4.36h2.97c1.68,0,3.04,1.36,3.04,3.04s-1.36,3.04-3.04,3.04h-2.67"/>
        <path class="cls-3" d="M30.84,2.41h-2.33c4.32,0,7.83,3.5,7.83,7.83v11.6c0,3.63-2.94,6.57-6.57,6.57h2.33c3.63,0,6.57-2.94,6.57-6.57v-11.6c0-4.32-3.5-7.83-7.83-7.83Z"/>
        <path class="cls-6" d="M23.63,17.74c.71.21,1.46.32,2.24.32h5.46c1.76,0,3.18-1.42,3.18-3.18v-2.07"/>
        <path class="cls-3" d="M32.17,12.82v1.29c0,1.76-1.42,3.18-3.18,3.18h.78-6.98l.66.45c.89.21,1.64.32,2.41.32h5.46c1.76,0,3.18-1.42,3.18-3.18v-2.07h-2.33Z"/>
        <path class="cls-2" d="M34.24,34.83h-6.28c-1.02,0-1.84-.82-1.84-1.84s.82-1.84,1.84-1.84h6.28v3.68Z"/>
        <path class="cls-7" d="M34.23,31.15h-2.33v3.68h2.33v-3.68Z"/>
        <path class="cls-3" d="M21.11,12.88h-2.33c1.68,0,3.04,1.36,3.04,3.04s-1.36,3.04-3.04,3.04h2.33c1.68,0,3.04-1.36,3.04-3.04s-1.36-3.04-3.04-3.04Z"/>
        <path d="M38.67,17.14c.29,0,.53-.24.53-.53v-6.37c0-4.61-3.75-8.36-8.36-8.36h-6.33c-4.61,0-8.36,3.75-8.36,8.36v2.53c-1.71.76-2.91,2.48-2.91,4.47v2.98c0,3.88,2.55,7.18,6.06,8.3v6.92c0,1.47,1.2,2.67,2.67,2.67h.99c.68,0,.68-1.06,0-1.06h-.99c-1.44,0-1.61-1.34-1.61-2.44h3.2c.68,0,.68-1.06,0-1.06h-3.2v-4.63h13.34v1.7h-5.75c-1.31,0-2.37,1.06-2.37,2.37s1.06,2.37,2.37,2.37h5.75c0,.94-.77,1.7-1.71,1.7h-5.56c-.68,0-.68,1.06,0,1.06h5.56c1.53,0,2.77-1.24,2.77-2.77v-6.93c2.6-1.06,4.43-3.61,4.43-6.58v-2.04c0-.68-1.06-.68-1.06,0v2.04c0,3.18-2.48,5.8-5.61,6.02h-11.08c-3.99-.26-7.15-3.59-7.15-7.64v-2.98c0-2.11,1.72-3.83,3.83-3.83h2.97c1.38,0,2.51,1.12,2.51,2.51s-1.12,2.51-2.51,2.51h-2.67c-.68,0-.68,1.06,0,1.06h2.67c1.04,0,1.98-.45,2.63-1.16.69.18,1.4.27,2.12.27h5.46c1.58,0,2.93-.99,3.47-2.39l1.85-1.08c.59-.35.06-1.26-.54-.92l-1.07.63v-2.02c0-.68-1.06-.68-1.06,0v2.07c0,1.46-1.19,2.65-2.65,2.65h-5.46c-.51,0-1.01-.05-1.5-.16.2-.45.32-.94.32-1.46,0-1.97-1.6-3.57-3.57-3.57h-2.97c-.32,0-.62.03-.92.09v-2.2c0-4.02,3.27-7.3,7.3-7.3h6.33c4.02,0,7.3,3.27,7.3,7.3v6.37c0,.29.24.53.53.53h0ZM33.65,34.3h-5.69c-.72,0-1.31-.59-1.31-1.31s.59-1.31,1.31-1.31h5.69v2.62Z"/>
      </g>
      <rect class="cls-5" width="40" height="40"/>
    </g>
  </g>
</svg>