<svg width="100" height="100" viewBox="0 0 100 100" fill="none" xmlns="http://www.w3.org/2000/svg">
<path d="M71.3664 31.6074H67.2526V35.2324C67.2526 35.5937 67.1326 35.9424 66.9326 36.2737H71.3664V31.6087V31.6074Z" fill="#ACA6D6"/>
<path d="M54.0065 31.6075H49.964V36.2724H54.3002C54.1165 35.9424 54.0077 35.5925 54.0077 35.2312V31.6062L54.0065 31.6075Z" fill="#ACA6D6"/>
<path d="M48.5176 42.6487H42.0788C41.2801 42.6487 40.6326 42.0012 40.6326 41.2024V26.6775C40.6326 25.8787 41.2801 25.2312 42.0788 25.2312H48.5176C49.3163 25.2312 49.9638 25.8787 49.9638 26.6775V41.2024C49.9638 42.0012 49.3163 42.6487 48.5176 42.6487Z" fill="#54469C"/>
<path d="M44.7476 41.2024V26.6775C44.7476 25.8787 45.3951 25.2312 46.1938 25.2312H42.0788C41.2801 25.2312 40.6326 25.8787 40.6326 26.6775V41.2024C40.6326 42.0012 41.2801 42.6487 42.0788 42.6487H46.1938C45.3951 42.6487 44.7476 42.0012 44.7476 41.2024Z" fill="#463B84"/>
<path d="M79.2515 42.6487H72.8127C72.014 42.6487 71.3665 42.0012 71.3665 41.2024V26.6775C71.3665 25.8787 72.014 25.2312 72.8127 25.2312H79.2515C80.0502 25.2312 80.6977 25.8787 80.6977 26.6775V41.2024C80.6977 42.0012 80.0502 42.6487 79.2515 42.6487Z" fill="#54469C"/>
<path d="M75.509 41.2024V26.6775C75.509 25.8787 76.1565 25.2312 76.9552 25.2312H72.8127C72.014 25.2312 71.3665 25.8787 71.3665 26.6775V41.2024C71.3665 42.0012 72.014 42.6487 72.8127 42.6487H76.9552C76.1565 42.6487 75.509 42.0012 75.509 41.2024Z" fill="#463B84"/>
<path d="M68.14 61.0924L64.1813 39.6374C64.0726 39.0499 64.3326 38.4512 64.8438 38.1424C65.9875 37.4512 67.2526 36.4037 67.2526 35.2312V30.7087C67.2526 29.7762 66.5563 28.9637 65.6276 28.8849C64.8488 28.8187 64.16 29.2649 63.8601 29.9212C63.5788 29.3074 62.96 28.8787 62.245 28.8787C61.53 28.8787 60.91 29.3087 60.6301 29.9212C60.3488 29.3074 59.73 28.8787 59.015 28.8787C58.3 28.8787 57.68 29.3087 57.4001 29.9212C57.0988 29.2649 56.4113 28.8187 55.6325 28.8849C54.7038 28.9637 54.0075 29.7762 54.0075 30.7087V35.2312C54.0075 36.5599 55.4688 37.7274 56.7888 38.3987C57.2988 38.6587 57.6013 39.2024 57.5638 39.7749L56.4713 56.6962C54.2488 55.5174 51.435 54.8112 48.3725 54.8112C45.31 54.8112 42.52 55.5099 40.3013 56.6812C38.2138 53.9274 34.8925 52.1612 31.16 52.2087C25.1275 52.2862 20.1738 57.1849 20.0313 63.2162C19.8813 69.5699 24.9875 74.7674 31.3075 74.7674C34.98 74.7674 38.2413 73.0112 40.3013 70.2949C42.52 71.4662 45.3238 72.1649 48.3725 72.1649C53.3413 72.1649 57.6588 70.3087 59.8513 67.5799L64.1201 66.7212C66.7326 66.1949 68.4888 63.7337 68.1388 61.0924H68.14Z" fill="#FED2A4"/>
<path d="M60.615 39.775C60.6512 39.2038 60.35 38.6588 59.84 38.4C58.52 37.7288 57.0587 36.5613 57.0587 35.2325V30.71C57.0587 30.3688 57.1525 30.045 57.3162 29.765C56.9837 29.1963 56.3462 28.825 55.6312 28.885C54.7025 28.9638 54.0062 29.7763 54.0062 30.7088V35.2313C54.0062 36.56 55.4675 37.7275 56.7875 38.3988C57.2975 38.6588 57.6 39.2025 57.5625 39.7738L56.48 56.5513L56.5475 56.695C56.7387 56.75 56.9287 56.77 57.115 56.7688C58.48 56.7588 59.59 55.6563 59.6775 54.2938L60.615 39.7738V39.775Z" fill="#FFBD86"/>
<path d="M25.1588 63.2175C25.2813 58.0125 28.9888 53.6512 33.88 52.505C33.0075 52.3012 32.0963 52.1987 31.1588 52.2112C25.1263 52.2887 20.1725 57.1875 20.0313 63.2187C19.8813 69.5725 24.9875 74.77 31.3075 74.77C32.1888 74.77 33.0463 74.6675 33.8688 74.4762C28.7913 73.295 25.0288 68.6837 25.1575 63.2175H25.1588Z" fill="#FFBD86"/>
<path d="M80.6973 30.6012C81.2023 30.6012 81.6123 30.1912 81.6123 29.6862V26.6774C81.6123 25.3749 80.5522 24.3162 79.251 24.3162H72.8122C71.5097 24.3162 70.451 25.3762 70.451 26.6774V30.6912H68.1673C68.1585 29.2812 67.081 28.0887 65.7048 27.9724C65.0322 27.9149 64.3785 28.1162 63.8597 28.5062C63.401 28.1612 62.8372 27.9624 62.2435 27.9624C61.6497 27.9624 61.086 28.1599 60.6285 28.5049C60.1697 28.1599 59.606 27.9624 59.0135 27.9624C58.421 27.9624 57.856 28.1599 57.3972 28.5062C56.8785 28.1162 56.2248 27.9162 55.5522 27.9724C54.1772 28.0887 53.0985 29.2812 53.0897 30.6912H50.8772V26.6762C50.8772 25.3737 49.8172 24.3149 48.516 24.3149H42.0772C40.7747 24.3149 39.716 25.3749 39.716 26.6762V41.2012C39.716 42.5037 40.776 43.5624 42.0772 43.5624H48.516C49.8185 43.5624 50.8772 42.5024 50.8772 41.2012V37.1874H53.8022C54.281 37.8387 55.071 38.5537 56.371 39.2137C56.5535 39.3062 56.6622 39.5024 56.6485 39.7149L55.6435 55.2912C53.4647 54.3749 50.9797 53.8949 48.3722 53.8949C45.5435 53.8949 42.8572 54.4599 40.551 55.5349C38.2097 52.8199 34.7535 51.2487 31.1472 51.2937C27.991 51.3349 25.006 52.5899 22.7422 54.8287C20.4772 57.0687 19.1897 60.0387 19.116 63.1937C19.0385 66.5087 20.2697 69.6387 22.5835 72.0074C24.8985 74.3774 27.996 75.6824 31.3085 75.6824C34.9035 75.6824 38.231 74.1462 40.5522 71.4399C42.8573 72.5137 45.5435 73.0787 48.3722 73.0787C49.6835 73.0787 50.9823 72.9537 52.236 72.7074C52.7323 72.6099 53.0547 72.1287 52.9572 71.6324C52.8597 71.1362 52.3785 70.8124 51.8822 70.9112C50.746 71.1349 49.5647 71.2487 48.3722 71.2487C45.5985 71.2487 42.8835 70.6224 40.7285 69.4849C40.7185 69.4799 38.8772 68.3437 38.1747 67.6387C37.8172 67.2812 37.2385 67.2799 36.8797 67.6374C36.5222 67.9949 36.521 68.5737 36.8785 68.9324C37.4697 69.5249 38.1497 70.0624 38.9022 70.5399C36.9447 72.6562 34.2297 73.8524 31.3085 73.8524C28.3872 73.8524 25.861 72.7437 23.8935 70.7299C21.9272 68.7162 20.881 66.0562 20.9472 63.2387C21.0097 60.5599 22.106 58.0362 24.031 56.1324C25.956 54.2287 28.4922 53.1599 31.1722 53.1262C34.1472 53.0874 36.9097 54.2824 38.8997 56.4337C38.0072 57.0037 37.2147 57.6587 36.5497 58.3912C36.2097 58.7662 36.2385 59.3449 36.6122 59.6849C36.7872 59.8437 37.0072 59.9224 37.2272 59.9224C37.476 59.9224 37.7135 59.8099 37.906 59.6224C39.3772 58.1812 40.7472 57.4849 40.7472 57.4849C42.8997 56.3537 45.6072 55.7299 48.3735 55.7299C51.1397 55.7299 53.8822 56.3612 56.0422 57.5074C56.3172 57.6537 56.646 57.6499 56.9172 57.4974C57.1885 57.3462 57.3647 57.0674 57.3847 56.7574L58.4772 39.8362C58.5385 38.8937 58.0385 38.0099 57.2035 37.5862C55.8397 36.8924 54.9222 35.9474 54.9222 35.2349V30.7124C54.9222 30.2387 55.2673 29.8374 55.7085 29.8012C56.1247 29.7662 56.4398 30.0299 56.5672 30.3062C56.716 30.6312 57.041 30.8399 57.3997 30.8399C57.7585 30.8399 58.0835 30.6312 58.2322 30.3062C58.3735 29.9974 58.681 29.7974 59.0147 29.7974C59.3485 29.7974 59.656 29.9974 59.7972 30.3062C59.946 30.6312 60.271 30.8399 60.6297 30.8399C60.9885 30.8399 61.3135 30.6312 61.4622 30.3062C61.6035 29.9974 61.911 29.7974 62.2447 29.7974C62.5785 29.7974 62.886 29.9974 63.0272 30.3062C63.176 30.6312 63.501 30.8399 63.8597 30.8399C64.2185 30.8399 64.5435 30.6312 64.6922 30.3062C64.8185 30.0287 65.1335 29.7649 65.551 29.8012C65.9922 29.8387 66.3372 30.2387 66.3372 30.7124V35.2349C66.3372 35.8237 65.6022 36.6187 64.3698 37.3624C63.541 37.8637 63.1022 38.8462 63.2797 39.8074L64.5335 46.5987C64.6248 47.0962 65.1022 47.4249 65.5997 47.3324C66.0972 47.2412 66.426 46.7637 66.3335 46.2662L65.0798 39.4749C65.0397 39.2587 65.1348 39.0399 65.316 38.9299C66.2248 38.3812 66.9222 37.7962 67.4022 37.1912H70.4497V41.2049C70.4497 42.5074 71.5097 43.5662 72.811 43.5662H79.2497C80.5522 43.5662 81.611 42.5062 81.611 41.2049V33.9612C81.611 33.4562 81.201 33.0462 80.696 33.0462C80.191 33.0462 79.781 33.4562 79.781 33.9612V41.2049C79.781 41.4974 79.5435 41.7362 79.2497 41.7362H72.811C72.5185 41.7362 72.2797 41.4987 72.2797 41.2049V26.6799C72.2797 26.3874 72.5172 26.1487 72.811 26.1487H79.2497C79.5422 26.1487 79.781 26.3862 79.781 26.6799V29.6887C79.781 30.1937 80.191 30.6037 80.696 30.6037L80.6973 30.6012ZM49.0472 41.2024C49.0472 41.4949 48.8097 41.7337 48.516 41.7337H42.0772C41.7847 41.7337 41.546 41.4962 41.546 41.2024V26.6774C41.546 26.3849 41.7835 26.1462 42.0772 26.1462H48.516C48.8085 26.1462 49.0472 26.3837 49.0472 26.6774V41.2024ZM50.8785 35.3574V32.5237H53.091V35.2324C53.091 35.2712 53.091 35.3124 53.0947 35.3574H50.8797H50.8785ZM68.1622 35.3574C68.1647 35.3162 68.1685 35.2737 68.1685 35.2324V32.5237H70.451V35.3574H68.1622Z" fill="black"/>
<path d="M69.0398 60.9276L67.1098 50.4688C67.0185 49.9713 66.5398 49.6426 66.0435 49.7351C65.546 49.8263 65.2173 50.3038 65.3098 50.8013L67.2348 61.2363C67.5085 63.3838 66.0648 65.3976 63.9398 65.8251L59.671 66.6838C59.461 66.7263 59.2723 66.8413 59.1385 67.0076C58.3185 68.0276 57.1335 68.9376 55.711 69.6413C55.2573 69.8651 55.0723 70.4151 55.296 70.8676C55.456 71.1901 55.7798 71.3776 56.1173 71.3776C56.2535 71.3776 56.3923 71.3476 56.5223 71.2826C58.0635 70.5201 59.3785 69.5338 60.3485 68.4151L64.3023 67.6188C67.376 67.0001 69.461 64.0813 69.0485 60.9726C69.046 60.9576 69.0448 60.9426 69.041 60.9276H69.0398Z" fill="black"/>
<path d="M48.106 50.3925V48.02C48.106 47.515 47.696 47.105 47.191 47.105C46.686 47.105 46.276 47.515 46.276 48.02V50.3925C46.276 50.8975 46.686 51.3075 47.191 51.3075C47.696 51.3075 48.106 50.8975 48.106 50.3925Z" fill="black"/>
<path d="M43.1822 52.2562C43.416 52.2562 43.651 52.1675 43.8297 51.9875C44.1872 51.63 44.1872 51.05 43.8297 50.6925L42.1522 49.015C41.7947 48.6575 41.2147 48.6575 40.8572 49.015C40.4997 49.3725 40.4997 49.9525 40.8572 50.31L42.5347 51.9875C42.7135 52.1662 42.9472 52.2562 43.1822 52.2562Z" fill="black"/>
<path d="M51.8461 51.9887L53.5236 50.3112C53.8811 49.9537 53.8811 49.3737 53.5236 49.0162C53.1661 48.6587 52.5861 48.6587 52.2286 49.0162L50.5511 50.6937C50.1936 51.0512 50.1936 51.6312 50.5511 51.9887C50.7298 52.1674 50.9636 52.2574 51.1986 52.2574C51.4336 52.2574 51.6673 52.1687 51.8461 51.9887Z" fill="black"/>
<path d="M24.8295 42.2925L33.7133 43.585C34.037 43.6313 34.3133 43.355 34.267 43.0313L32.9745 34.1475C32.917 33.75 32.4308 33.5888 32.1458 33.8725L30.3045 35.7138C30.1133 35.905 29.8045 35.905 29.6145 35.7138L22.9995 29.0988C22.8083 28.9075 22.4995 28.9075 22.3095 29.0988L19.7808 31.6275C19.5908 31.8175 19.5895 32.1275 19.7808 32.3175L26.3958 38.9325C26.587 39.1238 26.587 39.4325 26.3958 39.6225L24.5545 41.4638C24.2708 41.7475 24.432 42.235 24.8295 42.2925Z" fill="#62DBFB"/>
<path d="M23.6919 35.54L26.2207 33.0113C26.4119 32.82 26.7207 32.82 26.9107 33.0113L22.9982 29.0988C22.8069 28.9075 22.4982 28.9075 22.3082 29.0988L19.7794 31.6275C19.5894 31.8175 19.5882 32.1275 19.7794 32.3175L23.6919 36.23C23.5007 36.0388 23.5019 35.73 23.6919 35.54Z" fill="#01D0FB"/>
<path d="M33.781 44.8399C33.6985 44.8399 33.6172 44.8337 33.5347 44.8224L24.6497 43.5299C23.9947 43.4349 23.4585 42.9849 23.2497 42.3574C23.041 41.7299 23.2022 41.0487 23.6697 40.5812L24.9722 39.2787L18.896 33.2024C18.5672 32.8737 18.3872 32.4374 18.3872 31.9724C18.3872 31.5087 18.5685 31.0724 18.896 30.7437L21.4247 28.2149C22.1022 27.5374 23.2047 27.5374 23.8835 28.2149L29.9597 34.2912L31.2622 32.9887C31.7297 32.5212 32.411 32.3599 33.0385 32.5687C33.666 32.7774 34.116 33.3137 34.211 33.9687L35.5035 42.8524C35.5822 43.3924 35.3985 43.9449 35.0122 44.3312C34.6847 44.6587 34.2372 44.8399 33.7797 44.8399H33.781ZM26.5122 41.2749L32.8835 42.2012L31.9572 35.8299L31.1897 36.5974C30.861 36.9262 30.4247 37.1062 29.961 37.1062C29.4972 37.1062 29.0597 36.9249 28.7322 36.5974L22.656 30.5212L21.2047 31.9724L27.281 38.0487C27.9585 38.7262 27.9585 39.8287 27.281 40.5074L26.5135 41.2749H26.5122Z" fill="black"/>
</svg>
