<?xml version="1.0" encoding="UTF-8"?>
<svg id="Capa_2" xmlns="http://www.w3.org/2000/svg" viewBox="0 0 22 22">
  <defs>
    <style>
      .cls-1 {
        fill: none;
      }

      .cls-2 {
        fill: #0b0b0b;
      }
    </style>
  </defs>
  <g id="Capa_1-2" data-name="Capa_1">
    <g>
      <path class="cls-2" d="M14,21.75h-6c-5.43,0-7.75-2.32-7.75-7.75v-6C.25,2.57,2.57.25,8,.25h6c5.43,0,7.75,2.32,7.75,7.75v6c0,5.43-2.32,7.75-7.75,7.75ZM8,1.75C3.39,1.75,1.75,3.39,1.75,8v6c0,4.61,1.64,6.25,6.25,6.25h6c4.61,0,6.25-1.64,6.25-6.25v-6c0-4.61-1.64-6.25-6.25-6.25h-6ZM10.11,14.36l5.67-5.66c.29-.29.29-.77,0-1.06-.29-.29-.77-.29-1.06,0l-5.14,5.13-2.3-2.3c-.29-.29-.77-.29-1.06,0s-.29.77,0,1.06l2.83,2.83c.15.15.34.22.53.22s.38-.07.53-.22Z"/>
      <rect class="cls-1" width="22" height="22"/>
    </g>
  </g>
</svg>