<?xml version="1.0" encoding="UTF-8"?>
<svg id="Capa_2" xmlns="http://www.w3.org/2000/svg" viewBox="0 0 17.67 14.33">
  <defs>
    <style>
      .cls-1 {
        fill: none;
        stroke: #6c6c6c;
        stroke-linecap: round;
        stroke-linejoin: round;
      }
    </style>
  </defs>
  <g id="Capa_1-2" data-name="Capa_1">
    <path class="cls-1" d="M16.75,12.17l-5.54-5M6.45,7.17L.92,12.17M.5,3l6.8,4.76c.55.39.83.58,1.13.65.26.07.54.07.81,0,.3-.07.58-.27,1.13-.65l6.8-4.76M4.5,13.83h8.67c1.4,0,2.1,0,2.63-.27.47-.24.85-.62,1.09-1.09.27-.53.27-1.23.27-2.64v-5.33c0-1.4,0-2.1-.27-2.63-.24-.47-.62-.85-1.09-1.09-.53-.27-1.23-.27-2.63-.27H4.5c-1.4,0-2.1,0-2.63.27-.47.24-.85.62-1.09,1.09-.27.53-.27,1.23-.27,2.63v5.33c0,1.4,0,2.1.27,2.64.24.47.62.85,1.09,1.09.53.27,1.23.27,2.63.27Z"/>
  </g>
</svg>