<?xml version="1.0" encoding="UTF-8"?>
<svg id="Capa_2" xmlns="http://www.w3.org/2000/svg" viewBox="0 0 22 22">
  <defs>
    <style>
      .cls-1 {
        fill: #fff;
      }

      .cls-2 {
        fill: none;
      }
    </style>
  </defs>
  <g id="Capa_1-2" data-name="Capa_1">
    <g>
      <path class="cls-1" d="M16.2,20H5.8c-1.84,0-2.76,0-3.62-.44-.76-.39-1.36-.99-1.75-1.75C0,16.96,0,16.04,0,14.2v-6.4C0,7.17,0,6.64.02,6.19c-.03-.16-.02-.33.03-.5.05-.6.16-1.06.39-1.51.39-.76.99-1.36,1.75-1.75.86-.44,1.78-.44,3.62-.44h10.4c1.84,0,2.76,0,3.62.44.76.39,1.36.99,1.75,1.75.23.44.33.91.39,1.51.05.16.06.33.03.5.02.45.02.98.02,1.61v6.4c0,1.84,0,2.76-.44,3.62-.39.76-.99,1.36-1.75,1.75-.86.44-1.78.44-3.62.44ZM2.56,17.39c.15.16.33.29.53.39.43.22,1.24.22,2.71.22h10.4c1.47,0,2.28,0,2.71-.22.2-.1.38-.23.53-.39l-5.66-5.11-.37.26c-.74.52-1.14.8-1.68.94-.47.12-.98.12-1.45,0-.54-.13-.95-.42-1.68-.93l-.37-.26-5.66,5.11ZM2,7.92v6.28c0,.37,0,.71,0,1l4.54-4.1-4.54-3.18ZM15.46,11.1l4.54,4.1c0-.29,0-.62,0-1v-6.28l-4.54,3.18ZM8.74,10.2l1,.7c.52.37.84.59,1.02.63.16.04.33.04.48,0,.18-.04.5-.27,1.02-.63l1-.7s.04-.03.05-.04l6.61-4.62c-.03-.18-.07-.33-.13-.45-.19-.38-.5-.68-.87-.87-.43-.22-1.24-.22-2.71-.22H5.8c-1.47,0-2.28,0-2.71.22-.38.19-.68.5-.87.87-.06.12-.1.26-.14.45l6.61,4.62s.04.02.05.04Z"/>
      <rect class="cls-2" x="0" width="22" height="22"/>
    </g>
  </g>
</svg>