<?xml version="1.0" encoding="UTF-8"?>
<svg id="Capa_2" xmlns="http://www.w3.org/2000/svg" viewBox="0 0 40 40">
  <defs>
    <style>
      .cls-1 {
        fill: #5e6478;
      }

      .cls-2 {
        fill: #fddb33;
      }

      .cls-3 {
        fill: none;
      }

      .cls-4 {
        fill: #f4f7ff;
      }

      .cls-5 {
        fill: #f9c032;
      }

      .cls-6 {
        fill: #e3e6ed;
      }
    </style>
  </defs>
  <g id="Capa_1-2" data-name="Capa_1">
    <g id="cycling">
      <g>
        <path class="cls-6" d="M4.47,13.83l4.83,12.73,2.22-.68-4.62-11.97-1.24-1.18-1.19,1.09h0Z"/>
        <path class="cls-2" d="M13.56,25.28h.08c7.82.03,14.16,6.32,14.25,14.13v.02H7.85c-2.34,0-4.24-1.9-4.24-4.24,0-2.16.69-4.15,1.86-5.78,0,0,2.71-4.13,8.09-4.13"/>
        <path class="cls-5" d="M27.88,39.42c-.09-7.81-6.43-14.11-14.25-14.13h-.08c-.59,0-1.14.05-1.67.14,6.9.96,12.24,6.84,12.32,14v.02h3.68v-.02Z"/>
        <path class="cls-6" d="M27.72,36.78c3.68-2.22,6.57-5.77,7.88-10.22,1.71-5.86.27-11.89-3.33-16.27l.93-2.33.88.93c4.05,4.93,5.67,11.71,3.75,18.3-1.59,5.43-5.28,9.67-9.94,12.1l-.18-2.5h0Z"/>
        <path class="cls-1" d="M3.09,13.76h7.1c-1.72-2.17-4.34-3.43-7.1-3.43-.95,0-1.72.77-1.72,1.72s.77,1.72,1.72,1.72Z"/>
        <path class="cls-4" d="M16.58,32.87c0,1.97-1.6,3.56-3.56,3.56s-3.56-1.6-3.56-3.56,1.6-3.56,3.56-3.56,3.56,1.6,3.56,3.56Z"/>
        <path class="cls-2" d="M35.01,2.64c.67-.67,1.76-.67,2.43,0,.67.67.67,1.76,0,2.43l-8.85,8.85c-.32-2.75.64-5.49,2.59-7.45l3.83-3.83Z"/>
        <path class="cls-5" d="M37.44,2.64c-.67-.67-1.76-.67-2.43,0l-.03.03c.65.67.64,1.74-.02,2.4l-6.31,6.31c-.14.83-.16,1.68-.06,2.54l8.85-8.85c.67-.67.67-1.76,0-2.43Z"/>
        <path d="M11.29,25.93c-.23,0-.44-.14-.53-.36l-4.39-11.44c-.11-.29.03-.62.32-.73.29-.11.62.03.73.32l4.39,11.44c.11.29-.03.62-.32.73-.07.03-.13.04-.2.04Z"/>
        <path d="M38.62,40H1.36c-.31,0-.56-.25-.56-.56s.25-.56.56-.56h37.26c.31,0,.56.25.56.56s-.25.56-.56.56Z"/>
        <path d="M27.88,40H7.85c-2.65,0-4.81-2.16-4.81-4.8,0-2.21.68-4.32,1.96-6.11.18-.25.53-.31.79-.13.25.18.31.53.13.79-1.15,1.59-1.75,3.48-1.75,5.45s1.65,3.68,3.68,3.68h19.45c-.37-7.21-6.39-13-13.67-13.03h-.11c-2.24,0-4.41.81-6.11,2.27-.24.2-.59.18-.79-.06-.2-.24-.18-.59.06-.79,1.9-1.64,4.33-2.55,6.85-2.55h.11c3.93.01,7.63,1.54,10.42,4.31,2.79,2.77,4.35,6.45,4.39,10.38v.02c0,.15-.06.3-.16.4-.11.11-.25.17-.4.17h0Z"/>
        <path d="M27.9,39.84c-.2,0-.4-.11-.5-.3-.14-.28-.04-.62.24-.76,4.73-2.47,8.16-6.64,9.66-11.75,1.8-6.16.44-12.81-3.64-17.78-.2-.24-.16-.6.08-.79.24-.2.6-.16.79.08,4.32,5.26,5.76,12.29,3.85,18.81-.8,2.73-2.12,5.21-3.93,7.38-1.75,2.09-3.86,3.79-6.29,5.06-.08.04-.17.06-.26.06h0Z"/>
        <path d="M27.72,37.34c-.19,0-.38-.1-.48-.27-.16-.27-.07-.61.19-.77,3.7-2.23,6.41-5.74,7.63-9.89,1.6-5.46.39-11.35-3.23-15.76-.2-.24-.16-.6.08-.79.24-.2.6-.16.79.08,3.86,4.69,5.14,10.97,3.44,16.79-1.29,4.42-4.18,8.17-8.13,10.54-.09.05-.19.08-.29.08h0Z"/>
        <path d="M28.59,14.48c-.06,0-.12-.01-.18-.03-.2-.07-.35-.25-.37-.47-.17-1.43,0-2.91.47-4.27.47-1.36,1.26-2.62,2.28-3.64l.84-.84c.22-.22.58-.22.8,0,.22.22.22.58,0,.8l-.84.84c-1.55,1.55-2.43,3.6-2.49,5.75l7.95-7.94c.22-.22.34-.51.34-.82s-.12-.6-.34-.82c-.45-.45-1.18-.45-1.63,0l-1.19,1.19c-.22.22-.58.22-.8,0-.22-.22-.22-.58,0-.8l1.19-1.19c.89-.89,2.34-.89,3.22,0,.43.43.67,1,.67,1.61s-.24,1.18-.67,1.61l-8.85,8.85c-.11.11-.25.16-.4.16h0Z"/>
        <path d="M9.07,26.6c-.23,0-.44-.14-.53-.36L3.94,14.03c-.11-.29.04-.62.33-.73.29-.11.62.04.73.33l4.6,12.21c.11.29-.04.62-.33.73-.07.02-.13.04-.2.04h0Z"/>
        <path d="M10.2,14.32H3.09c-1.26,0-2.28-1.02-2.28-2.28s1.02-2.28,2.28-2.28c1.44,0,2.89.33,4.19.96,1.3.63,2.46,1.56,3.35,2.69.13.17.16.4.07.59-.09.19-.29.32-.51.32h0ZM3.09,10.89c-.64,0-1.15.52-1.15,1.15s.52,1.15,1.15,1.15h5.82c-1.57-1.48-3.63-2.31-5.82-2.31h0Z"/>
        <path d="M23.56,17.14h-1.43c-.31,0-.56-.25-.56-.56s.25-.56.56-.56h1.43c1.45,0,2.86-.6,3.87-1.64l2.1-2.17c.22-.22.57-.23.8-.01.22.22.23.57.01.8l-2.1,2.17c-1.22,1.26-2.93,1.98-4.68,1.98h0Z"/>
        <path d="M12.95,33.39c-.14,0-.29-.06-.4-.16-.22-.22-.22-.58,0-.8l8.08-8.07c.22-.22.58-.22.8,0s.22.58,0,.8l-8.08,8.07c-.11.11-.25.16-.4.16Z"/>
        <path d="M23.12,26.38c-.1,0-.2-.03-.3-.09l-3.85-2.4c-.26-.16-.34-.51-.18-.78.16-.26.51-.34.78-.18l3.85,2.4c.26.16.34.51.18.78-.11.17-.29.26-.48.26Z"/>
        <path d="M13.01,37c-2.28,0-4.13-1.85-4.13-4.13s1.85-4.13,4.13-4.13,4.13,1.85,4.13,4.13-1.85,4.13-4.13,4.13ZM13.01,29.87c-1.66,0-3,1.35-3,3s1.35,3,3,3,3-1.35,3-3-1.35-3-3-3Z"/>
      </g>
      <rect class="cls-3" width="40" height="40"/>
    </g>
  </g>
</svg>