<?xml version="1.0" encoding="UTF-8"?>
<svg id="Capa_2" xmlns="http://www.w3.org/2000/svg" viewBox="0 0 22 22">
  <defs>
    <style>
      .cls-1 {
        fill: #fff;
      }

      .cls-2 {
        fill: none;
      }
    </style>
  </defs>
  <g id="Capa_1-2" data-name="Capa_1">
    <g>
      <g>
        <path class="cls-1" d="M11,13c-2.21,0-4-1.79-4-4s1.79-4,4-4,4,1.79,4,4-1.79,4-4,4ZM11,7c-1.1,0-2,.9-2,2s.9,2,2,2,2-.9,2-2-.9-2-2-2Z"/>
        <path class="cls-1" d="M11,22c-.27,0-.52-.11-.71-.29l-.96-.95c-3.77-3.74-7.34-7.27-7.34-11.76C2,4.04,6.04,0,11,0s9,4.04,9,9c0,4.48-3.56,8.01-7.34,11.76l-.96.95c-.19.19-.44.29-.71.29ZM11,2c-3.86,0-7,3.14-7,7,0,3.65,3.28,6.9,6.74,10.34l.26.25.26-.25c3.47-3.44,6.74-6.69,6.74-10.34,0-3.86-3.14-7-7-7Z"/>
      </g>
      <rect class="cls-2" width="22" height="22"/>
    </g>
  </g>
</svg>