<svg width="100" height="100" viewBox="0 0 100 100" fill="none" xmlns="http://www.w3.org/2000/svg">
<path d="M76.6613 47.2449C77.2125 45.8637 77.4 44.5137 77.3713 43.2649C77.27 38.8987 74.4338 35.1087 70.3825 33.6074C68.085 32.7562 65.0225 32.2974 61.2963 33.2474C61.2963 33.2474 60.0525 30.1549 57.2638 29.3549L56.2963 24.4824H43.8975L43.0425 29.3549C40.0363 30.1674 38.67 33.2474 38.67 33.2474C34.9438 32.2974 31.8813 32.7562 29.5838 33.6074C25.5325 35.1074 22.6963 38.8974 22.595 43.2649C22.5663 44.5137 22.7538 45.8637 23.305 47.2449C23.305 47.2449 20.1325 59.4312 24.4238 72.2624H31.1288C31.1288 72.2624 32.6625 68.2837 33.1138 60.8087C33.7713 62.1599 34.5988 63.4487 35.6325 64.4549C35.6325 64.4549 35.8138 73.6037 36.6975 75.5149H63.27C64.1538 73.6037 64.335 64.4549 64.335 64.4549C65.3688 63.4487 66.1963 62.1599 66.8538 60.8087C67.305 68.2837 68.8388 72.2624 68.8388 72.2624H75.5438C79.835 59.4312 76.6625 47.2449 76.6625 47.2449H76.6613Z" fill="#FFC8A4"/>
<path d="M36.6963 75.5162C35.8125 73.6037 35.63 64.455 35.63 64.455C35.63 64.455 44.6475 58.4462 44.6475 51.2649V40.8224C44.6475 39.2274 43.945 37.7137 42.7275 36.6824L38.6675 33.2487C38.6675 33.2487 40.0338 30.1687 43.04 29.3562C45.1825 30.725 47.6213 31.41 50.0625 31.41C52.5038 31.41 54.945 30.7262 57.085 29.3562L57.25 29.2937L57.2625 29.3562C60.0513 30.1575 61.295 33.2487 61.295 33.2487C61.355 33.2337 61.4138 33.2175 61.4725 33.205L61.4563 33.2487L57.3963 36.6824C56.1788 37.7137 55.4763 39.2274 55.4763 40.8224V51.2649C55.4763 57.9925 63.5275 63.69 64.4025 64.3837L64.3313 64.455C64.3313 64.455 64.1488 73.6037 63.265 75.5162" fill="#5C90AE"/>
<path d="M63.2674 76.7664C63.0924 76.7664 62.9137 76.7289 62.7437 76.6514C62.1174 76.3614 61.8437 75.6189 62.1337 74.9926C62.6437 73.8901 62.9799 68.6226 63.0724 64.9364C57.2836 60.4401 54.2286 55.7189 54.2286 51.2651V40.8226C54.2286 38.8564 55.0899 36.9989 56.5912 35.7289L59.7799 33.0314C59.3486 32.3064 58.5261 31.1976 57.2999 30.6914C55.1061 31.9814 52.6161 32.6601 50.0624 32.6601C47.5087 32.6601 45.0637 31.9926 42.8837 30.7251C41.6274 31.2301 40.7574 32.2526 40.2724 32.9689L43.5349 35.7289C45.0362 37.0001 45.8974 38.8564 45.8974 40.8226V51.2651C45.8974 58.0026 38.9774 63.5701 36.8949 65.0926C36.9937 68.7701 37.3274 73.9051 37.8299 74.9926C38.1199 75.6189 37.8462 76.3626 37.2199 76.6514C36.5937 76.9401 35.8499 76.6676 35.5611 76.0414C34.6161 73.9951 34.4112 66.0526 34.3799 64.4814C34.3712 64.0551 34.5811 63.6526 34.9361 63.4164C35.0199 63.3601 43.3962 57.6864 43.3962 51.2664V40.8239C43.3962 39.5939 42.8574 38.4326 41.9187 37.6376L37.8599 34.2039C37.4362 33.8451 37.2999 33.2501 37.5249 32.7426C37.5912 32.5951 39.1724 29.1076 42.7136 28.1501C43.0536 28.0576 43.4162 28.1139 43.7136 28.3039C45.6136 29.5189 47.8087 30.1601 50.0624 30.1601C52.3162 30.1601 54.5124 29.5176 56.4112 28.3039C56.4849 28.2564 56.5624 28.2176 56.6449 28.1864L56.8099 28.1239C57.1537 27.9951 57.5361 28.0226 57.8574 28.2014C57.8961 28.2226 57.9324 28.2464 57.9687 28.2714C60.2699 29.0901 61.6037 31.1226 62.1562 32.1589C62.2487 32.2189 62.3324 32.2914 62.4074 32.3764C62.7112 32.7176 62.8037 33.1976 62.6499 33.6289L62.6337 33.6726C62.5599 33.8801 62.4324 34.0626 62.2649 34.2051L58.2049 37.6389C57.2662 38.4339 56.7274 39.5951 56.7274 40.8251V51.2676C56.7274 54.9439 59.6399 59.1864 64.9274 63.2126C65.0374 63.2964 65.1237 63.3626 65.1812 63.4076C65.4612 63.6289 65.6324 63.9601 65.6524 64.3164C65.6624 64.4914 65.6349 64.6639 65.5749 64.8251C65.5249 66.9701 65.2912 74.1189 64.4012 76.0439C64.1899 76.5014 63.7374 76.7701 63.2662 76.7701L63.2674 76.7664Z" fill="black"/>
<path d="M75.5425 73.5124C75.4112 73.5124 75.2775 73.4911 75.1462 73.4474C74.4912 73.2286 74.1387 72.5199 74.3575 71.8649C75.205 69.3311 75.8137 66.6274 76.1675 63.8261C76.2537 63.1411 76.88 62.6561 77.5637 62.7424C78.2487 62.8286 78.7337 63.4549 78.6475 64.1386C78.2725 67.1024 77.6275 69.9686 76.7287 72.6574C76.5537 73.1811 76.0662 73.5111 75.5437 73.5111L75.5425 73.5124Z" fill="black"/>
<path d="M63.2675 76.7662C63.0925 76.7662 62.9137 76.7287 62.7437 76.6512C62.1175 76.3612 61.8437 75.6187 62.1337 74.9924C62.6675 73.8374 63.01 68.1224 63.0837 64.4312C63.09 64.1024 63.2262 63.7899 63.4612 63.5599C64.295 62.7487 65.0575 61.6387 65.7287 60.2624C65.9775 59.7512 66.54 59.4737 67.0962 59.5837C67.6537 59.6949 68.0662 60.1674 68.1 60.7349C68.5312 67.8862 69.99 71.7774 70.0037 71.8162C70.25 72.4599 69.9275 73.1824 69.2837 73.4299C68.64 73.6762 67.9187 73.3574 67.67 72.7137C67.6162 72.5737 66.56 69.7837 65.9325 64.5687C65.8137 64.7099 65.6925 64.8462 65.5712 64.9774C65.5137 67.2912 65.2712 74.1612 64.4025 76.0424C64.1912 76.4987 63.7387 76.7687 63.2675 76.7687V76.7662Z" fill="black"/>
<path d="M36.6962 76.7662C36.2237 76.7662 35.7725 76.4974 35.5612 76.0399C34.6912 74.1587 34.45 67.2887 34.3925 64.9749C34.27 64.8437 34.15 64.7074 34.0312 64.5662C33.405 69.7812 32.3487 72.5712 32.2937 72.7112C32.045 73.3549 31.3212 73.6762 30.6775 73.4274C30.0337 73.1787 29.7125 72.4562 29.96 71.8124C29.9812 71.7549 31.4337 67.8662 31.8637 60.7324C31.8975 60.1649 32.31 59.6924 32.8675 59.5812C33.425 59.4699 33.9862 59.7487 34.235 60.2599C34.905 61.6362 35.6687 62.7462 36.5025 63.5574C36.7375 63.7862 36.8737 64.0999 36.88 64.4287C36.9537 68.1199 37.2962 73.8362 37.83 74.9899C38.12 75.6162 37.8462 76.3599 37.22 76.6487C37.05 76.7274 36.8725 76.7649 36.6962 76.7649V76.7662Z" fill="black"/>
<path d="M24.4211 73.5126C23.8986 73.5126 23.4111 73.1813 23.2361 72.6588C20.9574 65.8438 20.7649 59.2251 21.0049 54.8726C21.2149 51.0638 21.7724 48.3151 21.9974 47.3263C21.5299 46.0213 21.3099 44.6476 21.3436 43.2351C21.3986 40.8513 22.1786 38.5651 23.5974 36.6238C24.9949 34.7113 26.9149 33.2626 29.1486 32.4351C31.9486 31.3976 34.9336 31.1926 38.0349 31.8201C38.6774 30.8051 39.9449 29.2138 41.9386 28.4088L42.6649 24.2663C42.7836 23.5863 43.4324 23.1326 44.1124 23.2513C44.7924 23.3701 45.2474 24.0188 45.1274 24.6988L44.2724 29.5713C44.1886 30.0488 43.8361 30.4351 43.3674 30.5626C40.9924 31.2038 39.8211 33.7351 39.8086 33.76C39.5586 34.3113 38.9461 34.6101 38.3586 34.4601C35.4211 33.7113 32.6136 33.8188 30.0161 34.7801C26.3549 36.1363 23.9311 39.4776 23.8424 43.2938C23.8149 44.5051 24.0236 45.6788 24.4636 46.7813C24.5624 47.0288 24.5799 47.3013 24.5124 47.5601C24.4824 47.6776 21.4911 59.5601 25.6074 71.8663C25.8261 72.5213 25.4736 73.2288 24.8186 73.4488C24.6874 73.4926 24.5536 73.5138 24.4224 73.5138L24.4211 73.5126Z" fill="black"/>
<path d="M77.6512 55.2787C77.0025 55.2787 76.4537 54.7775 76.4062 54.12C76.1187 50.1687 75.4587 47.585 75.4525 47.56C75.3862 47.3025 75.4025 47.03 75.5012 46.7825C75.9412 45.68 76.15 44.5062 76.1225 43.295C76.0337 39.4787 73.6112 36.1375 69.9487 34.7812C67.3512 33.8187 64.5437 33.7112 61.6062 34.4612C60.9987 34.6162 60.3712 34.2975 60.1375 33.7162C60.1287 33.695 59.0712 31.1762 56.92 30.5587C56.47 30.43 56.13 30.06 56.0387 29.6012L55.0712 24.7287C54.9362 24.0512 55.3762 23.3937 56.0537 23.2587C56.7312 23.1237 57.3887 23.5637 57.5237 24.2412L58.355 28.4225C60.2012 29.2225 61.3687 30.7925 61.9675 31.8162C65.0562 31.1962 68.0287 31.405 70.8187 32.4375C73.0525 33.265 74.9725 34.7137 76.37 36.6262C77.7887 38.5687 78.5687 40.855 78.6237 43.2375C78.6562 44.65 78.4362 46.0237 77.97 47.3287C78.1762 48.2337 78.66 50.6162 78.9025 53.9387C78.9525 54.6275 78.435 55.2262 77.7462 55.2762C77.715 55.2787 77.685 55.28 77.6537 55.28L77.6512 55.2787Z" fill="black"/>
<path d="M33.1125 62.06C32.6325 62.06 32.175 61.7812 31.9687 61.3137C30.5387 58.0712 30.1912 54.6062 30.1775 54.46C30.1112 53.7725 30.615 53.1625 31.3025 53.0962C31.99 53.0312 32.6 53.5337 32.6662 54.22C32.6725 54.2787 32.9987 57.4525 34.2562 60.3037C34.535 60.935 34.2487 61.6737 33.6175 61.9525C33.4537 62.025 33.2825 62.0587 33.1137 62.0587L33.1125 62.06Z" fill="black"/>
<path d="M66.8513 62.0599C66.6825 62.0599 66.5113 62.0262 66.3475 61.9537C65.7163 61.6749 65.43 60.9374 65.7088 60.3049C66.9725 57.4412 67.2963 54.2524 67.2988 54.2199C67.3663 53.5337 67.9775 53.0312 68.6638 53.0974C69.35 53.1637 69.8538 53.7737 69.7875 54.4612C69.7738 54.6074 69.4263 58.0712 67.9963 61.3149C67.79 61.7824 67.3325 62.0612 66.8525 62.0612L66.8513 62.0599Z" fill="black"/>
<path d="M49.9824 68.0013C49.2924 68.0013 48.7324 67.4413 48.7324 66.7513V35.7788C48.7324 35.0888 49.2924 34.5288 49.9824 34.5288C50.6724 34.5288 51.2324 35.0888 51.2324 35.7788V66.7513C51.2324 67.4413 50.6724 68.0013 49.9824 68.0013Z" fill="black"/>
<path d="M59.5988 48.4963C59.0913 48.4963 58.6126 48.1838 58.4263 47.68C58.1863 47.0325 58.5176 46.3138 59.1651 46.0738C62.8726 44.7013 63.7038 40.02 63.7113 39.9725C63.8263 39.2913 64.4713 38.8338 65.1526 38.9475C65.8338 39.0625 66.2913 39.7075 66.1776 40.3888C66.1351 40.64 65.0826 46.55 60.0338 48.4188C59.8913 48.4713 59.7438 48.4963 59.6001 48.4963H59.5988Z" fill="black"/>
<path d="M40.5762 48.4961C40.4325 48.4961 40.285 48.4711 40.1425 48.4186C35.0937 46.5499 34.0412 40.6399 33.9987 40.3886C33.8837 39.7074 34.3425 39.0624 35.0237 38.9474C35.7037 38.8324 36.3475 39.2899 36.4637 39.9686C36.4775 40.0461 37.3437 44.7149 41.01 46.0724C41.6575 46.3124 41.9875 47.0311 41.7487 47.6786C41.5625 48.1824 41.0837 48.4949 40.5762 48.4949V48.4961Z" fill="black"/>
<path d="M45.3174 64.4312C44.8962 64.4312 44.4837 64.2174 44.2487 63.8312C43.8899 63.2412 44.0762 62.4725 44.6662 62.1137C47.1362 60.6087 48.7324 57.9687 48.7324 55.3875C48.7324 54.6975 49.2924 54.1375 49.9824 54.1375C50.6724 54.1375 51.2324 54.6975 51.2324 55.3875C51.2324 58.875 49.2149 62.2699 45.9662 64.2487C45.7637 64.3724 45.5387 64.4312 45.3174 64.4312Z" fill="black"/>
<path d="M54.6474 64.4312C54.4262 64.4312 54.2012 64.3724 53.9987 64.2487C50.7512 62.2699 48.7324 58.875 48.7324 55.3875C48.7324 54.6975 49.2924 54.1375 49.9824 54.1375C50.6724 54.1375 51.2324 54.6975 51.2324 55.3875C51.2324 57.9687 52.8287 60.61 55.2987 62.1137C55.8887 62.4725 56.0749 63.2424 55.7162 63.8312C55.4812 64.2174 55.0687 64.4312 54.6474 64.4312Z" fill="black"/>
<path d="M77.79 60.19C77.7088 60.19 77.6263 60.1813 77.5463 60.165C77.4663 60.15 77.3875 60.125 77.3125 60.0938C77.2375 60.0625 77.1638 60.0238 77.0963 59.9788C77.0288 59.9338 76.9638 59.8813 76.9063 59.8238C76.8488 59.7663 76.7963 59.7025 76.7513 59.6338C76.7063 59.5663 76.6675 59.4938 76.6363 59.4175C76.605 59.3425 76.5813 59.2638 76.565 59.1838C76.5488 59.1038 76.54 59.0213 76.54 58.94C76.54 58.8588 76.5488 58.7763 76.565 58.695C76.5813 58.6163 76.605 58.5375 76.6363 58.4613C76.6675 58.3863 76.7063 58.3138 76.7513 58.2463C76.7963 58.1775 76.8488 58.1138 76.9063 58.0563C76.9638 57.9988 77.0288 57.9463 77.0963 57.9001C77.1638 57.8551 77.2375 57.8175 77.3125 57.7863C77.3875 57.755 77.4663 57.73 77.5463 57.715C77.7075 57.6825 77.8738 57.6825 78.035 57.715C78.115 57.73 78.1938 57.755 78.2688 57.7863C78.3438 57.8175 78.4163 57.8551 78.4838 57.9001C78.5525 57.9463 78.6163 57.9988 78.6738 58.0563C78.7325 58.1138 78.7838 58.1775 78.83 58.2463C78.875 58.3138 78.9138 58.3863 78.945 58.4613C78.9763 58.5375 79 58.6163 79.0163 58.695C79.0325 58.7763 79.04 58.8588 79.04 58.94C79.04 59.0213 79.0325 59.1038 79.0163 59.1838C79 59.2638 78.9763 59.3425 78.945 59.4175C78.9138 59.4938 78.875 59.5663 78.83 59.6338C78.7838 59.7025 78.7325 59.7663 78.6738 59.8238C78.6163 59.8813 78.5525 59.9338 78.4838 59.9788C78.4163 60.0238 78.3438 60.0625 78.2688 60.0938C78.1938 60.125 78.115 60.15 78.035 60.165C77.9538 60.1813 77.8725 60.19 77.79 60.19Z" fill="black"/>
<path d="M23.5583 41.3527L31.7845 42.5489C32.0833 42.5927 32.3408 42.3352 32.297 42.0364L31.1008 33.8089C31.047 33.4402 30.597 33.2914 30.3333 33.5539L28.6283 35.2589C28.452 35.4352 28.1658 35.4352 27.9883 35.2589L21.862 29.1327C21.6858 28.9564 21.3995 28.9564 21.222 29.1327L18.8795 31.4752C18.7033 31.6514 18.7033 31.9377 18.8795 32.1152L25.0058 38.2414C25.182 38.4177 25.182 38.7039 25.0058 38.8814L23.3008 40.5864C23.0383 40.8489 23.187 41.3002 23.5558 41.3539" fill="#62DBFB"/>
<path d="M22.5062 35.0999L24.8487 32.7574C25.0249 32.5812 25.3112 32.5812 25.4887 32.7574L21.8649 29.1337C21.6887 28.9574 21.4024 28.9574 21.2249 29.1337L18.8824 31.4762C18.7062 31.6524 18.7062 31.9387 18.8824 32.1162L22.5062 35.7399C22.3299 35.5637 22.3299 35.2774 22.5062 35.0999Z" fill="#01D0FB"/>
<path d="M31.8475 43.8037C31.7675 43.8037 31.6863 43.7975 31.6063 43.7862L23.3788 42.5887C22.7375 42.495 22.2125 42.0562 22.0088 41.4412C21.805 40.8262 21.9625 40.16 22.42 39.7012L23.56 38.5612L17.9988 33C17.335 32.3362 17.335 31.2562 17.9988 30.5925L20.3413 28.25C20.6625 27.9287 21.09 27.7512 21.545 27.7512C22 27.7512 22.4275 27.9287 22.7488 28.25L28.31 33.8112L29.45 32.6712C29.9075 32.2137 30.575 32.055 31.19 32.26C31.805 32.4637 32.245 32.9887 32.3388 33.63L33.535 41.8575C33.6113 42.3862 33.4325 42.9275 33.055 43.3062C32.735 43.6262 32.2963 43.805 31.8488 43.805L31.8475 43.8037ZM25.3125 40.345L30.9075 41.1587L30.0938 35.5637L29.5138 36.1437C28.85 36.8075 27.77 36.8075 27.1063 36.1437L21.545 30.5825L20.3313 31.7962L25.8925 37.3575C26.5563 38.0212 26.5563 39.1012 25.8925 39.765L25.3125 40.345Z" fill="black"/>
<path d="M76.4414 41.3527C76.8102 41.299 76.9589 40.849 76.6964 40.5852L74.9914 38.8802C74.8152 38.704 74.8152 38.4177 74.9914 38.2402L81.1177 32.114C81.2939 31.9377 81.2939 31.6515 81.1177 31.474L78.7752 29.1315C78.5989 28.9552 78.3127 28.9552 78.1352 29.1315L72.0089 35.2577C71.8327 35.434 71.5464 35.434 71.3689 35.2577L69.6639 33.5527C69.4014 33.2902 68.9502 33.439 68.8964 33.8077L67.7002 42.0352C67.6564 42.334 67.9139 42.5915 68.2127 42.5477L76.4389 41.3515" fill="#62DBFB"/>
<path d="M77.494 35.1001C77.6702 35.2764 77.6702 35.5626 77.494 35.7401L81.1177 32.1164C81.294 31.9401 81.294 31.6539 81.1177 31.4764L78.7752 29.1339C78.599 28.9576 78.3127 28.9576 78.1352 29.1339L74.5115 32.7576C74.6877 32.5814 74.974 32.5814 75.1515 32.7576L77.494 35.1001Z" fill="#01D0FB"/>
<path d="M68.1532 43.804C67.7045 43.804 67.267 43.6265 66.9457 43.3052C66.5682 42.9277 66.3882 42.3865 66.4645 41.8565L67.6607 33.629C67.7545 32.9877 68.1945 32.4627 68.8095 32.259C69.4245 32.0552 70.0907 32.2127 70.5495 32.6715L71.6895 33.8115L77.2507 28.2502C77.572 27.929 77.9995 27.7515 78.4545 27.7515C78.9095 27.7515 79.337 27.929 79.6582 28.2502L81.9995 30.5915C82.6632 31.2552 82.6632 32.3352 81.9995 32.999L76.4382 38.5602L77.5782 39.7002C78.037 40.159 78.1945 40.8252 77.9895 41.4402C77.7857 42.0552 77.2595 42.4952 76.6182 42.5877L68.392 43.784C68.312 43.7952 68.2307 43.8015 68.1495 43.8015L68.1532 43.804ZM69.9082 35.564L69.0945 41.159L74.6895 40.3452L74.1095 39.7652C73.4457 39.1015 73.4457 38.0215 74.1095 37.3577L79.6707 31.7965L78.457 30.5827L72.8957 36.144C72.232 36.8077 71.152 36.8077 70.4882 36.144L69.9082 35.564Z" fill="black"/>
</svg>
