<svg width="100" height="100" viewBox="0 0 100 100" fill="none" xmlns="http://www.w3.org/2000/svg">
<path d="M59.8951 72.0387L69.3463 51.8662H30.6538L40.1051 72.0387C40.1888 72.3362 40.4613 72.5425 40.7713 72.5425L50.2926 70.4575L59.2301 72.5425L59.8963 72.0387H59.8951Z" fill="#FED2A4"/>
<path d="M69.3463 53.1174H30.6538C29.9638 53.1174 29.4038 52.5574 29.4038 51.8674C29.4038 51.1774 29.9638 50.6174 30.6538 50.6174H69.3451C70.0351 50.6174 70.5951 51.1774 70.5951 51.8674C70.5951 52.5574 70.0351 53.1174 69.3451 53.1174H69.3463Z" fill="black"/>
<path d="M45.0437 53.4663L46.485 44.3525H53.5162L54.9575 53.4663" fill="#FED2A4"/>
<path d="M54.955 54.7163C54.3513 54.7163 53.8188 54.2775 53.7213 53.6613L52.4475 45.6025H47.5525L46.2788 53.6613C46.1713 54.3438 45.5313 54.8088 44.8488 54.7013C44.1663 54.5938 43.7013 53.9538 43.8088 53.2713L45.25 44.1575C45.3463 43.55 45.87 43.1025 46.485 43.1025H53.5163C54.1313 43.1025 54.655 43.55 54.7513 44.1575L56.1925 53.2713C56.3 53.9538 55.835 54.5938 55.1525 54.7013C55.0863 54.7113 55.0213 54.7163 54.9563 54.7163H54.955Z" fill="black"/>
<path d="M65.4288 61.3L81.7863 58.125C83.2888 57.8337 84.375 56.5175 84.375 54.9862V34.3762C84.375 34.11 84.0963 33.935 83.8575 34.0512L79.0988 36.3587L77.1613 49.19C76.6588 49.06 76.1288 48.9887 75.5813 48.9887C73.5688 48.9887 71.7988 49.925 70.77 51.3425C69.5263 49.91 67.5963 48.9887 65.4288 48.9887C61.6763 48.9887 58.6338 51.745 58.6338 55.1437" fill="#FED2A4"/>
<path d="M80.5712 38.9638C80.0612 39.4738 79.2475 39.5438 78.6837 39.1113L77.1625 49.1901C79.1075 49.2563 80.7925 47.8551 81.0837 45.9313L82.4137 37.1226L80.5725 38.9638H80.5712Z" fill="#FFBD86"/>
<path d="M65.4275 62.5499C64.8412 62.5499 64.3175 62.1349 64.2012 61.5374C64.07 60.8599 64.5125 60.2037 65.19 60.0724L81.5475 56.8974C82.4612 56.7199 83.1237 55.9162 83.1237 54.9849V35.7949L80.235 37.1949L78.3962 49.3749C78.3437 49.7249 78.145 50.0362 77.85 50.2312C77.555 50.4262 77.1912 50.4874 76.8475 50.3987C76.4337 50.2924 76.0075 50.2374 75.58 50.2374C74.0362 50.2374 72.6162 50.9249 71.78 52.0749C71.5562 52.3837 71.2037 52.5724 70.8225 52.5887C70.4425 52.6062 70.0737 52.4474 69.8237 52.1599C68.7625 50.9374 67.1587 50.2374 65.4262 50.2374C62.3687 50.2374 59.8812 52.4374 59.8812 55.1424C59.8812 55.8324 59.3212 56.3924 58.6312 56.3924C57.9412 56.3924 57.3812 55.8324 57.3812 55.1424C57.3812 51.0587 60.99 47.7374 65.4262 47.7374C67.3937 47.7374 69.255 48.3874 70.7075 49.5549C72.0012 48.3999 73.7387 47.7374 75.5787 47.7374C75.7562 47.7374 75.9337 47.7437 76.1112 47.7562L77.86 36.1699C77.9212 35.7624 78.18 35.4112 78.5512 35.2312L83.31 32.9237C83.8112 32.6799 84.3937 32.7112 84.8675 33.0074C85.3412 33.3037 85.6237 33.8137 85.6237 34.3724V54.9824C85.6237 57.1074 84.11 58.9437 82.0237 59.3487L65.6662 62.5237C65.5862 62.5387 65.5062 62.5474 65.4262 62.5474L65.4275 62.5499Z" fill="black"/>
<path d="M79.5775 51.7013C79.285 51.7013 78.9925 51.6 78.755 51.3925C77.905 50.6488 76.7775 50.2388 75.5813 50.2388C74.8913 50.2388 74.3313 49.6788 74.3313 48.9888C74.3313 48.2988 74.8913 47.7388 75.5813 47.7388C77.3838 47.7388 79.095 48.3675 80.4013 49.51C80.9213 49.965 80.9738 50.7538 80.5188 51.2738C80.2713 51.5563 79.925 51.7013 79.5775 51.7013Z" fill="black"/>
<path d="M76.7275 37.1738C77.13 37.5763 77.72 37.6825 78.2225 37.4962C78.0263 38.025 78.1538 38.6487 78.6088 39.0512C79.1738 39.5512 80.0388 39.4962 80.5713 38.9637L83.7638 35.7713C84.5775 34.9575 84.5775 33.6375 83.7638 32.8237L79.2613 28.3213C78.4475 27.5075 77.1275 27.5075 76.3138 28.3213L73.1213 31.5137C72.5888 32.0462 72.5338 32.9125 73.0338 33.4775C73.4363 33.9325 74.06 34.06 74.5888 33.8637C74.4013 34.3662 74.5088 34.9562 74.9113 35.3587C75.3138 35.7612 75.9038 35.8675 76.4063 35.6813C76.2188 36.1838 76.3263 36.7737 76.7288 37.1762" fill="#FFBD86"/>
<path d="M77.2525 33.4763C76.7525 32.9113 76.8075 32.0463 77.34 31.5126L79.8975 28.9551L79.2613 28.3188C78.4475 27.5051 77.1275 27.5051 76.3138 28.3188L73.1213 31.5113C72.5888 32.0438 72.5338 32.9101 73.0338 33.4751C73.4363 33.9301 74.06 34.0576 74.5888 33.8613C74.4013 34.3638 74.5088 34.9538 74.9113 35.3563C75.3138 35.7588 75.9038 35.8651 76.4063 35.6788C76.2188 36.1813 76.3263 36.7713 76.7288 37.1738C77.1313 37.5763 77.7213 37.6826 78.2238 37.4963C78.0275 38.0251 78.155 38.6488 78.61 39.0513C79.175 39.5513 80.04 39.4963 80.5725 38.9638L81.6163 37.9201L77.2538 33.4763H77.2525Z" fill="#F6A96C"/>
<path d="M79.5317 40.6462C78.9042 40.6462 78.2792 40.4275 77.7805 39.9862C77.3892 39.64 77.1192 39.2025 76.983 38.7287C76.5592 38.6062 76.1655 38.38 75.8442 38.0575C75.5205 37.7337 75.293 37.3387 75.1717 36.9125C74.7467 36.79 74.3505 36.5637 74.0267 36.24C73.703 35.9162 73.4742 35.5187 73.353 35.0925C72.8767 34.955 72.4367 34.6875 72.0967 34.3037C71.1655 33.2525 71.228 31.6375 72.2367 30.6287L75.4292 27.4362C76.0592 26.8062 76.8967 26.46 77.7867 26.46C78.6767 26.46 79.5142 26.8062 80.1442 27.4362L84.6467 31.9387C85.9467 33.2387 85.9467 35.355 84.6467 36.655L81.4542 39.8475C80.9242 40.3787 80.2255 40.6462 79.5305 40.6475L79.5317 40.6462ZM78.223 36.2462C78.5492 36.2462 78.868 36.3737 79.1067 36.6125C79.453 36.9587 79.5655 37.4737 79.3942 37.9325C79.3905 37.9437 79.3555 38.045 79.4367 38.1162C79.4967 38.1687 79.6155 38.1525 79.6867 38.0812L82.8805 34.8875C83.2055 34.5625 83.2055 34.0325 82.8805 33.7075L78.378 29.205C78.2205 29.0475 78.0105 28.96 77.788 28.96C77.5655 28.96 77.3555 29.0462 77.198 29.205L74.0042 32.3975C73.933 32.4687 73.9155 32.5887 73.9692 32.6487C74.0405 32.73 74.1417 32.695 74.153 32.6912C74.6117 32.5212 75.1267 32.6337 75.473 32.9787C75.8192 33.325 75.9317 33.84 75.7605 34.2987C75.7417 34.35 75.7442 34.4237 75.7942 34.475C75.8442 34.525 75.9192 34.5287 75.9705 34.5087C76.4292 34.3387 76.9442 34.4512 77.2905 34.7962C77.6367 35.1425 77.7492 35.6575 77.578 36.1162C77.5605 36.1637 77.558 36.2387 77.6117 36.2925C77.6617 36.3425 77.7367 36.3462 77.788 36.3262C77.9305 36.2737 78.0767 36.2475 78.223 36.2475V36.2462Z" fill="black"/>
<path d="M34.5713 61.3L18.2138 58.125C16.7113 57.8337 15.625 56.5175 15.625 54.9862V34.3762C15.625 34.11 15.9037 33.935 16.1425 34.0512L20.9013 36.3587L22.8388 49.19C23.3413 49.06 23.8713 48.9887 24.4188 48.9887C26.4313 48.9887 28.2013 49.925 29.23 51.3425C30.4737 49.91 32.4038 48.9887 34.5713 48.9887C38.3238 48.9887 41.3662 51.745 41.3662 55.1437" fill="#FED2A4"/>
<path d="M19.14 56.1524V35.5424C19.14 35.5299 19.1438 35.5187 19.145 35.5074L16.1425 34.0524C15.9025 33.9362 15.625 34.1112 15.625 34.3774V54.9874C15.625 56.5187 16.71 57.8349 18.2138 58.1262L20.1787 58.5074C19.5375 57.9174 19.1413 57.0749 19.1413 56.1537" fill="#FFBD86"/>
<path d="M25.675 60.8238C25.5962 60.8238 25.5162 60.8163 25.435 60.8001L17.975 59.3526C15.8888 58.9476 14.375 57.1113 14.375 54.9863V34.3763C14.375 33.8176 14.6575 33.3076 15.1313 33.0113C15.605 32.7151 16.1875 32.6838 16.6887 32.9276L21.4463 35.2338C21.8175 35.4138 22.075 35.7651 22.1375 36.1726L23.8862 47.7588C24.0637 47.7463 24.2413 47.7401 24.4188 47.7401C26.2588 47.7401 27.9975 48.4026 29.29 49.5576C30.7425 48.3901 32.6038 47.7401 34.5713 47.7401C39.0075 47.7401 42.6162 51.0626 42.6162 55.1451C42.6162 55.8351 42.0562 56.3951 41.3662 56.3951C40.6762 56.3951 40.1162 55.8351 40.1162 55.1451C40.1162 52.4401 37.6287 50.2401 34.5713 50.2401C32.8375 50.2401 31.235 50.9413 30.1737 52.1626C29.9237 52.4501 29.5562 52.6076 29.175 52.5913C28.7937 52.5751 28.4425 52.3851 28.2175 52.0776C27.3825 50.9263 25.9612 50.2401 24.4175 50.2401C23.99 50.2401 23.5637 50.2938 23.15 50.4013C22.8075 50.4901 22.4437 50.4288 22.1475 50.2338C21.8525 50.0388 21.6537 49.7276 21.6012 49.3776L19.7625 37.1976L16.8738 35.7976V54.9876C16.8738 55.9176 17.5363 56.7226 18.45 56.9001L25.91 58.3476C26.5875 58.4788 27.03 59.1351 26.8988 59.8126C26.7825 60.4101 26.26 60.8251 25.6725 60.8251L25.675 60.8238Z" fill="black"/>
<path d="M34.5726 62.5499C34.4938 62.5499 34.4138 62.5424 34.3326 62.5262L30.1888 61.7224C29.5113 61.5912 29.0688 60.9349 29.2001 60.2574C29.3313 59.5799 29.9876 59.1374 30.6651 59.2687L34.8088 60.0724C35.4863 60.2037 35.9288 60.8599 35.7976 61.5374C35.6813 62.1349 35.1588 62.5499 34.5713 62.5499H34.5726Z" fill="black"/>
<path d="M66.7875 58.5938V64.4938C66.7875 68.8 63.2963 72.2913 58.99 72.2913H55.0163C53.9225 72.2913 52.86 71.9175 52.0075 71.2312L50 69.615" fill="#FED2A4"/>
<path d="M33.2125 58.5938V64.5287C33.2125 68.8162 36.6875 72.2913 40.975 72.2913H44.985C46.0788 72.2913 47.1413 71.9175 47.9938 71.2312L50.0013 69.615V59.5425" fill="#FED2A4"/>
<path d="M36.72 64.5288V62.305C36.72 60.3325 35.18 58.705 33.2125 58.5925V64.5275C33.2125 68.815 36.6875 72.29 40.975 72.29H44.4838C40.1963 72.29 36.7213 68.815 36.7213 64.5275" fill="#FFBD86"/>
<path d="M58.9905 73.541H55.0168C53.6418 73.541 52.2955 73.066 51.2243 72.2035L49.2168 70.5873C48.6793 70.1548 48.5943 69.3673 49.0268 68.8298C49.4593 68.2923 50.2468 68.2073 50.7843 68.6398L52.7918 70.256C53.4193 70.7623 54.2093 71.0398 55.0155 71.0398H58.9893C62.6005 71.0398 65.5368 68.1023 65.5368 64.4923V58.5923C65.5368 57.9023 66.0968 57.3423 66.7868 57.3423C67.4768 57.3423 68.0368 57.9023 68.0368 58.5923V64.4923C68.0368 69.481 63.978 73.5398 58.9893 73.5398L58.9905 73.541Z" fill="black"/>
<path d="M44.985 73.5413H40.975C36.005 73.5413 31.9625 69.4987 31.9625 64.5287V58.5938C31.9625 57.9038 32.5225 57.3438 33.2125 57.3438C33.9025 57.3438 34.4625 57.9038 34.4625 58.5938V64.5287C34.4625 68.12 37.3838 71.0413 40.975 71.0413H44.985C45.7913 71.0413 46.5813 70.7625 47.2088 70.2575L48.75 69.0163V59.5425C48.75 58.8525 49.31 58.2925 50 58.2925C50.69 58.2925 51.25 58.8525 51.25 59.5425V69.615C51.25 69.9937 51.0788 70.3513 50.7838 70.5888L48.7763 72.205C47.705 73.0675 46.3588 73.5425 44.9838 73.5425L44.985 73.5413Z" fill="black"/>
<path d="M20.4225 51.7013C20.075 51.7013 19.7287 51.5563 19.4812 51.2738C19.0262 50.7538 19.08 49.965 19.5987 49.51C20.905 48.3675 22.6162 47.7388 24.4187 47.7388C25.1087 47.7388 25.6687 48.2988 25.6687 48.9888C25.6687 49.6788 25.1087 50.2388 24.4187 50.2388C23.2225 50.2388 22.095 50.6488 21.245 51.3925C21.0075 51.6 20.715 51.7013 20.4225 51.7013Z" fill="black"/>
<path d="M23.2725 37.1738C22.87 37.5763 22.28 37.6825 21.7775 37.4962C21.9738 38.025 21.8463 38.6487 21.3913 39.0512C20.8263 39.5512 19.9613 39.4962 19.4288 38.9637L16.2363 35.7713C15.4225 34.9575 15.4225 33.6375 16.2363 32.8237L20.7388 28.3213C21.5525 27.5075 22.8725 27.5075 23.6863 28.3213L26.8788 31.5137C27.4113 32.0462 27.4663 32.9125 26.9663 33.4775C26.5638 33.9325 25.94 34.06 25.4113 33.8637C25.5988 34.3662 25.4913 34.9562 25.0888 35.3587C24.6863 35.7612 24.0963 35.8675 23.5938 35.6813C23.7813 36.1838 23.6738 36.7737 23.2713 37.1762" fill="#FFBD86"/>
<path d="M19.6951 35.7701C18.8813 34.9563 18.8813 33.6363 19.6951 32.8226L23.9413 28.5751L23.6851 28.3188C22.8713 27.5051 21.5513 27.5051 20.7376 28.3188L16.2351 32.8213C15.4213 33.6351 15.4213 34.9551 16.2351 35.7688L19.4276 38.9613C19.9601 39.4938 20.8263 39.5488 21.3913 39.0488C21.7226 38.7551 21.8788 38.3426 21.8626 37.9363L19.6951 35.7688V35.7701Z" fill="#F6A96C"/>
<path d="M20.4692 40.6462C19.773 40.6462 19.0755 40.3775 18.5442 39.8462L15.3517 36.6537C14.0517 35.3537 14.0517 33.2387 15.3517 31.9387L19.8555 27.435C20.4855 26.805 21.323 26.4587 22.213 26.4587C23.103 26.4587 23.9405 26.805 24.5705 27.435L27.763 30.6275C28.7717 31.6362 28.833 33.2512 27.903 34.3025C27.563 34.6862 27.1242 34.955 26.648 35.0912C26.5267 35.5175 26.298 35.9137 25.9742 36.2387C25.6505 36.5625 25.2542 36.79 24.8292 36.9112C24.7067 37.3362 24.4805 37.7325 24.1567 38.0562C23.8342 38.3787 23.4405 38.605 23.018 38.7275C22.8817 39.2025 22.6117 39.64 22.2205 39.985C21.7217 40.4262 21.0967 40.645 20.4692 40.645V40.6462ZM22.213 28.9587C21.9905 28.9587 21.7805 29.045 21.623 29.2025L17.1192 33.7062C16.7942 34.0312 16.7942 34.5612 17.1192 34.8862L20.3117 38.0787C20.383 38.15 20.503 38.1675 20.563 38.1137C20.6442 38.0425 20.6092 37.9412 20.6055 37.93C20.4355 37.4712 20.548 36.9562 20.893 36.61C21.2392 36.2637 21.7542 36.1512 22.213 36.3225C22.2642 36.3412 22.3392 36.3387 22.3892 36.2887C22.443 36.235 22.4417 36.16 22.423 36.1125C22.253 35.6537 22.3655 35.1387 22.7105 34.7925C23.0567 34.4462 23.5717 34.335 24.0305 34.505C24.0817 34.5237 24.1567 34.5212 24.2067 34.4712C24.2567 34.4212 24.2605 34.3475 24.2405 34.295C24.0705 33.8362 24.183 33.3212 24.528 32.975C24.8742 32.6287 25.3892 32.5175 25.848 32.6875C25.8592 32.6912 25.9592 32.7262 26.0305 32.645C26.083 32.585 26.0667 32.465 25.9955 32.3937L22.803 29.2012C22.6455 29.0437 22.4355 28.9562 22.213 28.9562V28.9587Z" fill="black"/>
<path d="M46.3787 58.7662C46.2749 58.7662 46.1687 58.7537 46.0637 58.7262L35.4012 55.9549C34.7324 55.7812 34.3324 55.0987 34.5062 54.4312C34.6799 53.7624 35.3624 53.3624 36.0299 53.5362L46.6924 56.3074C47.3612 56.4812 47.7612 57.1637 47.5874 57.8312C47.4412 58.3937 46.9337 58.7674 46.3787 58.7674V58.7662Z" fill="black"/>
<path d="M53.6213 58.7661C53.0663 58.7661 52.5588 58.3936 52.4126 57.8299C52.2388 57.1611 52.6401 56.4799 53.3076 56.3061L63.9701 53.5349C64.6376 53.3611 65.3201 53.7624 65.4938 54.4299C65.6676 55.0986 65.2663 55.7799 64.5988 55.9536L53.9363 58.7249C53.8313 58.7524 53.7251 58.7649 53.6213 58.7649V58.7661Z" fill="black"/>
<path d="M31.0026 38.9975L35.5651 45.1137C35.7313 45.3362 36.0638 45.3362 36.2301 45.1137L40.7926 38.9975C40.9963 38.7237 40.8013 38.3337 40.4601 38.3337H38.2476C38.0188 38.3337 37.8326 38.1475 37.8326 37.9187V29.9675C37.8326 29.7387 37.6463 29.5525 37.4176 29.5525H34.3776C34.1488 29.5525 33.9626 29.7387 33.9626 29.9675V37.9187C33.9626 38.1475 33.7763 38.3337 33.5476 38.3337H31.3351C30.9938 38.3337 30.7988 38.7237 31.0026 38.9975Z" fill="#62DBFB"/>
<path d="M34.3776 34.2562H37.4176C37.6464 34.2562 37.8326 34.4425 37.8326 34.6712V29.9675C37.8326 29.7387 37.6464 29.5525 37.4176 29.5525H34.3776C34.1489 29.5525 33.9626 29.7387 33.9626 29.9675V34.6712C33.9626 34.4425 34.1489 34.2562 34.3776 34.2562Z" fill="#01D0FB"/>
<path d="M35.8975 46.53C35.375 46.53 34.8762 46.28 34.5637 45.8612L30.0012 39.745C29.6225 39.2375 29.5637 38.57 29.8475 38.0025C30.1312 37.4362 30.7025 37.0837 31.3362 37.0837H32.7137V29.9675C32.7137 29.05 33.4612 28.3025 34.3787 28.3025H37.4187C38.3362 28.3025 39.0837 29.05 39.0837 29.9675V37.0837H40.4612C41.095 37.0837 41.665 37.435 41.95 38.0025C42.2337 38.5687 42.175 39.2362 41.7962 39.745L37.2337 45.8612C36.9212 46.28 36.4225 46.53 35.9 46.53H35.8975ZM33 39.585L35.8975 43.4687L38.795 39.585H38.2475C37.33 39.585 36.5825 38.8375 36.5825 37.92V30.8037H35.2125V37.92C35.2125 38.8375 34.465 39.585 33.5475 39.585H33ZM32.0037 38.25V38.2525C32.0037 38.2525 32.0037 38.2512 32.0037 38.25Z" fill="black"/>
<path d="M59.39 38.9975L63.9525 45.1137C64.1188 45.3362 64.4513 45.3362 64.6175 45.1137L69.18 38.9975C69.3838 38.7237 69.1888 38.3337 68.8475 38.3337H66.635C66.4063 38.3337 66.22 38.1475 66.22 37.9187V29.9675C66.22 29.7387 66.0338 29.5525 65.805 29.5525H62.765C62.5363 29.5525 62.35 29.7387 62.35 29.9675V37.9187C62.35 38.1475 62.1638 38.3337 61.935 38.3337H59.7225C59.3813 38.3337 59.1863 38.7237 59.39 38.9975Z" fill="#62DBFB"/>
<path d="M62.765 34.2562H65.805C66.0337 34.2562 66.22 34.4425 66.22 34.6712V29.9675C66.22 29.7387 66.0337 29.5525 65.805 29.5525H62.765C62.5362 29.5525 62.35 29.7387 62.35 29.9675V34.6712C62.35 34.4425 62.5362 34.2562 62.765 34.2562Z" fill="#01D0FB"/>
<path d="M64.2851 46.53C63.7626 46.53 63.2638 46.28 62.9513 45.8612L58.3888 39.745C58.0101 39.2375 57.9513 38.57 58.2351 38.0025C58.5188 37.4362 59.0901 37.0837 59.7238 37.0837H61.1013V29.9675C61.1013 29.05 61.8488 28.3025 62.7663 28.3025H65.8063C66.7238 28.3025 67.4713 29.05 67.4713 29.9675V37.0837H68.8488C69.4826 37.0837 70.0526 37.435 70.3376 38.0025C70.6213 38.5687 70.5626 39.2362 70.1838 39.745L65.6213 45.8612C65.3088 46.28 64.8101 46.53 64.2876 46.53H64.2851ZM61.3863 39.585L64.2838 43.4687L67.1813 39.585H66.6338C65.7163 39.585 64.9688 38.8375 64.9688 37.92V30.8037H63.5988V37.92C63.5988 38.8375 62.8513 39.585 61.9338 39.585H61.3863Z" fill="black"/>
</svg>
