<svg width="40" height="40" viewBox="0 0 40 40" fill="none" xmlns="http://www.w3.org/2000/svg">
<path d="M34.6104 27.3672H37.2848V37.252C37.2848 37.9904 36.6864 38.5888 35.948 38.5888C35.2096 38.5888 34.6112 37.9904 34.6112 37.252V27.3672H34.6104Z" fill="#FF7373"/>
<path d="M37.2848 27.3672H34.6104V29.2104H37.2848V27.3672Z" fill="#FDDB33"/>
<path d="M2.73608 27.3672H5.41048V37.252C5.41048 37.9904 4.81208 38.5888 4.07368 38.5888C3.33528 38.5888 2.73688 37.9904 2.73688 37.252V27.3672H2.73608Z" fill="#FF7373"/>
<path d="M3.90971 27.3672V37.252C3.90971 37.712 3.67691 38.1184 3.32251 38.3592C3.53611 38.5048 3.79451 38.5896 4.07211 38.5896C4.81051 38.5896 5.40891 37.9912 5.40891 37.2528V27.368H3.90891L3.90971 27.3672Z" fill="#E05E5E"/>
<path d="M5.40951 27.3672H2.73511V29.2104H5.40951V27.3672Z" fill="#FDDB33"/>
<path d="M3.90967 29.2104H5.40967V27.3672H3.90967V29.2104Z" fill="#F9C032"/>
<path d="M35.7847 27.3672V37.252C35.7847 37.712 35.5519 38.1184 35.1975 38.3592C35.4111 38.5048 35.6695 38.5896 35.9471 38.5896C36.6855 38.5896 37.2839 37.9912 37.2839 37.2528V27.368H35.7839L35.7847 27.3672Z" fill="#E05E5E"/>
<path d="M35.7849 29.2104H37.2849V27.3672H35.7849V29.2104Z" fill="#F9C032"/>
<path d="M4.07278 39.1512C3.02558 39.1512 2.17358 38.2992 2.17358 37.252V33.5752C2.17358 33.2648 2.42558 33.0128 2.73598 33.0128C3.04638 33.0128 3.29838 33.2648 3.29838 33.5752V37.252C3.29838 37.6792 3.64558 38.0264 4.07278 38.0264C4.49998 38.0264 4.84718 37.6792 4.84718 37.252V27.9296H3.29838V31.1C3.29838 31.4104 3.04638 31.6624 2.73598 31.6624C2.42558 31.6624 2.17358 31.4104 2.17358 31.1V27.3672C2.17358 27.0568 2.42558 26.8048 2.73598 26.8048H5.41038C5.72078 26.8048 5.97278 27.0568 5.97278 27.3672V37.252C5.97278 38.2992 5.12078 39.1512 4.07358 39.1512H4.07278Z" fill="black"/>
<path d="M6.78325 27.9296H1.36245C1.05205 27.9296 0.800049 27.6776 0.800049 27.3672C0.800049 27.0568 1.05205 26.8048 1.36245 26.8048H6.78325C7.09365 26.8048 7.34565 27.0568 7.34565 27.3672C7.34565 27.6776 7.09365 27.9296 6.78325 27.9296Z" fill="black"/>
<path d="M5.37372 29.7728H2.77212C2.46172 29.7728 2.20972 29.5208 2.20972 29.2104C2.20972 28.9 2.46172 28.648 2.77212 28.648H5.37372C5.68412 28.648 5.93612 28.9 5.93612 29.2104C5.93612 29.5208 5.68412 29.7728 5.37372 29.7728Z" fill="black"/>
<path d="M20.0447 28.956C20.0319 28.956 20.0199 28.956 20.0071 28.956H19.9911C19.9783 28.956 19.9663 28.956 19.9535 28.956C17.3935 28.956 14.9831 27.9632 13.1639 26.1568C11.3359 24.3416 10.3231 21.924 10.3135 19.3472C10.3031 16.72 11.3463 14.4568 13.6959 12.0096C13.6983 12.0072 13.7015 12.004 13.7039 12.0016L19.2055 6.49922L16.7695 4.06242C15.4231 2.71602 13.6327 1.97362 11.7287 1.97362C7.7983 1.97362 4.5999 5.17202 4.5999 9.10402V27.0776C4.5999 27.388 4.3479 27.64 4.0375 27.64C3.7271 27.64 3.4751 27.388 3.4751 27.0776V9.10402C3.4751 4.55202 7.1775 0.848816 11.7287 0.848816C13.9335 0.848816 16.0063 1.70722 17.5647 3.26722L20.0007 5.70402L22.4367 3.26722C23.9959 1.70802 26.0679 0.848816 28.2727 0.848816C32.8239 0.848816 36.5263 4.55202 36.5263 9.10402V27.0776C36.5263 27.388 36.2743 27.64 35.9639 27.64C35.6535 27.64 35.4015 27.388 35.4015 27.0776V9.10402C35.4015 5.17202 32.2039 1.97362 28.2727 1.97362C26.3687 1.97362 24.5783 2.71522 23.2319 4.06242L20.7959 6.49922L26.2975 12.0016C26.2975 12.0016 26.3031 12.0072 26.3055 12.0096C28.6543 14.4568 29.6975 16.72 29.6879 19.348C29.6783 21.924 28.6663 24.3424 26.8375 26.1576C25.0183 27.964 22.6071 28.9568 20.0455 28.9568L20.0447 28.956ZM14.5023 12.7928C12.3743 15.0112 11.4287 17.032 11.4375 19.3432C11.4463 21.6192 12.3399 23.7552 13.9551 25.3584C15.5623 26.9536 17.6919 27.8312 19.9543 27.8312C19.9655 27.8312 19.9767 27.8312 19.9879 27.8312H20.0087C20.0199 27.8312 20.0311 27.8312 20.0423 27.8312C22.3071 27.8312 24.4367 26.9536 26.0439 25.3584C27.6591 23.7552 28.5527 21.6192 28.5615 19.3432C28.5703 17.032 27.6247 15.0112 25.4967 12.7928L19.9999 7.29442L14.5023 12.7928Z" fill="black"/>
<path d="M35.9273 39.1512C34.8801 39.1512 34.0281 38.2992 34.0281 37.252V27.3672C34.0281 27.0568 34.2801 26.8048 34.5905 26.8048H37.2649C37.5753 26.8048 37.8273 27.0568 37.8273 27.3672V33.1248C37.8273 33.4352 37.5753 33.6872 37.2649 33.6872C36.9545 33.6872 36.7025 33.4352 36.7025 33.1248V27.9296H35.1537V37.252C35.1537 37.6792 35.5009 38.0264 35.9281 38.0264C36.3553 38.0264 36.7025 37.6792 36.7025 37.252V35.8248C36.7025 35.5144 36.9545 35.2624 37.2649 35.2624C37.5753 35.2624 37.8273 35.5144 37.8273 35.8248V37.252C37.8273 38.2992 36.9753 39.1512 35.9281 39.1512H35.9273Z" fill="black"/>
<path d="M38.6375 27.9296H33.2167C32.9063 27.9296 32.6543 27.6776 32.6543 27.3672C32.6543 27.0568 32.9063 26.8048 33.2167 26.8048H38.6375C38.9479 26.8048 39.1999 27.0568 39.1999 27.3672C39.1999 27.6776 38.9479 27.9296 38.6375 27.9296Z" fill="black"/>
<path d="M37.228 29.7728H34.6264C34.316 29.7728 34.064 29.5208 34.064 29.2104C34.064 28.9 34.316 28.648 34.6264 28.648H37.228C37.5384 28.648 37.7904 28.9 37.7904 29.2104C37.7904 29.5208 37.5384 29.7728 37.228 29.7728Z" fill="black"/>
</svg>
