<svg width="40" height="40" viewBox="0 0 40 40" fill="none" xmlns="http://www.w3.org/2000/svg">
<path d="M4.46564 13.0464L9.29204 25.7784L11.5112 25.1032L6.89604 13.1328L5.65764 11.9576L4.46484 13.0464H4.46564Z" fill="#E3E6ED"/>
<path d="M13.556 24.4952H13.632C21.4488 24.5208 27.796 30.8152 27.8816 38.6272V38.6488H7.85044C5.50644 38.6488 3.60645 36.7496 3.60645 34.4072C3.60645 32.2512 4.29525 30.256 5.46405 28.6296C5.46405 28.6296 8.17125 24.4952 13.5552 24.4952" fill="#FDDB33"/>
<path d="M27.8825 38.6272C27.7969 30.8152 21.4497 24.52 13.6329 24.4952H13.5569C12.9689 24.4952 12.4129 24.544 11.8889 24.632C18.7929 25.588 24.1265 31.4704 24.2049 38.6272V38.6488H27.8825V38.6272Z" fill="#F9C032"/>
<path d="M27.7215 35.9896C31.4039 33.772 34.2951 30.22 35.5975 25.7712C37.3119 19.9144 35.8687 13.884 32.2655 9.49916L33.1999 7.16636L34.0847 8.09356C38.1367 13.0232 39.7591 19.8048 37.8311 26.3904C36.2415 31.82 32.5471 36.0608 27.8959 38.4856L27.7207 35.9888L27.7215 35.9896Z" fill="#E3E6ED"/>
<path d="M3.09278 12.968H10.1952C8.47598 10.8 5.85998 9.53596 3.09278 9.53596C2.14478 9.53596 1.37598 10.304 1.37598 11.252C1.37598 12.2 2.14478 12.968 3.09278 12.968Z" fill="#5E6478"/>
<path d="M16.5776 32.0824C16.5776 34.0512 14.9816 35.6472 13.0128 35.6472C11.044 35.6472 9.448 34.0512 9.448 32.0824C9.448 30.1136 11.044 28.5176 13.0128 28.5176C14.9816 28.5176 16.5776 30.1136 16.5776 32.0824Z" fill="#F4F7FF"/>
<path d="M35.0095 1.85276C35.6799 1.18236 36.7671 1.18236 37.4375 1.85276C38.1079 2.52316 38.1079 3.60956 37.4375 4.27996L28.5871 13.1256C28.2687 10.3776 29.2239 7.63516 31.1807 5.67996L35.0095 1.85276Z" fill="#FDDB33"/>
<path d="M37.4376 1.85276C36.7672 1.18236 35.68 1.18236 35.0096 1.85276L34.984 1.87836C35.6304 2.55036 35.6232 3.61756 34.9608 4.27996L28.652 10.5864C28.5128 11.4168 28.488 12.2712 28.5872 13.1264L37.4376 4.27996C38.108 3.60956 38.108 2.52316 37.4376 1.85276Z" fill="#F9C032"/>
<path d="M11.2865 25.14C11.0601 25.14 10.8465 25.0024 10.7609 24.7784L6.37045 13.3336C6.25925 13.0432 6.40405 12.7176 6.69445 12.6064C6.98485 12.4952 7.31045 12.64 7.42165 12.9304L11.8121 24.3752C11.9233 24.6656 11.7785 24.9912 11.4881 25.1024C11.4217 25.128 11.3537 25.14 11.2865 25.14Z" fill="black"/>
<path d="M38.6216 39.212H1.36325C1.05205 39.212 0.800049 38.96 0.800049 38.6488C0.800049 38.3376 1.05205 38.0856 1.36325 38.0856H38.6216C38.9328 38.0856 39.1848 38.3376 39.1848 38.6488C39.1848 38.96 38.9328 39.212 38.6216 39.212Z" fill="black"/>
<path d="M27.8825 39.212H7.85132C5.20092 39.212 3.04492 37.0568 3.04492 34.408C3.04492 32.2008 3.72412 30.0888 5.00892 28.3024C5.19052 28.0496 5.54172 27.9928 5.79452 28.1736C6.04732 28.3552 6.10412 28.7064 5.92332 28.9592C4.77692 30.5536 4.17132 32.4376 4.17132 34.408C4.17132 36.3784 5.82252 38.0864 7.85212 38.0864H27.3033C26.9345 30.876 20.9137 25.0824 13.6321 25.0584H13.5553C13.5457 25.0584 13.5353 25.0584 13.5257 25.0584C11.2809 25.0584 9.11132 25.8648 7.41372 27.3304C7.17852 27.5336 6.82332 27.5072 6.62012 27.272C6.41692 27.0368 6.44332 26.6816 6.67852 26.4784C8.58012 24.836 11.0113 23.9328 13.5265 23.9328C13.5377 23.9328 13.5489 23.9328 13.5601 23.9328H13.6369C17.5657 23.9456 21.2657 25.476 24.0545 28.2424C26.8441 31.0088 28.4033 34.6952 28.4465 38.6216V38.6408C28.4489 38.7912 28.3905 38.9368 28.2849 39.044C28.1793 39.1512 28.0345 39.212 27.8841 39.212H27.8825Z" fill="black"/>
<path d="M27.8977 39.0488C27.6945 39.0488 27.4985 38.9384 27.3985 38.7464C27.2545 38.4704 27.3617 38.1312 27.6377 37.9872C32.3665 35.5216 35.7953 31.3472 37.2929 26.2328C39.0977 20.0688 37.7361 13.4216 33.6513 8.45196C33.4537 8.21196 33.4889 7.85676 33.7289 7.65996C33.9689 7.46236 34.3241 7.49756 34.5209 7.73756C38.8425 12.9952 40.2825 20.028 38.3729 26.5496C37.5737 29.2784 36.2529 31.76 34.4457 33.9264C32.7001 36.0184 30.5849 37.7208 28.1585 38.9864C28.0753 39.0296 27.9865 39.0504 27.8985 39.0504L27.8977 39.0488Z" fill="black"/>
<path d="M27.7224 36.552C27.5312 36.552 27.3456 36.4552 27.24 36.2792C27.08 36.0128 27.1656 35.6672 27.432 35.5064C31.1352 33.276 33.8432 29.7616 35.0584 25.612C36.6576 20.1496 35.4512 14.2592 31.832 9.85596C31.6344 9.61596 31.6696 9.26076 31.9096 9.06396C32.1496 8.86636 32.5048 8.90156 32.7016 9.14156C36.5576 13.8336 37.8432 20.1088 36.1392 25.9288C34.8448 30.3504 31.9584 34.0952 28.0128 36.4712C27.9216 36.5256 27.8216 36.552 27.7232 36.552H27.7224Z" fill="black"/>
<path d="M28.5872 13.6888C28.5248 13.6888 28.4624 13.6784 28.4024 13.6576C28.1984 13.5864 28.0536 13.4056 28.0288 13.1912C27.8632 11.7592 28.0256 10.2824 28.5 8.92076C28.9744 7.55916 29.764 6.30076 30.784 5.28156L31.6232 4.44236C31.8432 4.22236 32.1992 4.22236 32.4192 4.44236C32.6392 4.66236 32.6392 5.01836 32.4192 5.23836L31.58 6.07756C30.028 7.62796 29.1544 9.67356 29.0928 11.8256L37.04 3.88236C37.2576 3.66476 37.3776 3.37516 37.3776 3.06716C37.3776 2.75916 37.2576 2.46956 37.04 2.25196C36.5896 1.80236 35.8576 1.80236 35.408 2.25196L34.2216 3.43756C34.0016 3.65756 33.6456 3.65756 33.4256 3.43756C33.2056 3.21756 33.2056 2.86156 33.4256 2.64156L34.612 1.45596C35.5008 0.567963 36.9472 0.567963 37.836 1.45596C38.2664 1.88636 38.504 2.45916 38.504 3.06796C38.504 3.67676 38.2672 4.24876 37.836 4.67916L28.9856 13.5256C28.8784 13.6328 28.7344 13.6904 28.588 13.6904L28.5872 13.6888Z" fill="black"/>
<path d="M9.0671 25.816C8.8399 25.816 8.6255 25.6768 8.54071 25.4512L3.9391 13.2448C3.8295 12.9536 3.9767 12.6296 4.2671 12.5192C4.5583 12.4096 4.8823 12.5568 4.9927 12.8472L9.59431 25.0536C9.70391 25.3448 9.55671 25.6688 9.26631 25.7792C9.20071 25.804 9.1335 25.8152 9.0679 25.8152L9.0671 25.816Z" fill="black"/>
<path d="M10.1959 13.5312H3.09274C1.83594 13.5312 0.812744 12.5088 0.812744 11.252C0.812744 9.99516 1.83514 8.97276 3.09274 8.97276C4.53514 8.97276 5.98394 9.30476 7.28234 9.93196C8.58074 10.5592 9.74074 11.488 10.6367 12.6184C10.7711 12.7872 10.7967 13.0184 10.7023 13.2128C10.6087 13.4072 10.4111 13.5304 10.1959 13.5304V13.5312ZM3.09274 10.0992C2.45674 10.0992 1.93834 10.6168 1.93834 11.252C1.93834 11.8872 2.45594 12.4048 3.09274 12.4048H8.91754C7.35194 10.9264 5.28714 10.0984 3.09274 10.0984V10.0992Z" fill="black"/>
<path d="M23.5608 16.3536H22.132C21.8208 16.3536 21.5688 16.1016 21.5688 15.7904C21.5688 15.4792 21.8208 15.2272 22.132 15.2272H23.5608C25.0128 15.2272 26.4248 14.6288 27.4344 13.5856L29.5344 11.416C29.7504 11.1928 30.1072 11.1872 30.3304 11.4032C30.5536 11.6192 30.5592 11.976 30.3432 12.1992L28.2432 14.3688C27.0224 15.6296 25.316 16.3528 23.5608 16.3528V16.3536Z" fill="black"/>
<path d="M12.9479 32.6016C12.8039 32.6016 12.6599 32.5464 12.5495 32.4368C12.3295 32.2168 12.3295 31.8608 12.5495 31.6408L20.6263 23.568C20.8463 23.348 21.2023 23.348 21.4223 23.568C21.6423 23.788 21.6423 24.144 21.4223 24.364L13.3455 32.4368C13.2359 32.5464 13.0919 32.6016 12.9479 32.6016Z" fill="black"/>
<path d="M23.1175 25.5968C23.0159 25.5968 22.9127 25.5688 22.8199 25.5112L18.9719 23.1072C18.7079 22.9424 18.6279 22.5952 18.7927 22.332C18.9575 22.068 19.3047 21.988 19.5679 22.1528L23.4159 24.5568C23.6799 24.7216 23.7599 25.0688 23.5951 25.332C23.4887 25.5032 23.3047 25.5968 23.1175 25.5968Z" fill="black"/>
<path d="M13.0128 36.2096C10.7368 36.2096 8.88477 34.3576 8.88477 32.0816C8.88477 29.8056 10.7368 27.9536 13.0128 27.9536C15.2888 27.9536 17.1408 29.8056 17.1408 32.0816C17.1408 34.3576 15.2888 36.2096 13.0128 36.2096ZM13.0128 29.08C11.3576 29.08 10.0112 30.4264 10.0112 32.0816C10.0112 33.7368 11.3576 35.0832 13.0128 35.0832C14.668 35.0832 16.0144 33.7368 16.0144 32.0816C16.0144 30.4264 14.668 29.08 13.0128 29.08Z" fill="black"/>
</svg>
