<svg width="94" height="51" viewBox="0 0 94 51" fill="none" xmlns="http://www.w3.org/2000/svg">
<path d="M51.1746 12.6426C51.1746 5.72529 45.7072 0.120361 38.9655 0.120361H24.4131V50.4499H37.398V25.1648H38.9655C45.7098 25.1648 51.1746 19.5572 51.1746 12.6426Z" fill="#18191E"/>
<path d="M18.1485 0.120361H7.82933C7.09358 0.120361 6.49645 0.732802 6.49645 1.48742V16.5196C2.85236 16.8969 0 20.063 0 23.8989C0 27.7349 2.85236 30.8983 6.49645 31.2783V49.0856C6.49645 49.8402 7.09358 50.4526 7.82933 50.4526H18.1485C18.8842 50.4526 19.4814 49.8402 19.4814 49.0856V1.48742C19.4814 0.732802 18.8842 0.120361 18.1485 0.120361Z" fill="#18191E"/>
<path d="M68.2568 0H57.9376C57.2019 0 56.6047 0.612441 56.6047 1.36706V35.7923H49.9137C46.0004 35.7923 42.8254 39.0459 42.8254 43.0623C42.8254 47.0759 45.9977 50.3323 49.9137 50.3323H68.2568C68.9925 50.3323 69.5897 49.7198 69.5897 48.9652V1.36706C69.5897 0.612441 68.9925 0 68.2568 0Z" fill="#18191E"/>
<path d="M87.5035 19.1743V1.36706C87.5035 0.612441 86.9063 0 86.1706 0H75.8514C75.1157 0 74.5186 0.612441 74.5186 1.36706V48.9625C74.5186 49.7171 75.1157 50.3295 75.8514 50.3295H86.1706C86.9063 50.3295 87.5035 49.7171 87.5035 48.9625V33.9303C91.1476 33.553 93.9999 30.3869 93.9999 26.551C93.9999 22.715 91.1476 19.5489 87.5035 19.1716V19.1743Z" fill="#18191E"/>
</svg>
