<?xml version="1.0" encoding="UTF-8"?>
<svg id="Capa_2" xmlns="http://www.w3.org/2000/svg" xmlns:xlink="http://www.w3.org/1999/xlink" viewBox="0 0 382 56">
  <defs>
    <style>
      .cls-1 {
        fill: none;
      }

      .cls-2 {
        fill: #18191e;
      }

      .cls-3 {
        clip-path: url(#clippath);
      }
    </style>
    <clipPath id="clippath">
      <rect class="cls-1" width="382" height="56"/>
    </clipPath>
  </defs>
  <g id="Capa_1-2" data-name="Capa_1">
    <g class="cls-3">
      <g>
        <path class="cls-2" d="M147.86,11.52h-21.48c-.35,0-.65.11-.87.34-.23.23-.34.51-.34.87v31.3c0,.35.11.64.34.87.23.23.51.34.87.34h5.1c.35,0,.64-.11.87-.34.23-.22.34-.51.34-.87v-11.41h14.21c.35,0,.64-.11.87-.34.23-.23.34-.5.34-.82v-4.09c0-.35-.11-.64-.34-.87-.23-.22-.51-.34-.87-.34h-14.2v-8.14h15.17c.35,0,.64-.11.87-.34.23-.22.34-.51.34-.87v-4.09c0-.35-.11-.64-.34-.87-.23-.23-.51-.34-.87-.34h0Z"/>
        <path class="cls-2" d="M157.54,20.19h-4.82c-.32,0-.59.11-.82.34-.23.23-.34.51-.34.87v22.64c0,.35.11.64.34.87.23.23.5.34.82.34h4.82c.35,0,.64-.11.87-.34.23-.22.34-.51.34-.87v-22.64c0-.35-.11-.64-.34-.87-.23-.22-.51-.34-.87-.34Z"/>
        <path class="cls-2" d="M157.64,10.02h-5.06c-.32,0-.6.12-.82.36-.23.24-.34.54-.34.89v3.85c0,.35.11.64.34.87.22.23.5.34.82.34h5.06c.35,0,.65-.11.89-.34.24-.22.36-.51.36-.87v-3.85c0-.35-.12-.65-.36-.89-.24-.24-.54-.36-.89-.36Z"/>
        <path class="cls-2" d="M178.59,39.31h-3.52c-1.09,0-1.86-.34-2.29-1.04-.44-.69-.65-1.65-.65-2.87v-9.53h6.02c.32,0,.59-.11.82-.34.23-.22.34-.51.34-.87v-3.28c0-.35-.11-.64-.34-.87-.23-.22-.5-.34-.82-.34h-6.02v-7.94c0-.35-.11-.64-.34-.87-.23-.22-.51-.34-.87-.34h-4.72c-.32,0-.6.11-.85.34-.24.23-.36.51-.36.87v7.94h-3.75c-.35,0-.64.11-.87.34-.22.22-.34.51-.34.87v3.28c0,.35.11.64.34.87.22.23.51.34.87.34h3.75v10.11c0,2.09.36,3.82,1.08,5.2.72,1.38,1.79,2.4,3.2,3.06,1.41.66,3.11.99,5.11.99h4.19c.32,0,.59-.11.82-.34.23-.22.34-.51.34-.87v-3.56c0-.32-.11-.59-.34-.82-.23-.22-.5-.34-.82-.34h0Z"/>
        <path class="cls-2" d="M201.63,20.98c-1.43-.85-3.09-1.28-4.98-1.28s-3.5.34-4.82,1.01c-1.31.68-2.39,1.52-3.23,2.55v-1.88c0-.35-.11-.64-.34-.87-.23-.22-.51-.34-.87-.34h-4.72c-.32,0-.59.11-.82.34-.23.23-.34.51-.34.87v22.64c0,.35.11.64.34.87.23.23.5.34.82.34h5.11c.32,0,.59-.11.82-.34.23-.22.34-.51.34-.87v-13.15c0-1.7.45-3.03,1.35-3.97.9-.95,2.1-1.42,3.61-1.42s2.77.47,3.59,1.42c.82.95,1.23,2.27,1.23,3.97v13.15c0,.35.11.64.34.87.23.23.51.34.87.34h5.1c.32,0,.6-.11.85-.34.24-.22.36-.51.36-.87v-13.44c0-2.31-.41-4.28-1.23-5.9-.82-1.62-1.94-2.86-3.37-3.71h0Z"/>
        <path class="cls-2" d="M227.49,21.37c-1.81-1.11-4.07-1.66-6.77-1.66-2.41,0-4.51.47-6.31,1.42-1.8.95-3.2,2.31-4.19,4.09-1,1.78-1.56,3.91-1.68,6.38v2.07c.13,3.92,1.28,6.9,3.44,8.96,2.17,2.06,5.1,3.08,8.79,3.08,1.86,0,3.51-.24,4.93-.72,1.43-.48,2.63-1.08,3.59-1.81.96-.72,1.69-1.46,2.19-2.22.5-.75.76-1.39.79-1.9.03-.32-.06-.57-.27-.74s-.47-.27-.79-.27h-5.01c-.38,0-.67.04-.85.12-.18.08-.41.28-.7.6-.16.23-.41.5-.74.82-.34.32-.76.59-1.28.82-.51.23-1.17.34-1.97.34-.96,0-1.79-.26-2.48-.77-.69-.51-1.22-1.2-1.59-2.05-.37-.85-.57-1.79-.6-2.82v-.38h15.75c.32,0,.6-.11.85-.34.24-.23.36-.5.36-.82v-1.11c0-2.47-.46-4.66-1.37-6.57-.91-1.91-2.28-3.42-4.09-4.53h0ZM225.44,30.35h-9.44v-.1c0-1.15.18-2.16.55-3.01.37-.85.91-1.52,1.62-2,.71-.48,1.55-.72,2.55-.72s1.85.24,2.55.72c.71.48,1.25,1.15,1.61,2,.37.85.55,1.86.55,3.01v.1Z"/>
        <path class="cls-2" d="M253.23,32.03c-1.29-.77-3.02-1.35-5.2-1.73-1.83-.35-3.2-.69-4.09-1.01-.9-.32-1.49-.68-1.78-1.06-.29-.38-.44-.8-.44-1.25,0-.71.28-1.29.84-1.76.56-.47,1.37-.7,2.43-.7.87,0,1.57.13,2.12.38.54.26,1.02.55,1.42.89.4.34.79.64,1.18.89.1.1.21.17.34.22.13.05.27.07.44.07h4.29c.29,0,.54-.11.77-.34.23-.22.32-.5.29-.82-.03-.51-.28-1.12-.75-1.81-.47-.69-1.15-1.36-2.05-2.02-.9-.66-2.02-1.2-3.34-1.64-1.33-.44-2.88-.65-4.65-.65-2.31,0-4.24.38-5.78,1.13-1.54.75-2.7,1.71-3.49,2.87-.79,1.15-1.18,2.36-1.18,3.61,0,1.38.3,2.56.91,3.54.61.98,1.52,1.79,2.74,2.43,1.22.64,2.7,1.15,4.43,1.54,1.83.38,3.21.74,4.14,1.06.93.32,1.56.68,1.9,1.06.34.38.51.87.51,1.45,0,.8-.37,1.42-1.11,1.86-.74.44-1.64.65-2.7.65-.9,0-1.65-.13-2.24-.38-.6-.26-1.11-.57-1.56-.94-.45-.37-.88-.7-1.3-.99-.1-.13-.19-.21-.29-.24-.1-.03-.19-.05-.29-.05h-4.67c-.26,0-.51.11-.77.34-.26.23-.37.51-.34.87.03.48.27,1.07.7,1.76.44.69,1.09,1.37,1.97,2.05.88.68,2.04,1.25,3.47,1.71,1.43.47,3.14.7,5.13.7,2.5,0,4.62-.33,6.33-.99,1.72-.66,3.03-1.57,3.92-2.74.9-1.17,1.35-2.51,1.35-4.02,0-1.15-.28-2.24-.84-3.25-.56-1.01-1.49-1.9-2.77-2.67h0Z"/>
        <path class="cls-2" d="M276.93,32.03c-1.29-.77-3.02-1.35-5.2-1.73-1.83-.35-3.2-.69-4.09-1.01-.9-.32-1.49-.68-1.78-1.06-.29-.38-.44-.8-.44-1.25,0-.71.28-1.29.84-1.76.56-.47,1.37-.7,2.43-.7.87,0,1.57.13,2.12.38.54.26,1.02.55,1.42.89.4.34.79.64,1.18.89.1.1.21.17.34.22.13.05.27.07.44.07h4.29c.29,0,.54-.11.77-.34.23-.22.32-.5.29-.82-.03-.51-.28-1.12-.74-1.81-.47-.69-1.15-1.36-2.05-2.02-.9-.66-2.02-1.2-3.34-1.64-1.33-.44-2.88-.65-4.65-.65-2.31,0-4.24.38-5.78,1.13-1.54.75-2.7,1.71-3.49,2.87-.79,1.15-1.18,2.36-1.18,3.61,0,1.38.3,2.56.91,3.54.61.98,1.52,1.79,2.74,2.43,1.22.64,2.7,1.15,4.43,1.54,1.83.38,3.21.74,4.14,1.06.93.32,1.56.68,1.9,1.06.34.38.5.87.5,1.45,0,.8-.37,1.42-1.11,1.86-.74.44-1.64.65-2.7.65-.9,0-1.65-.13-2.24-.38-.6-.26-1.12-.57-1.56-.94-.45-.37-.88-.7-1.3-.99-.1-.13-.19-.21-.29-.24-.1-.03-.19-.05-.29-.05h-4.67c-.26,0-.51.11-.77.34-.26.23-.37.51-.34.87.03.48.27,1.07.7,1.76.44.69,1.09,1.37,1.97,2.05.88.68,2.04,1.25,3.47,1.71,1.43.47,3.14.7,5.13.7,2.5,0,4.62-.33,6.33-.99,1.72-.66,3.03-1.57,3.92-2.74.9-1.17,1.35-2.51,1.35-4.02,0-1.15-.28-2.24-.84-3.25-.56-1.01-1.49-1.9-2.77-2.67h0Z"/>
        <path class="cls-2" d="M312.64,12.72c-1.91-.8-4.16-1.2-6.77-1.2h-13.15c-.35,0-.64.11-.87.34-.23.23-.34.51-.34.87v31.3c0,.35.11.64.34.87.22.23.51.34.87.34h5.49c.35,0,.64-.11.87-.34.23-.22.34-.51.34-.87v-10.88h6.46c2.6,0,4.86-.38,6.77-1.15,1.91-.77,3.4-1.95,4.48-3.54,1.08-1.59,1.61-3.6,1.61-6.05s-.54-4.42-1.61-6.05c-1.08-1.62-2.57-2.83-4.48-3.64h0ZM309.46,25.97c-.91.8-2.19,1.2-3.83,1.2h-6.36v-9.63h6.36c1.83,0,3.15.45,3.97,1.35.82.9,1.23,2.06,1.23,3.47,0,1.61-.46,2.81-1.37,3.61Z"/>
        <path class="cls-2" d="M326.72,11.03h-4.82c-.35,0-.65.11-.87.34-.22.22-.34.51-.34.87v31.79c0,.35.11.64.34.87.22.23.51.34.87.34h4.82c.32,0,.59-.11.82-.34.23-.22.34-.51.34-.87V12.24c0-.35-.11-.64-.34-.87-.23-.22-.5-.34-.82-.34Z"/>
        <path class="cls-2" d="M354.71,20.19h-5.1c-.35,0-.65.11-.87.34-.22.22-.34.51-.34.87v13.15c0,1.7-.44,3.03-1.32,3.97-.88.95-2.08,1.42-3.59,1.42-3.15,0-4.72-1.8-4.72-5.39v-13.15c0-.35-.11-.64-.34-.87-.23-.22-.51-.34-.87-.34h-5.1c-.32,0-.59.11-.82.34-.23.22-.34.51-.34.87v13.44c0,2.31.39,4.28,1.18,5.9.79,1.62,1.89,2.86,3.32,3.71,1.43.85,3.08,1.28,4.93,1.28s3.5-.3,4.82-.91c1.32-.61,2.39-1.49,3.23-2.65v1.88c0,.35.11.64.34.87.22.23.51.34.87.34h4.72c.32,0,.59-.11.82-.34.23-.22.34-.51.34-.87v-22.64c0-.35-.11-.64-.34-.87-.23-.22-.5-.34-.82-.34h0Z"/>
        <path class="cls-2" d="M380.16,34.71c-.56-1.01-1.49-1.9-2.77-2.67-1.29-.77-3.02-1.35-5.2-1.73-1.83-.35-3.2-.69-4.09-1.01-.9-.32-1.49-.68-1.78-1.06-.29-.38-.44-.8-.44-1.25,0-.71.28-1.29.84-1.76.56-.47,1.37-.7,2.43-.7.87,0,1.57.13,2.12.38.54.26,1.02.55,1.42.89.4.34.79.64,1.18.89.1.1.21.17.34.22.13.05.27.07.44.07h4.29c.29,0,.54-.11.77-.34.23-.22.32-.5.29-.82-.03-.51-.28-1.12-.74-1.81-.47-.69-1.15-1.36-2.05-2.02-.9-.66-2.02-1.2-3.34-1.64-1.33-.44-2.88-.65-4.65-.65-2.31,0-4.24.38-5.78,1.13-1.54.75-2.7,1.71-3.49,2.87-.79,1.15-1.18,2.36-1.18,3.61,0,1.38.3,2.56.91,3.54.61.98,1.52,1.79,2.74,2.43,1.22.64,2.7,1.15,4.43,1.54,1.83.38,3.21.74,4.14,1.06.93.32,1.56.68,1.9,1.06.34.38.5.87.5,1.45,0,.8-.37,1.42-1.11,1.86-.74.44-1.64.65-2.7.65-.9,0-1.65-.13-2.24-.38-.6-.26-1.12-.57-1.56-.94-.45-.37-.88-.7-1.3-.99-.1-.13-.19-.21-.29-.24s-.19-.05-.29-.05h-4.67c-.26,0-.51.11-.77.34-.26.23-.37.51-.34.87.03.48.27,1.07.7,1.76.44.69,1.09,1.37,1.97,2.05.88.68,2.04,1.25,3.47,1.71,1.43.47,3.14.7,5.13.7,2.5,0,4.62-.33,6.33-.99,1.72-.66,3.03-1.57,3.92-2.74.9-1.17,1.35-2.51,1.35-4.02,0-1.15-.28-2.24-.84-3.25h0Z"/>
        <path class="cls-2" d="M56.17,14.77c0-7.27-5.89-13.16-13.16-13.16h-15.69v52.9h14v-26.58h1.69c7.27,0,13.16-5.89,13.16-13.16Z"/>
        <path class="cls-2" d="M20.57,1.61h-11.12c-.79,0-1.44.64-1.44,1.44v15.8c-3.93.4-7,3.72-7,7.76s3.08,7.36,7,7.76v18.72c0,.79.64,1.44,1.44,1.44h11.12c.79,0,1.44-.64,1.44-1.44V3.05c0-.79-.64-1.44-1.44-1.44Z"/>
        <path class="cls-2" d="M74.58,1.48h-11.12c-.79,0-1.44.64-1.44,1.44v36.18h-7.21c-4.22,0-7.64,3.42-7.64,7.64s3.42,7.64,7.64,7.64h19.77c.79,0,1.44-.64,1.44-1.44V2.92c0-.79-.64-1.44-1.44-1.44Z"/>
        <path class="cls-2" d="M95.33,21.64V2.92c0-.79-.64-1.44-1.44-1.44h-11.12c-.79,0-1.44.64-1.44,1.44v50.03c0,.79.64,1.44,1.44,1.44h11.12c.79,0,1.44-.64,1.44-1.44v-15.8c3.93-.4,7-3.72,7-7.76s-3.08-7.36-7-7.76h0Z"/>
      </g>
    </g>
  </g>
</svg>