<svg width="100" height="100" viewBox="0 0 100 100" fill="none" xmlns="http://www.w3.org/2000/svg">
<path d="M24.7925 28.6039C24.8175 26.5126 41.1862 29.3226 41.1862 29.3226C36.5237 31.6601 37.87 33.0026 37.8462 33.0689C37.9475 33.2314 38.0525 33.3876 38.1587 33.5389C41.235 37.8876 42.7712 44.9576 41.3712 52.2239C41.2287 52.9664 41.0537 53.7089 40.8487 54.4526C39.1012 60.7651 42.44 68.2501 43.9437 71.1564C44.6637 72.5189 44.7275 74.1339 44.1162 75.5476C43.455 77.0351 41.98 78.3451 38.7212 77.6426C37.7937 77.4426 35.745 76.0139 30.5462 77.3539C28.7375 77.8189 25.4687 78.1476 24.3237 77.8539C23.6687 77.6839 22.9812 77.6801 22.3237 77.8439C21.9425 77.9439 21.5525 78.0039 21.1587 78.0251C19.4425 78.0964 18.9762 75.6789 20.5925 75.0964C21.5012 74.7689 22.6037 74.5539 23.3525 74.3264C29.0737 72.5851 31.6637 70.8451 31.6637 70.8451C33.8462 69.9239 34.2587 66.2276 33.3887 63.2051C33.1787 62.4501 32.8687 61.7251 32.4662 61.0526C29.0137 55.4239 26.8687 48.9851 26.3687 41.7276C26.1362 38.3539 25.0712 36.8914 25.0712 36.8914C23.1087 32.7914 23.6962 30.1889 24.7937 28.6039H24.7925Z" fill="#FFD8B7"/>
<path d="M24.7912 28.6038H24.7925C23.695 30.1888 23.1062 32.7913 25.07 36.8913C25.07 36.8913 26.135 38.355 26.3675 41.7275C26.8675 48.985 29.0125 55.4225 32.465 61.0525C32.8675 61.725 33.1787 62.4488 33.3875 63.205C34.2575 66.2263 33.845 69.9238 31.6625 70.845C31.6625 70.845 29.0725 72.5838 23.3512 74.3263C22.6025 74.555 21.5 74.7688 20.5912 75.0963C18.9737 75.6788 19.44 78.0975 21.1575 78.025C21.5512 78.0038 21.9412 77.9438 22.3225 77.8438C22.98 77.68 23.6662 77.6838 24.3225 77.8538C24.86 77.9563 25.4075 77.9925 25.9537 77.96C24.685 77.5788 24.475 75.6125 25.9125 75.095C26.8212 74.7675 27.9237 74.5525 28.6725 74.325C34.3937 72.5838 36.9837 70.8438 36.9837 70.8438C39.1662 69.9225 39.5787 66.2263 38.7087 63.2038C38.4987 62.4488 38.1887 61.7238 37.7862 61.0513C34.3337 55.4225 32.1887 48.9838 31.6887 41.7263C31.4562 38.3525 30.3912 36.89 30.3912 36.89C28.4287 32.79 29.0162 30.1875 30.1137 28.6025H30.1125" fill="#EFBB95"/>
<path d="M23.9762 28.3125C23.7812 28.6175 23.6125 28.9375 23.4712 29.2713C22.5437 31.4675 22.8637 34.2163 24.3487 37.3175C24.3587 37.3313 25.32 38.7488 25.53 41.7863C26.0225 48.9375 28.115 55.5675 31.75 61.4925C32.9 63.3675 33.305 66.3775 32.6737 68.3463C32.4775 68.9588 32.0162 69.7925 31.2675 70.1088C31.2425 70.125 28.61 71.8475 23.1075 73.5225C22.8362 73.605 22.5025 73.6888 22.1475 73.7788C21.5637 73.925 20.9025 74.0913 20.3075 74.3063C19.2037 74.6863 18.5575 75.8313 18.8012 76.9738C19.0225 78.0863 20.0062 78.8825 21.14 78.8675C21.6087 78.845 22.0737 78.775 22.53 78.66C23.0512 78.5313 23.5962 78.535 24.115 78.6713C25.53 79.0325 29.0487 78.6088 30.755 78.17C34.805 77.1263 36.7812 77.8525 37.8425 78.2425C38.07 78.3325 38.305 78.4075 38.5425 78.4663C40.3125 78.8488 43.49 79.0225 44.8825 75.8913C45.6025 74.245 45.5312 72.36 44.6887 70.7738C40.2875 62.2675 41.1025 56.685 41.6575 54.68C43.7925 46.965 42.6825 38.4625 38.8262 33.0313C39.1487 32.545 39.9375 31.59 41.6662 30.4638C42.4287 29.9675 42.2325 28.795 41.3512 28.5663C39.4712 28.0788 37.7962 27.8463 35.965 27.5963C31.6937 27.0125 27.605 26.885 25.6312 27.2588C24.4775 27.4775 23.9762 28.315 23.9762 28.315V28.3125ZM39.775 29.7325C38.4162 30.6238 38.4537 30.8088 37.9125 31.4488C37.84 31.295 37.7675 31.1413 37.7 30.9825C37.5187 30.555 37.025 30.3563 36.5975 30.5388C36.17 30.72 35.9712 31.2138 36.1537 31.6413C36.5075 32.4813 36.95 33.28 37.4725 34.0263C39.1062 36.3375 40.28 39.4913 40.775 42.9075C41.1575 45.5988 41.14 48.3325 40.7237 51.02C37.1325 49.3013 34.6525 46.59 33.3462 42.9475C32.7 41.1675 32.3912 39.2838 32.4337 37.39C32.4662 36.9275 32.1175 36.525 31.655 36.4925C31.1925 36.46 30.79 36.8088 30.7575 37.2713C30.7487 37.3863 30.5687 40.1325 31.74 43.4463C32.7837 46.3975 35.1337 50.3463 40.4087 52.725C40.2987 53.23 40.175 53.7325 40.0375 54.2313C38.2125 60.8225 41.6387 68.535 43.1962 71.545C43.795 72.6813 43.85 74.0263 43.3475 75.2075C42.6437 76.79 41.1887 77.3175 38.8975 76.8225C38.7362 76.7775 38.5775 76.725 38.4212 76.6625C37.1887 76.21 34.8925 75.3675 30.3362 76.5413C28.5287 77.0063 25.4375 77.2738 24.5325 77.0425C23.7412 76.8375 22.9112 76.8325 22.1175 77.03C21.7925 77.1163 21.46 77.1675 21.1237 77.1863C20.7937 77.2125 20.4987 76.9775 20.4512 76.65C20.37 76.3225 20.5575 75.9888 20.8787 75.8875C21.395 75.7013 21.9875 75.5525 22.5587 75.4088C22.9337 75.315 23.2862 75.225 23.5987 75.1313C28.9375 73.505 31.6075 71.8825 32.0662 71.5888C33.0862 71.13 33.8487 70.1888 34.275 68.8625C34.7837 67.2763 34.7712 65.2713 34.3187 63.425C35.9575 61.4563 36.845 58.465 36.955 54.5213C36.9675 54.0575 36.6025 53.67 36.1387 53.6575C35.675 53.645 35.2875 54.01 35.275 54.4738C35.1912 57.4675 34.6412 59.8125 33.6425 61.4763C33.5062 61.1813 33.3525 60.8938 33.1837 60.615C29.6937 54.9238 27.6825 48.5488 27.2087 41.6713C26.9887 38.4875 26.0437 36.8463 25.805 36.4775C24.5637 33.8638 24.2975 31.6663 25.0137 29.9475C25.2375 29.41 25.4175 29.2663 25.7437 28.9038" fill="black"/>
<path d="M75.2087 28.6039H75.2074C76.3049 30.1889 76.8937 32.7914 74.9299 36.8914C74.9299 36.8914 73.8649 38.3551 73.6324 41.7276C73.1324 48.9851 70.9874 55.4226 67.5349 61.0526C67.1324 61.7251 66.8212 62.4489 66.6124 63.2051C65.7424 66.2264 66.1549 69.9239 68.3374 70.8451C68.3374 70.8451 70.9274 72.5839 76.6487 74.3264C77.3974 74.5551 78.4999 74.7689 79.4087 75.0964C81.0262 75.6789 80.5599 78.0976 78.8424 78.0251C78.4487 78.0039 78.0587 77.9439 77.6774 77.8439C77.0199 77.6801 76.3337 77.6839 75.6774 77.8539C74.5324 78.1476 71.2637 77.8189 69.4549 77.3539C64.2574 76.0139 62.2074 77.4426 61.2799 77.6426C58.0212 78.3451 56.5462 77.0351 55.8849 75.5476C55.2737 74.1339 55.3374 72.5189 56.0574 71.1564C57.5612 68.2514 60.8999 60.7651 59.1524 54.4526C58.9474 53.7089 58.7724 52.9651 58.6299 52.2239C57.2299 44.9576 58.7662 37.8889 61.8424 33.5389C61.9487 33.3876 62.0537 33.2314 62.1549 33.0689C62.1312 33.0026 63.4774 31.6589 58.8149 29.3226C58.8149 29.3226 75.1824 26.5126 75.2087 28.6039Z" fill="#FFD8B7"/>
<path d="M69.8875 28.6038H69.8862C70.9837 30.1888 71.5725 32.7913 69.6087 36.8913C69.6087 36.8913 68.5437 38.355 68.3112 41.7275C67.8112 48.985 65.6662 55.4225 62.2137 61.0525C61.8112 61.725 61.5 62.4488 61.2912 63.205C60.4212 66.2263 60.8337 69.9238 63.0162 70.845C63.0162 70.845 65.6062 72.5838 71.3275 74.3263C72.0762 74.555 73.1787 74.7688 74.0875 75.0963C75.525 75.6138 75.315 77.58 74.0462 77.9613C74.5925 77.9925 75.14 77.9575 75.6775 77.855C76.3325 77.685 77.02 77.6813 77.6775 77.845C78.0587 77.945 78.4487 78.005 78.8425 78.0263C80.5587 78.0975 81.025 75.68 79.4087 75.0975C78.5 74.77 77.3975 74.555 76.6487 74.3275C70.9275 72.5863 68.3375 70.8463 68.3375 70.8463C66.155 69.925 65.7425 66.2288 66.6125 63.2063C66.8225 62.4513 67.1325 61.7263 67.535 61.0538C70.9875 55.425 73.1325 48.9863 73.6325 41.7288C73.865 38.355 74.93 36.8925 74.93 36.8925C76.8925 32.7925 76.305 30.19 75.2075 28.605H75.2087" fill="#EFBB95"/>
<path d="M74.3688 27.2563C72.395 26.8826 68.3063 27.0101 64.035 27.5938C62.205 27.8438 60.5288 28.0776 58.6488 28.5638C57.7675 28.7926 57.5713 29.9651 58.3338 30.4613C60.0638 31.5876 60.8513 32.5426 61.1738 33.0263C57.3175 38.4588 56.2075 46.9613 58.3425 54.6763C58.8975 56.6813 59.7125 62.2626 55.3113 70.7701C54.4688 72.3563 54.3975 74.2413 55.1175 75.8876C56.51 79.0188 59.6875 78.8451 61.4575 78.4626C61.6963 78.4038 61.93 78.3288 62.1575 78.2388C63.2188 77.8488 65.1938 77.1238 69.245 78.1663C70.9513 78.6051 74.47 79.0301 75.885 78.6676C76.4038 78.5326 76.9488 78.5288 77.47 78.6563C77.925 78.7713 78.39 78.8413 78.86 78.8638C79.9938 78.8788 80.9775 78.0826 81.1988 76.9701C81.4425 75.8276 80.7963 74.6838 79.6925 74.3026C79.0975 74.0888 78.4363 73.9213 77.8525 73.7751C77.4988 73.6863 77.1638 73.6013 76.8925 73.5188C71.39 71.8426 68.7575 70.1213 68.7325 70.1051C67.985 69.7901 67.5225 68.9551 67.3263 68.3426C66.6938 66.3738 67.1 63.3638 68.25 61.4888C71.8838 55.5638 73.9775 48.9338 74.47 41.7826C74.6788 38.7451 75.6413 37.3288 75.6513 37.3138C77.1363 34.2126 77.4563 31.4638 76.5288 29.2676C76.3875 28.9338 76.2188 28.6138 76.0238 28.3088C76.0238 28.3088 75.5225 27.4713 74.3688 27.2526V27.2563ZM74.26 28.9026C74.5863 29.2651 74.7663 29.4088 74.99 29.9463C75.7063 31.6651 75.44 33.8626 74.1988 36.4763C73.96 36.8451 73.0138 38.4863 72.795 41.6701C72.3213 48.5476 70.31 54.9226 66.82 60.6138C66.6513 60.8913 66.4975 61.1788 66.3613 61.4751C65.3613 59.8113 64.8125 57.4651 64.7288 54.4726C64.7163 54.0088 64.3288 53.6426 63.865 53.6563C63.4013 53.6701 63.035 54.0563 63.0488 54.5201C63.1588 58.4638 64.0463 61.4551 65.685 63.4238C65.2325 65.2701 65.22 67.2738 65.7288 68.8613C66.155 70.1876 66.9175 71.1288 67.9375 71.5876C68.3963 71.8813 71.065 73.5038 76.405 75.1301C76.7163 75.2251 77.07 75.3138 77.445 75.4076C78.0175 75.5513 78.6088 75.7001 79.125 75.8863C79.4475 75.9876 79.6338 76.3213 79.5525 76.6488C79.5038 76.9763 79.21 77.2113 78.88 77.1851C78.545 77.1676 78.2113 77.1151 77.8863 77.0288C77.0925 76.8313 76.2625 76.8363 75.4713 77.0413C74.5663 77.2726 71.475 77.0063 69.6675 76.5401C65.11 75.3663 62.815 76.2088 61.5825 76.6613C61.4263 76.7226 61.2675 76.7763 61.1063 76.8213C58.815 77.3163 57.36 76.7888 56.6563 75.2063C56.1525 74.0251 56.2088 72.6801 56.8075 71.5438C58.365 68.5338 61.79 60.8213 59.9663 54.2301C59.8288 53.7313 59.7063 53.2288 59.595 52.7238C64.87 50.3451 67.22 46.3951 68.2638 43.4451C69.435 40.1313 69.255 37.3851 69.2463 37.2701C69.2138 36.8076 68.8113 36.4588 68.3488 36.4913C67.8863 36.5238 67.5375 36.9263 67.57 37.3888C67.6125 39.2813 67.3038 41.1663 66.6575 42.9463C65.3513 46.5888 62.8713 49.3001 59.28 51.0188C58.8625 48.3326 58.845 45.5988 59.2288 42.9063C59.725 39.4913 60.8975 36.3363 62.5313 34.0251C63.0538 33.2788 63.4963 32.4801 63.85 31.6401C64.0313 31.2126 63.8325 30.7201 63.4063 30.5376C62.9788 30.3563 62.4863 30.5551 62.3038 30.9813C62.2363 31.1401 62.165 31.2938 62.0913 31.4476C61.5488 30.8076 61.5863 30.6226 60.2288 29.7313" fill="black"/>
<path d="M37.91 27.0913L36.4275 37.2813C36.3737 37.6526 36.6912 37.9701 37.0625 37.9163L47.2525 36.4338C47.7087 36.3676 47.8937 35.8088 47.5675 35.4838L45.4562 33.3726C45.2375 33.1538 45.2375 32.7988 45.4562 32.5801L53.0437 24.9926C53.2625 24.7738 53.2625 24.4188 53.0437 24.2001L50.1425 21.2988C49.9237 21.0801 49.5687 21.0801 49.35 21.2988L41.7625 28.8863C41.5437 29.1051 41.1887 29.1051 40.97 28.8863L38.8587 26.7751C38.5325 26.4488 37.975 26.6338 37.9087 27.0901" fill="#62DBFB"/>
<path d="M45.655 25.7876L48.5563 28.6888C48.7751 28.9076 48.7751 29.2626 48.5563 29.4813L53.045 24.9926C53.2638 24.7738 53.2638 24.4188 53.045 24.2001L50.1438 21.2988C49.925 21.0801 49.57 21.0801 49.3513 21.2988L44.8625 25.7876C45.0813 25.5688 45.4363 25.5688 45.655 25.7876Z" fill="#01D0FB"/>
<path d="M36.985 39.1713C36.5087 39.1713 36.0425 38.9825 35.7025 38.6413C35.3 38.24 35.1087 37.6638 35.1912 37.1013L36.6737 26.91C36.7725 26.2275 37.2412 25.67 37.895 25.4525C38.5487 25.235 39.2575 25.4038 39.745 25.89L41.3687 27.5138L48.4687 20.4138C48.81 20.0725 49.265 19.8838 49.7487 19.8838C50.2325 19.8838 50.6862 20.0725 51.0287 20.4138L53.93 23.315C54.6362 24.0213 54.6362 25.1688 53.93 25.875L46.83 32.975L48.4537 34.5988C48.9412 35.0863 49.1087 35.795 48.8912 36.4488C48.6737 37.1025 48.1162 37.5713 47.4337 37.67L37.2425 39.1525C37.1562 39.165 37.0712 39.1713 36.985 39.1713ZM38.9487 28.6313L37.7975 36.545L45.7112 35.3938L44.5725 34.255C43.8662 33.5488 43.8662 32.4013 44.5725 31.695L51.6725 24.595L49.7475 22.67L42.6475 29.77C41.9412 30.4763 40.7937 30.4763 40.0875 29.77L38.9487 28.6313ZM39.1475 27.27V27.2713C39.1475 27.2713 39.1475 27.2713 39.1475 27.27Z" fill="black"/>
<path d="M62.0902 27.0913C62.0239 26.635 61.4652 26.4501 61.1402 26.7763L59.0289 28.8876C58.8102 29.1063 58.4552 29.1063 58.2365 28.8876L50.6489 21.3C50.4302 21.0813 50.0752 21.0813 49.8564 21.3L46.9552 24.2013C46.7365 24.42 46.7365 24.775 46.9552 24.9938L54.5427 32.5813C54.7614 32.8 54.7614 33.155 54.5427 33.3738L52.4314 35.4851C52.1052 35.8113 52.2914 36.3688 52.7464 36.4351L62.9364 37.9175C63.3077 37.9713 63.6252 37.6538 63.5714 37.2826L62.0889 27.0926" fill="#62DBFB"/>
<path d="M54.3452 25.7876C54.5639 25.5688 54.9189 25.5688 55.1377 25.7876L50.6489 21.2988C50.4302 21.0801 50.0752 21.0801 49.8564 21.2988L46.9552 24.2001C46.7365 24.4188 46.7365 24.7738 46.9552 24.9926L51.4439 29.4813C51.2252 29.2626 51.2252 28.9076 51.4439 28.6888L54.3452 25.7876Z" fill="#01D0FB"/>
<path d="M63.0157 39.1713C62.9295 39.1713 62.8445 39.165 62.7582 39.1525L52.567 37.67C51.8845 37.5713 51.327 37.1025 51.1095 36.4488C50.892 35.795 51.0607 35.0863 51.547 34.5988L53.1707 32.975L46.0707 25.875C45.3645 25.1688 45.3645 24.0213 46.0707 23.315L48.972 20.4138C49.3132 20.0725 49.7682 19.8838 50.252 19.8838C50.7357 19.8838 51.1895 20.0725 51.532 20.4138L58.632 27.5138L60.2557 25.89C60.7432 25.4025 61.452 25.235 62.1057 25.4525C62.7595 25.67 63.227 26.2288 63.327 26.91L64.8095 37.1C64.8907 37.6638 64.6995 38.2388 64.2982 38.6413C63.9582 38.9813 63.492 39.1713 63.0157 39.1713ZM54.2882 35.395L62.202 36.5463L61.0507 28.6325L59.912 29.7713C59.2057 30.4775 58.0582 30.4775 57.352 29.7713L50.252 22.6713L48.327 24.5963L55.427 31.6963C56.1332 32.4025 56.1332 33.55 55.427 34.2563L54.2882 35.395Z" fill="black"/>
</svg>
