<svg width="100" height="100" viewBox="0 0 100 100" fill="none" xmlns="http://www.w3.org/2000/svg">
<path d="M81.25 43.1313C81.25 37.5413 76.7188 33.01 71.1288 33.01H28.8713C23.2812 33.01 18.75 37.5413 18.75 43.1313V52.5125C18.75 53.77 19.2213 54.9163 19.9963 55.7863C19.2188 56.7 18.75 57.8825 18.75 59.1763V72.2075C18.75 72.555 19.0312 72.8363 19.3787 72.8363H28.595C28.9425 72.8363 29.2237 72.555 29.2237 72.2075V52.5125C29.2237 51.3863 29.6025 50.35 30.2375 49.5213L36.2938 72.3688C36.3663 72.645 36.6162 72.8363 36.9012 72.8363H63.0975C63.3825 72.8363 63.6325 72.6438 63.705 72.3688L69.7613 49.5213C70.3963 50.35 70.775 51.3875 70.775 52.5125V72.2075C70.775 72.555 71.0562 72.8363 71.4037 72.8363H80.62C80.9675 72.8363 81.2487 72.555 81.2487 72.2075V59.1763C81.2487 57.8825 80.7788 56.7 80.0025 55.7863C80.7775 54.9163 81.2487 53.77 81.2487 52.5125V43.1313H81.25Z" fill="#FED2A4"/>
<path d="M73.8575 72.2076V52.5126C73.8575 51.9951 73.44 51.3313 72.9287 50.6838H70.7762V72.2063C70.7762 72.5538 71.0575 72.8351 71.405 72.8351H74.4862C74.1387 72.8351 73.8575 72.5538 73.8575 72.2063" fill="#FFBD86"/>
<path d="M40.3812 72.3688L36.9987 59.6126C35.2012 59.2726 33.5799 58.4363 32.2849 57.2476L36.2937 72.3688C36.3662 72.6451 36.6162 72.8363 36.9012 72.8363H40.9887C40.7037 72.8363 40.4537 72.6438 40.3812 72.3688Z" fill="#FFBD86"/>
<path d="M22.8375 72.2075V59.1763C22.8375 58.05 23.1937 57.0075 23.7987 56.1538C23.9538 55.935 23.95 55.6413 23.7913 55.4238C23.1925 54.6075 22.8375 53.6013 22.8375 52.5113V43.13C22.8375 37.54 27.3688 33.0088 32.9588 33.0088H28.8713C23.2812 33.0088 18.75 37.54 18.75 43.13V52.5113C18.75 53.7688 19.2213 54.915 19.9963 55.785C19.2188 56.6988 18.75 57.8813 18.75 59.175V72.2063C18.75 72.5538 19.0312 72.835 19.3787 72.835H23.4662C23.1187 72.835 22.8375 72.5538 22.8375 72.2063" fill="#FFBD86"/>
<path d="M28.595 74.0863H19.3787C18.3425 74.0863 17.5 73.2438 17.5 72.2075V59.1763C17.5 57.98 17.8325 56.8125 18.4487 55.8C17.8325 54.8213 17.5 53.6838 17.5 52.5113V43.13C17.5 36.86 22.6013 31.7588 28.8713 31.7588H63.0788C63.7687 31.7588 64.3288 32.3188 64.3288 33.0088C64.3288 33.6988 63.7687 34.2588 63.0788 34.2588H28.8713C23.98 34.2588 20 38.2388 20 43.13V52.5113C20 53.4125 20.33 54.28 20.93 54.9538C21.345 55.42 21.3525 56.12 20.9487 56.595C20.3362 57.315 20 58.2313 20 59.175V71.585H27.9737V69.2388C27.9737 68.5488 28.5337 67.9888 29.2237 67.9888C29.9137 67.9888 30.4737 68.5488 30.4737 69.2388V72.2063C30.4737 73.2425 29.6312 74.085 28.595 74.085V74.0863Z" fill="black"/>
<path d="M80.6212 74.0863H71.4049C70.3687 74.0863 69.5262 73.2438 69.5262 72.2075V55.29L64.9137 72.6888C64.6962 73.5113 63.9487 74.0863 63.0974 74.0863H36.9012C36.0499 74.0863 35.3024 73.5113 35.0849 72.6888L30.4724 55.29V64.8388C30.4724 65.5288 29.9124 66.0888 29.2224 66.0888C28.5324 66.0888 27.9724 65.5288 27.9724 64.8388V52.5125C27.9724 51.1438 28.4124 49.8463 29.2437 48.76C29.5337 48.3813 30.0137 48.2013 30.4812 48.295C30.9487 48.3888 31.3224 48.74 31.4449 49.2L37.3787 71.5863H62.6187L68.5524 49.2C68.6749 48.7388 69.0487 48.3875 69.5162 48.295C69.9837 48.2013 70.4637 48.3825 70.7537 48.76C71.5849 49.8463 72.0249 51.1438 72.0249 52.5125V71.5863H79.9987V59.1763C79.9987 58.2325 79.6612 57.3163 79.0499 56.5963C78.6462 56.1213 78.6537 55.4213 79.0687 54.955C79.6687 54.2813 79.9987 53.4138 79.9987 52.5125V43.1313C79.9987 38.24 76.0187 34.26 71.1274 34.26H67.4787C66.7887 34.26 66.2287 33.7 66.2287 33.01C66.2287 32.32 66.7887 31.76 67.4787 31.76H71.1274C77.3974 31.76 82.4987 36.8613 82.4987 43.1313V52.5125C82.4987 53.685 82.1662 54.8225 81.5499 55.8013C82.1662 56.8125 82.4987 57.9813 82.4987 59.1775V72.2088C82.4987 73.245 81.6562 74.0875 80.6199 74.0875L80.6212 74.0863Z" fill="black"/>
<path d="M54.6013 27.8563C54.5225 27.4538 54.1688 27.1638 53.7588 27.1638H46.2425C45.8325 27.1638 45.48 27.4538 45.4 27.8563L43.8488 35.7288H56.1525L54.6013 27.8563Z" fill="#FED2A4"/>
<path d="M56.1513 36.9788C55.5663 36.9788 55.0438 36.5663 54.9263 35.9701L53.4375 28.4138H46.5638L45.075 35.9701C44.9413 36.6476 44.2838 37.0876 43.6075 36.9551C42.93 36.8213 42.4888 36.1638 42.6225 35.4863L44.1738 27.6138C44.3675 26.6288 45.2375 25.9126 46.2425 25.9126H53.7588C54.7638 25.9126 55.6338 26.6276 55.8275 27.6138L57.3788 35.4863C57.5125 36.1638 57.0713 36.8213 56.3938 36.9551C56.3125 36.9713 56.2313 36.9788 56.1513 36.9788Z" fill="black"/>
<path d="M70.8375 42.7788V50.1013C70.8375 55.4476 66.5038 59.7813 61.1575 59.7813H56.225C54.8662 59.7813 53.5487 59.3163 52.4912 58.4651L50 56.4588" fill="#FED2A4"/>
<path d="M29.1625 42.7788V50.1463C29.1625 55.4676 33.4762 59.7813 38.7975 59.7813H43.775C45.1337 59.7813 46.4512 59.3163 47.5087 58.4651L50 56.4588V43.9563" fill="#FED2A4"/>
<path d="M34.5325 50.1463V44.0363C34.5325 43.3413 33.9687 42.7788 33.275 42.7788H29.1625V50.1463C29.1625 55.4676 33.4762 59.7813 38.7975 59.7813H43.775C43.8462 59.7813 43.9175 59.7788 43.9875 59.7763C38.75 59.6801 34.5325 55.4063 34.5325 50.1463Z" fill="#FFBD86"/>
<path d="M57.2938 61.0325H56.2251C54.5876 61.0325 52.9826 60.4663 51.7063 59.4388L49.2151 57.4325C48.6776 57 48.5926 56.2125 49.0251 55.675C49.4576 55.1375 50.2451 55.0525 50.7826 55.485L53.2738 57.4913C54.1063 58.1625 55.1538 58.5313 56.2238 58.5313H57.2926C57.9826 58.5313 58.5426 59.0913 58.5426 59.7813C58.5426 60.4713 57.9826 61.0313 57.2926 61.0313L57.2938 61.0325Z" fill="black"/>
<path d="M61.6937 61.0163C61.035 61.0163 60.4837 60.5 60.4462 59.835C60.4087 59.1463 60.9362 58.5563 61.6262 58.5188C66.09 58.275 69.5875 54.5775 69.5875 50.1025V42.78C69.5875 42.09 70.1475 41.53 70.8375 41.53C71.5275 41.53 72.0875 42.09 72.0875 42.78V50.1025C72.0875 55.905 67.5525 60.6975 61.7625 61.015C61.7387 61.0163 61.7162 61.0175 61.6937 61.0175V61.0163Z" fill="black"/>
<path d="M43.775 61.0325H38.7975C32.795 61.0325 27.9125 56.15 27.9125 50.1475V42.78C27.9125 42.09 28.4725 41.53 29.1625 41.53C29.8525 41.53 30.4125 42.09 30.4125 42.78V50.1475C30.4125 54.7713 34.1737 58.5325 38.7975 58.5325H43.775C44.845 58.5325 45.8925 58.1625 46.725 57.4925L48.75 55.8613V43.9563C48.75 43.2663 49.31 42.7063 50 42.7063C50.69 42.7063 51.25 43.2663 51.25 43.9563V56.4588C51.25 56.8375 51.0787 57.195 50.7837 57.4325L48.2925 59.4388C47.0175 60.4663 45.4125 61.0313 43.775 61.0313V61.0325Z" fill="black"/>
<path d="M45.5038 42.6924C45.4 42.6924 45.2938 42.6799 45.1888 42.6524L31.955 39.2124C31.2863 39.0387 30.8863 38.3562 31.06 37.6887C31.2338 37.0212 31.9163 36.6199 32.5838 36.7937L45.8175 40.2337C46.4863 40.4074 46.8863 41.0899 46.7125 41.7574C46.5663 42.3199 46.0588 42.6937 45.5038 42.6937V42.6924Z" fill="black"/>
<path d="M54.4963 42.6925C53.9413 42.6925 53.4338 42.32 53.2876 41.7562C53.1138 41.0875 53.5151 40.4062 54.1826 40.2325L67.4163 36.7925C68.0838 36.6187 68.7663 37.02 68.9401 37.6875C69.1138 38.355 68.7126 39.0375 68.0451 39.2112L54.8113 42.6512C54.7063 42.6787 54.6001 42.6912 54.4963 42.6912V42.6925Z" fill="black"/>
<path d="M50 74.0863C49.31 74.0863 48.75 73.5263 48.75 72.8363V63.3926C48.75 62.7026 49.31 62.1426 50 62.1426C50.69 62.1426 51.25 62.7026 51.25 63.3926V72.8363C51.25 73.5263 50.69 74.0863 50 74.0863Z" fill="black"/>
<path d="M34.0638 53.3763L39.6238 49.2288C39.8263 49.0776 39.8263 48.7751 39.6238 48.6238L34.0638 44.4763C33.815 44.2913 33.4613 44.4688 33.4613 44.7788V46.7901C33.4613 46.9988 33.2925 47.1676 33.0838 47.1676H25.855C25.6463 47.1676 25.4775 47.3363 25.4775 47.5451V50.3088C25.4775 50.5176 25.6463 50.6863 25.855 50.6863H33.0838C33.2925 50.6863 33.4613 50.8551 33.4613 51.0638V53.0751C33.4613 53.3851 33.815 53.5626 34.0638 53.3776" fill="#62DBFB"/>
<path d="M29.7538 50.3075V47.5438C29.7538 47.335 29.9225 47.1663 30.1313 47.1663H25.855C25.6463 47.1663 25.4775 47.335 25.4775 47.5438V50.3075C25.4775 50.5163 25.6463 50.685 25.855 50.685H30.1313C29.9225 50.685 29.7538 50.5163 29.7538 50.3075Z" fill="#01D0FB"/>
<path d="M65.9357 44.4754L60.3758 48.6229C60.1733 48.7741 60.1733 49.0766 60.3758 49.2279L65.9357 53.3754C66.1845 53.5616 66.5383 53.3841 66.5383 53.0729V51.0616C66.5383 50.8529 66.707 50.6841 66.9158 50.6841H74.1445C74.3532 50.6841 74.522 50.5154 74.522 50.3066V47.5429C74.522 47.3341 74.3532 47.1654 74.1445 47.1654H66.9158C66.707 47.1654 66.5383 46.9966 66.5383 46.7879V44.7766C66.5383 44.4666 66.1845 44.2891 65.9357 44.4741" fill="#62DBFB"/>
<path d="M62.0512 47.3738L60.3775 48.6226C60.175 48.7738 60.175 49.0763 60.3775 49.2276L65.9375 53.3751C66.1862 53.5601 66.54 53.3826 66.54 53.0726V51.0613C66.54 50.9601 66.58 50.8688 66.645 50.8001L62.0512 47.3726V47.3738Z" fill="#01D0FB"/>
<path d="M33.8405 54.7025C33.5917 54.7025 33.3417 54.645 33.1092 54.5287C32.5555 54.2512 32.2117 53.6937 32.2117 53.0737V51.935H25.8567C24.9592 51.935 24.2292 51.205 24.2292 50.3075V47.5437C24.2292 46.6462 24.9592 45.9162 25.8567 45.9162H32.2117V44.7775C32.2117 44.1575 32.5555 43.6012 33.1092 43.3225C33.663 43.045 34.3155 43.1025 34.8117 43.4725L40.3717 47.62C40.7817 47.9262 41.0255 48.4137 41.0255 48.9237C41.0255 49.4337 40.7817 49.9225 40.3717 50.2275L34.8117 54.375C34.5242 54.59 34.183 54.7 33.8405 54.7V54.7025ZM26.728 49.435H33.083C33.9805 49.435 34.7105 50.165 34.7105 51.0625V51.3337L37.938 48.9262L34.7105 46.5187V46.79C34.7105 47.6875 33.9805 48.4175 33.083 48.4175H26.728V49.435Z" fill="black"/>
<path d="M66.16 54.7024C65.8162 54.7024 65.4762 54.5924 65.1887 54.3774L59.6287 50.2299C59.2187 49.9237 58.975 49.4362 58.975 48.9262C58.975 48.4162 59.2187 47.9274 59.6287 47.6224L65.1887 43.4749C65.685 43.1049 66.3375 43.0474 66.8912 43.3249C67.445 43.6024 67.7887 44.1599 67.7887 44.7799V45.9187H74.1437C75.0412 45.9187 75.7712 46.6487 75.7712 47.5462V50.3099C75.7712 51.2074 75.0412 51.9374 74.1437 51.9374H67.7887V53.0762C67.7887 53.6962 67.445 54.2537 66.8912 54.5312C66.6587 54.6474 66.4087 54.7049 66.16 54.7049V54.7024ZM62.0612 48.9262L65.2887 51.3337V51.0624C65.2887 50.1649 66.0187 49.4349 66.9162 49.4349H73.2712V48.4174H66.9162C66.0187 48.4174 65.2887 47.6874 65.2887 46.7899V46.5187L62.0612 48.9262Z" fill="black"/>
</svg>
