<svg width="100" height="100" viewBox="0 0 100 100" fill="none" xmlns="http://www.w3.org/2000/svg">
<path d="M23.4327 40.33C23.4327 40.33 24.0139 32.5175 31.3152 26.7263C31.4639 26.6088 31.6477 26.5463 31.8377 26.5463H49.1552C49.6227 26.5463 50.0014 26.9238 50.0027 27.3913C50.0027 27.4788 49.9889 27.5663 49.9627 27.6488C48.8814 31.0138 45.0439 36.6563 37.8164 40.2775C34.2039 42.0888 33.5677 43.7375 33.5489 43.7888C33.6264 43.915 33.7089 44.0363 33.7914 44.1538C36.1752 47.5238 37.3652 53.0013 36.2802 58.6313C36.1689 59.2063 36.0352 59.7825 35.8752 60.3588C34.5214 65.25 37.1077 71.05 38.2727 73.3013C38.8302 74.3563 38.8802 75.6075 38.4064 76.7038C37.8939 77.8563 36.7502 78.8713 34.2264 78.3275C33.5077 78.1725 31.9202 77.0663 27.8927 78.1038C26.4914 78.4638 23.9589 78.7188 23.0714 78.4913C22.5639 78.36 22.0314 78.3575 21.5227 78.4838C21.2277 78.5613 20.9252 78.6075 20.6202 78.6238C19.2902 78.6788 18.9289 76.805 20.1814 76.3538C20.8852 76.1 21.7389 75.9338 22.3202 75.7575C26.7539 74.4075 28.7602 73.06 28.7602 73.06C30.4514 72.3463 30.7702 69.4813 30.0964 67.14C29.9339 66.555 29.6939 65.9938 29.3814 65.4725C26.7064 61.1113 25.0439 56.1225 24.6564 50.4988C24.4764 47.885 23.6502 46.7513 23.6502 46.7513C22.1289 43.575 22.5852 41.5575 23.4352 40.3288L23.4327 40.33Z" fill="#FFD8B7"/>
<path d="M24.3001 76.355C25.0038 76.1013 25.8576 75.935 26.4388 75.7588C30.8726 74.4088 32.8788 73.0613 32.8788 73.0613C34.5701 72.3475 34.8888 69.4825 34.2151 67.1413C34.0526 66.5563 33.8126 65.995 33.5001 65.4738C30.8251 61.1125 29.1626 56.1238 28.7751 50.5C28.5951 47.8863 27.7688 46.7525 27.7688 46.7525C26.2476 43.5763 26.7038 41.5588 27.5538 40.33C27.5538 40.33 28.1351 32.5175 35.4363 26.7263C35.5851 26.6088 35.7688 26.5463 35.9588 26.5463H31.8363C31.6476 26.5463 31.4626 26.6088 31.3138 26.7263C24.0126 32.5175 23.4313 40.33 23.4313 40.33C22.5801 41.5588 22.1251 43.575 23.6463 46.7525C23.6463 46.7525 24.4726 47.8863 24.6526 50.5C25.0401 56.1238 26.7026 61.1125 29.3776 65.4738C29.6901 65.995 29.9301 66.5563 30.0926 67.1413C30.7663 69.4825 30.4476 72.3475 28.7563 73.0613C28.7563 73.0613 26.7488 74.4088 22.3163 75.7588C21.7363 75.935 20.8826 76.1013 20.1776 76.355C18.9238 76.8063 19.2863 78.68 20.6163 78.625C20.9213 78.6088 21.2238 78.5625 21.5188 78.485C22.0276 78.3588 22.5601 78.3613 23.0676 78.4925C23.4838 78.5725 23.9088 78.6 24.3326 78.575C23.3488 78.28 23.1876 76.7563 24.3001 76.355Z" fill="#EFBB95"/>
<path d="M32.1465 40.6838C32.5065 40.6838 32.7978 40.3913 32.7978 40.0313C32.7978 39.9975 32.7953 39.9638 32.7903 39.9313C32.509 38.215 32.7403 36.4538 33.4553 34.8675C34.3265 32.915 35.9115 31.1675 38.1665 29.67C38.4665 29.4713 38.5478 29.0675 38.349 28.7675C38.1503 28.4675 37.7465 28.3863 37.4465 28.585C31.3303 32.6438 31.0978 37.5625 31.504 40.1338C31.554 40.45 31.8265 40.6825 32.1465 40.6838Z" fill="black"/>
<path d="M20.6026 79.2762C20.9664 79.2587 21.3264 79.205 21.6789 79.115C22.0826 79.015 22.5051 79.0187 22.9076 79.1237C24.0039 79.4037 26.7301 79.075 28.0526 78.735C31.1914 77.9262 32.7214 78.4887 33.5439 78.7912C33.7201 78.8612 33.9014 78.9187 34.0864 78.965C35.4576 79.2612 37.9201 79.3962 38.9989 76.97C39.5564 75.695 39.5014 74.2337 38.8489 73.005C35.4376 66.4137 36.0701 62.0887 36.5001 60.535C38.1526 54.5662 37.2964 47.9887 34.3201 43.78C34.3151 43.7737 34.3114 43.7662 34.3064 43.7587C34.6402 43.2587 35.6139 42.11 38.1051 40.8612C41.4064 39.2075 44.3727 36.9375 46.6814 34.2975C48.5152 32.2012 49.9364 29.8512 50.5802 27.85C50.7289 27.395 50.6489 26.8975 50.3652 26.5125C50.0827 26.1262 49.6327 25.8962 49.1539 25.8962H31.8364C31.5001 25.8962 31.1739 26.0087 30.9089 26.2175C27.8451 28.6425 25.4726 31.83 24.0289 35.4612C23.1164 37.7687 22.8614 39.5512 22.7989 40.105C22.6476 40.3412 22.5164 40.5887 22.4076 40.8475C21.6889 42.5487 21.9364 44.6787 23.0876 47.0825C23.0951 47.0937 23.8401 48.1912 24.0026 50.545C24.3851 56.0862 26.0064 61.2237 28.8226 65.815C29.7139 67.2675 30.0276 69.6 29.5376 71.1262C29.3851 71.6012 29.0276 72.2475 28.4489 72.4912C28.4289 72.5037 26.3901 73.8387 22.1264 75.1362C21.9164 75.2 21.6576 75.265 21.3826 75.3337C20.9301 75.4475 20.4176 75.5762 19.9564 75.7425C19.1014 76.0375 18.6001 76.9237 18.7889 77.8087C18.9601 78.6712 19.7226 79.2875 20.6014 79.2762H20.6026ZM20.3989 76.9675C20.7989 76.8237 21.2576 76.7075 21.7014 76.5962C21.9914 76.5237 22.2651 76.4537 22.5064 76.3812C26.6439 75.1212 28.7114 73.8637 29.0676 73.6362C29.8576 73.2812 30.4489 72.5512 30.7789 71.5237C31.1739 70.295 31.1639 68.7412 30.8126 67.3112C32.0826 65.7862 32.7701 63.4675 32.8551 60.4112C32.8651 60.0512 32.5814 59.7525 32.2226 59.7425C31.8639 59.7325 31.5639 60.0162 31.5539 60.375C31.4889 62.695 31.0626 64.5112 30.2889 65.8012C30.1826 65.5725 30.0639 65.35 29.9326 65.1337C27.2289 60.7237 25.6701 55.785 25.3026 50.455C25.1326 47.9887 24.4001 46.7162 24.2151 46.43C23.2539 44.4037 23.0464 42.7025 23.6014 41.37C24.2451 39.825 25.7464 39.2762 25.7864 39.2612C26.1264 39.1437 26.3064 38.7725 26.1889 38.4325C26.0726 38.0962 25.7064 37.915 25.3689 38.0275C25.0364 38.1512 24.7189 38.3112 24.4214 38.505C24.6401 37.615 24.9201 36.7412 25.2601 35.89C26.6214 32.4912 28.8476 29.5075 31.7189 27.235C31.7526 27.2087 31.7939 27.195 31.8364 27.195H49.1539C49.3102 27.2187 49.3664 27.2925 49.3414 27.4487C48.1339 31.2012 44.0114 36.4437 37.5226 39.695C35.3826 40.7675 34.2189 41.8 33.5989 42.5325C33.5427 42.4137 33.4864 42.2937 33.4339 42.1712C33.2926 41.84 32.9102 41.6862 32.5802 41.8275C32.2489 41.9687 32.0952 42.3512 32.2364 42.6812C32.5102 43.3312 32.8526 43.9512 33.2589 44.5287C34.5251 46.32 35.4339 48.7637 35.8189 51.41C36.1151 53.4962 36.1014 55.6137 35.7789 57.6962C32.9964 56.365 31.0739 54.2637 30.0626 51.4412C29.5626 50.0625 29.3226 48.6025 29.3551 47.135C29.3801 46.7762 29.1101 46.465 28.7514 46.44C28.3926 46.415 28.0814 46.685 28.0564 47.0437C28.0501 47.1325 27.9101 49.2612 28.8176 51.8287C29.6264 54.115 31.4476 57.175 35.5351 59.0187C35.4501 59.41 35.3539 59.8 35.2477 60.1862C33.8339 65.2937 36.4876 71.27 37.6951 73.6025C38.1589 74.4825 38.2014 75.525 37.8114 76.44C37.2664 77.6662 36.1389 78.075 34.3626 77.6912C34.2376 77.6562 34.1139 77.615 33.9939 77.5675C33.0389 77.2162 31.2601 76.5637 27.7289 77.4725C26.3289 77.8337 23.9326 78.04 23.2314 77.86C22.6176 77.7012 21.9751 77.6975 21.3601 77.85C21.1089 77.9162 20.8501 77.9575 20.5901 77.9712C20.3339 77.9912 20.1064 77.81 20.0689 77.555C20.0051 77.3012 20.1514 77.0425 20.4001 76.9637L20.3989 76.9675Z" fill="black"/>
<path d="M76.5676 40.33C77.4189 41.5587 77.8739 43.575 76.3526 46.7525C76.3526 46.7525 75.5264 47.8862 75.3464 50.5C74.9589 56.1237 73.2964 61.1125 70.6214 65.4737C70.3089 65.995 70.0689 66.5562 69.9064 67.1412C69.2326 69.4825 69.5514 72.3475 71.2426 73.0612C71.2426 73.0612 73.2501 74.4087 77.6826 75.7587C78.2626 75.935 79.1164 76.1012 79.8214 76.355C81.0751 76.8062 80.7126 78.68 79.3826 78.625C79.0776 78.6087 78.7751 78.5625 78.4801 78.485C77.9714 78.3587 77.4389 78.3612 76.9314 78.4925C76.0439 78.72 73.5114 78.465 72.1101 78.105C68.0826 77.0662 66.4939 78.1737 65.7764 78.3287C63.2514 78.8737 62.1076 77.8575 61.5964 76.705C61.1226 75.6087 61.1714 74.3575 61.7301 73.3025C62.8951 71.0512 65.4826 65.2512 64.1276 60.36C63.9689 59.7837 63.8339 59.2075 63.7226 58.6325C62.6376 53.0025 63.8276 47.525 66.2114 44.155C66.2939 44.0375 66.3751 43.9162 66.4539 43.79C66.4351 43.7387 65.8001 42.09 62.1864 40.2787C54.9576 36.6575 51.1214 31.0137 50.0401 27.65C50.0139 27.5662 50.0001 27.48 50.0001 27.3925C50.0001 26.925 50.3801 26.5462 50.8476 26.5475H68.1651C68.3539 26.5475 68.5389 26.61 68.6876 26.7275C75.9889 32.5187 76.5701 40.3312 76.5701 40.3312L76.5676 40.33Z" fill="#FFD8B7"/>
<path d="M75.7001 76.355C76.8139 76.7563 76.6514 78.28 75.6676 78.575C76.0914 78.6 76.5151 78.5713 76.9326 78.4925C77.4401 78.3613 77.9726 78.3588 78.4814 78.485C78.7764 78.5625 79.0789 78.6088 79.3839 78.625C80.7139 78.68 81.0751 76.8063 79.8226 76.355C79.1189 76.1013 78.2651 75.935 77.6839 75.7588C73.2501 74.4088 71.2439 73.0613 71.2439 73.0613C69.5526 72.3475 69.2339 69.4825 69.9076 67.1413C70.0701 66.5563 70.3101 65.995 70.6226 65.4738C73.2976 61.1125 74.9601 56.1238 75.3476 50.5C75.5276 47.8863 76.3539 46.7525 76.3539 46.7525C77.8751 43.5763 77.4189 41.5588 76.5689 40.33C76.5689 40.33 75.9876 32.5175 68.6864 26.7263C68.5376 26.6088 68.3539 26.5463 68.1639 26.5463H64.0414C64.2301 26.5463 64.4151 26.6088 64.5639 26.7263C71.8651 32.5175 72.4464 40.33 72.4464 40.33C73.2976 41.5588 73.7526 43.575 72.2314 46.7525C72.2314 46.7525 71.4051 47.8863 71.2251 50.5C70.8376 56.1238 69.1751 61.1125 66.5001 65.4738C66.1876 65.995 65.9476 66.5563 65.7851 67.1413C65.1114 69.4825 65.4301 72.3475 67.1214 73.0613C67.1214 73.0613 69.1289 74.4088 73.5614 75.7588C74.1414 75.935 74.9951 76.1013 75.7001 76.355Z" fill="#EFBB95"/>
<path d="M67.8539 40.6838C68.1739 40.6838 68.4464 40.45 68.4964 40.1338C68.9027 37.5625 68.6702 32.6438 62.5539 28.585C62.2539 28.3863 61.8502 28.4675 61.6514 28.7675C61.4527 29.0675 61.5339 29.4713 61.8339 29.67C64.0889 31.1663 65.6739 32.915 66.5452 34.8675C67.2602 36.4538 67.4914 38.215 67.2102 39.9313C67.2052 39.965 67.2027 39.9975 67.2027 40.0313C67.2027 40.3913 67.4939 40.6838 67.8539 40.6838Z" fill="black"/>
<path d="M79.3976 79.2762C80.2764 79.2875 81.0389 78.6712 81.2101 77.8087C81.3989 76.9237 80.8989 76.0375 80.0426 75.7425C79.5814 75.5762 79.0689 75.4475 78.6164 75.3337C78.3414 75.265 78.0826 75.2 77.8726 75.1362C73.6089 73.8375 71.5689 72.5037 71.5501 72.4912C70.9714 72.2462 70.6126 71.6 70.4614 71.1262C69.9714 69.6012 70.2864 67.2675 71.1764 65.815C73.9926 61.2237 75.6139 56.0862 75.9964 50.545C76.1589 48.1912 76.9039 47.0937 76.9114 47.0825C78.0626 44.6787 78.3101 42.5487 77.5914 40.8475C77.4826 40.5887 77.3514 40.3412 77.2001 40.105C77.1389 39.5512 76.8826 37.7687 75.9701 35.4612C74.5276 31.83 72.1551 28.6425 69.0901 26.2175C68.8264 26.0087 68.4989 25.8962 68.1626 25.8962H50.8451C50.3664 25.8962 49.9164 26.1262 49.6339 26.5125C49.3501 26.8975 49.2701 27.395 49.4189 27.85C50.0626 29.85 51.4839 32.2 53.3176 34.2975C55.6276 36.9375 58.5939 39.2075 61.8939 40.8612C64.3851 42.1087 65.3589 43.2575 65.6926 43.7587C65.6876 43.765 65.6839 43.7725 65.6789 43.78C62.7026 47.9887 61.8464 54.5662 63.4989 60.535C63.9289 62.0887 64.5614 66.4137 61.1501 73.005C60.4976 74.235 60.4414 75.695 61.0001 76.97C62.0789 79.3962 64.5414 79.2612 65.9126 78.965C66.0976 78.92 66.2789 78.8612 66.4551 78.7912C67.2776 78.4887 68.8076 77.9275 71.9464 78.735C73.2689 79.075 75.9951 79.4037 77.0914 79.1237C77.4939 79.0187 77.9164 79.0162 78.3201 79.115C78.6726 79.2037 79.0339 79.2575 79.3964 79.2762H79.3976ZM79.6014 76.9675C79.8514 77.0462 79.9964 77.305 79.9326 77.5587C79.8951 77.8125 79.6676 77.995 79.4114 77.975C79.1514 77.9612 78.8939 77.92 78.6414 77.8537C78.0264 77.7012 77.3826 77.7037 76.7701 77.8637C76.0689 78.0425 73.6726 77.8362 72.2726 77.4762C68.7414 76.5662 66.9626 77.22 66.0076 77.5712C65.8864 77.6187 65.7639 77.66 65.6389 77.695C63.8639 78.0787 62.7351 77.67 62.1901 76.4437C61.8001 75.5287 61.8426 74.4862 62.3064 73.6062C63.5139 71.2737 66.1676 65.2987 64.7539 60.19C64.6476 59.8037 64.5514 59.415 64.4664 59.0225C68.5539 57.1787 70.3751 54.1187 71.1839 51.8325C72.0914 49.265 71.9514 47.1375 71.9451 47.0475C71.9201 46.6887 71.6089 46.4187 71.2501 46.4437C70.8914 46.4687 70.6214 46.78 70.6464 47.1387C70.6801 48.605 70.4401 50.0662 69.9389 51.445C68.9264 54.2675 67.0051 56.3675 64.2226 57.7C63.8989 55.6187 63.8864 53.5 64.1826 51.4137C64.5664 48.7675 65.4751 46.3237 66.7426 44.5325C67.1476 43.955 67.4901 43.335 67.7651 42.685C67.9064 42.3537 67.7514 41.9712 67.4214 41.8312C67.0901 41.69 66.7076 41.845 66.5676 42.175C66.5151 42.2975 66.4601 42.4175 66.4026 42.5362C65.7826 41.8037 64.6189 40.7712 62.4789 39.6987C55.9901 36.4475 51.8676 31.205 50.6601 27.4525C50.6351 27.2962 50.6914 27.2225 50.8476 27.1987H68.1651C68.2076 27.1987 68.2489 27.2125 68.2826 27.2387C71.1539 29.51 73.3801 32.4937 74.7414 35.8937C75.0814 36.745 75.3614 37.6187 75.5801 38.5087C75.2826 38.315 74.9651 38.155 74.6326 38.0312C74.2951 37.9187 73.9289 38.1 73.8126 38.4362C73.6951 38.7762 73.8751 39.1462 74.2151 39.265C74.2551 39.2787 75.7564 39.8275 76.4001 41.3737C76.9551 42.7062 76.7489 44.4075 75.7864 46.4337C75.6014 46.7187 74.8689 47.9912 74.6989 50.4587C74.3314 55.7875 72.7726 60.7275 70.0689 65.1375C69.9376 65.3525 69.8189 65.5762 69.7126 65.805C68.9376 64.515 68.5126 62.6987 68.4476 60.3787C68.4376 60.0187 68.1376 59.7362 67.7789 59.7462C67.4201 59.7562 67.1364 60.0562 67.1464 60.415C67.2314 63.4712 67.9189 65.7887 69.1889 67.315C68.8376 68.745 68.8289 70.2987 69.2226 71.5275C69.5526 72.555 70.1439 73.285 70.9339 73.64C71.2889 73.8675 73.3576 75.125 77.4951 76.385C77.7364 76.4587 78.0101 76.5275 78.3001 76.6C78.7439 76.7112 79.2014 76.8262 79.6026 76.9712L79.6014 76.9675Z" fill="black"/>
<path d="M24.6203 33.8274L32.5165 34.9762C32.804 35.0174 33.0503 34.7712 33.009 34.4837L31.8602 26.5874C31.809 26.2337 31.3765 26.0899 31.124 26.3424L29.4877 27.9787C29.3177 28.1487 29.044 28.1487 28.874 27.9787L22.994 22.0987C22.824 21.9287 22.5502 21.9287 22.3802 22.0987L20.1327 24.3462C19.9627 24.5162 19.9627 24.7899 20.1327 24.9599L26.0128 30.8399C26.1828 31.0099 26.1828 31.2837 26.0128 31.4537L24.3765 33.0899C24.124 33.3424 24.2677 33.7749 24.6215 33.8262" fill="#62DBFB"/>
<path d="M23.6102 27.8263L25.8577 25.5788C26.0277 25.4088 26.3015 25.4088 26.4715 25.5788L22.994 22.1013C22.824 21.9313 22.5502 21.9313 22.3802 22.1013L20.1327 24.3488C19.9627 24.5188 19.9627 24.7925 20.1327 24.9625L23.6102 28.44C23.4402 28.27 23.4402 27.9963 23.6102 27.8263Z" fill="#01D0FB"/>
<path d="M32.5764 36.2313C32.4964 36.2313 32.4176 36.225 32.3376 36.2138L24.4414 35.065C23.8064 34.9725 23.2876 34.5375 23.0851 33.9288C22.8826 33.32 23.0389 32.66 23.4926 32.2075L24.5514 31.1488L19.2489 25.8463C18.9301 25.5275 18.7551 25.105 18.7551 24.655C18.7551 24.205 18.9301 23.7825 19.2489 23.465L21.4964 21.2175C22.1526 20.5613 23.2214 20.5613 23.8776 21.2175L29.1801 26.52L30.2389 25.4613C30.6926 25.0075 31.3514 24.8525 31.9601 25.0538C32.5689 25.2563 33.0039 25.775 33.0964 26.41L34.2451 34.3063C34.3214 34.83 34.1439 35.365 33.7701 35.7388C33.4526 36.0563 33.0201 36.2325 32.5764 36.2325V36.2313ZM26.4101 32.825L31.6139 33.5825L30.8564 28.3788L30.3701 28.865C30.0526 29.1825 29.6289 29.3588 29.1789 29.3588C28.7289 29.3588 28.3064 29.1838 27.9876 28.865L22.6851 23.5625L21.5914 24.6563L26.8939 29.9588C27.5501 30.615 27.5501 31.6838 26.8939 32.34L26.4076 32.8263L26.4101 32.825Z" fill="black"/>
<path d="M75.3791 33.8275C75.7328 33.7763 75.8766 33.3438 75.6241 33.0913L73.9878 31.455C73.8178 31.285 73.8178 31.0113 73.9878 30.8413L79.8678 24.9613C80.0378 24.7913 80.0378 24.5175 79.8678 24.3475L77.6203 22.1C77.4503 21.93 77.1766 21.93 77.0066 22.1L71.1266 27.98C70.9566 28.15 70.6828 28.15 70.5128 27.98L68.8766 26.3438C68.6241 26.0913 68.1916 26.235 68.1403 26.5888L66.9916 34.485C66.9503 34.7725 67.1966 35.0188 67.4841 34.9775L75.3803 33.8288" fill="#62DBFB"/>
<path d="M76.3891 27.8263C76.5591 27.9963 76.5591 28.27 76.3891 28.44L79.8666 24.9625C80.0366 24.7925 80.0366 24.5188 79.8666 24.3488L77.6191 22.1013C77.4491 21.9313 77.1753 21.9313 77.0053 22.1013L73.5278 25.5788C73.6978 25.4088 73.9716 25.4088 74.1416 25.5788L76.3891 27.8263Z" fill="#01D0FB"/>
<path d="M67.4227 36.2313C66.979 36.2313 66.5452 36.0551 66.229 35.7376C65.8552 35.3638 65.6777 34.8276 65.754 34.3051L66.9027 26.4088C66.9952 25.7738 67.4302 25.2551 68.039 25.0526C68.6477 24.8513 69.3065 25.0063 69.7602 25.4601L70.819 26.5188L76.1214 21.2163C76.7777 20.5601 77.8465 20.5601 78.5027 21.2163L80.7502 23.4638C81.4065 24.1201 81.4065 25.1888 80.7502 25.8451L75.4477 31.1476L76.5065 32.2063C76.9602 32.6601 77.1165 33.3188 76.914 33.9276C76.7115 34.5363 76.1927 34.9713 75.5577 35.0638L67.6615 36.2126C67.5815 36.2238 67.5015 36.2301 67.4215 36.2301L67.4227 36.2313ZM74.7377 33.9738C74.7377 33.9738 74.7377 33.9738 74.7389 33.9751L74.7377 33.9738ZM69.1427 28.3776L68.3852 33.5813L73.589 32.8238L73.1027 32.3376C72.4465 31.6813 72.4465 30.6126 73.1027 29.9563L78.4052 24.6538L77.3115 23.5601L72.009 28.8626C71.6915 29.1801 71.2677 29.3563 70.8177 29.3563C70.3677 29.3563 69.9452 29.1813 69.6265 28.8626L69.1402 28.3763L69.1427 28.3776Z" fill="black"/>
</svg>
