<?xml version="1.0" encoding="UTF-8"?>
<svg id="Capa_2" xmlns="http://www.w3.org/2000/svg" viewBox="0 0 22 22">
  <defs>
    <style>
      .cls-1 {
        fill: #fff;
      }

      .cls-2 {
        fill: none;
      }
    </style>
  </defs>
  <g id="Capa_1-2" data-name="Capa_1">
    <g>
      <path class="cls-1" d="M16.36,21.3h0c-.55,0-.94-.11-1.53-.28-3.28-.93-6.29-2.7-8.72-5.13C3.68,13.47,1.91,10.45.98,7.18c-.17-.59-.28-.98-.28-1.53,0-.63.2-1.42.51-1.97.27-.48.6-.81,1.15-1.37l.17-.17c.59-.59.91-.91,1.34-1.13.85-.43,1.86-.43,2.71,0,.43.22.75.54,1.34,1.13l.19.19c.39.39.6.6.77.86.65.99.65,2.28,0,3.27-.17.26-.38.48-.77.86-.06.06-.09.09-.12.12.02.01.04.05.06.1,0,0,0,0,0,0,.66,1.38,1.56,2.64,2.65,3.74,1.1,1.1,2.35,1.99,3.74,2.65l.12.06s.04-.06.1-.12c.39-.39.6-.6.86-.77.99-.65,2.28-.65,3.27,0,.26.17.48.38.86.77l.19.19c.59.59.91.91,1.13,1.34.43.85.43,1.86,0,2.71-.22.43-.54.75-1.13,1.34l-.16.16c-.56.56-.89.89-1.37,1.16-.55.31-1.33.51-1.96.51ZM5.22,2.7c-.16,0-.31.04-.45.11-.14.07-.41.34-.83.76l-.16.16c-.52.52-.7.71-.83.94-.14.25-.26.7-.26.99,0,.27.05.44.2.99.84,2.95,2.43,5.67,4.62,7.85,2.18,2.18,4.9,3.78,7.85,4.62.55.16.73.2.99.2h0c.29,0,.73-.12.98-.26.23-.13.42-.31.94-.83l.16-.16c.41-.41.68-.68.76-.83.14-.28.14-.62,0-.9-.07-.14-.34-.41-.75-.83l-.2-.2c-.27-.27-.45-.45-.54-.51-.33-.21-.76-.22-1.09,0-.09.06-.27.24-.54.51-.17.17-.26.25-.36.32-.49.35-1.15.46-1.73.3-.12-.03-.22-.08-.4-.16-1.61-.77-3.05-1.79-4.3-3.05-1.26-1.26-2.28-2.7-3.04-4.28h0c-.09-.2-.14-.3-.17-.42-.17-.57-.06-1.23.29-1.72.07-.1.15-.19.33-.36.27-.27.45-.45.51-.54.22-.33.22-.76,0-1.09-.06-.09-.24-.27-.51-.54l-.19-.19c-.41-.41-.68-.68-.83-.76-.14-.07-.3-.11-.45-.11Z"/>
      <rect class="cls-2" width="22" height="22"/>
    </g>
  </g>
</svg>