<svg width="100" height="100" viewBox="0 0 100 100" fill="none" xmlns="http://www.w3.org/2000/svg">
<path d="M71.3662 31.6075H67.2525V35.2325C67.2525 35.5938 67.1325 35.9425 66.9325 36.2738H71.3662V31.6088V31.6075Z" fill="#ACA6D6"/>
<path d="M54.0062 31.6075H49.9637V36.2724H54.3C54.1162 35.9424 54.0075 35.5925 54.0075 35.2312V31.6062L54.0062 31.6075Z" fill="#ACA6D6"/>
<path d="M48.5174 42.6487H42.0787C41.2799 42.6487 40.6324 42.0012 40.6324 41.2024V26.6775C40.6324 25.8787 41.2799 25.2312 42.0787 25.2312H48.5174C49.3162 25.2312 49.9637 25.8787 49.9637 26.6775V41.2024C49.9637 42.0012 49.3162 42.6487 48.5174 42.6487Z" fill="#54469C"/>
<path d="M44.7474 41.2024V26.6775C44.7474 25.8787 45.3949 25.2312 46.1937 25.2312H42.0787C41.2799 25.2312 40.6324 25.8787 40.6324 26.6775V41.2024C40.6324 42.0012 41.2799 42.6487 42.0787 42.6487H46.1937C45.3949 42.6487 44.7474 42.0012 44.7474 41.2024Z" fill="#463B84"/>
<path d="M79.2512 42.6487H72.8125C72.0137 42.6487 71.3662 42.0012 71.3662 41.2024V26.6775C71.3662 25.8787 72.0137 25.2312 72.8125 25.2312H79.2512C80.05 25.2312 80.6975 25.8787 80.6975 26.6775V41.2024C80.6975 42.0012 80.05 42.6487 79.2512 42.6487Z" fill="#54469C"/>
<path d="M75.5087 41.2024V26.6775C75.5087 25.8787 76.1562 25.2312 76.955 25.2312H72.8125C72.0137 25.2312 71.3662 25.8787 71.3662 26.6775V41.2024C71.3662 42.0012 72.0137 42.6487 72.8125 42.6487H76.955C76.1562 42.6487 75.5087 42.0012 75.5087 41.2024Z" fill="#463B84"/>
<path d="M68.14 61.0925L64.1813 39.6375C64.0726 39.05 64.3326 38.4513 64.8438 38.1425C65.9875 37.4513 67.2526 36.4038 67.2526 35.2313V30.7088C67.2526 29.7763 66.5563 28.9638 65.6276 28.885C64.8488 28.8188 64.16 29.265 63.8601 29.9213C63.5788 29.3075 62.96 28.8788 62.245 28.8788C61.53 28.8788 60.91 29.3088 60.6301 29.9213C60.3488 29.3075 59.73 28.8788 59.015 28.8788C58.3 28.8788 57.68 29.3088 57.4001 29.9213C57.0988 29.265 56.4113 28.8188 55.6325 28.885C54.7038 28.9638 54.0075 29.7763 54.0075 30.7088V35.2313C54.0075 36.56 55.4688 37.7275 56.7888 38.3988C57.2988 38.6588 57.6013 39.2025 57.5638 39.775L56.4713 56.6963C54.2488 55.5175 51.435 54.8113 48.3725 54.8113C45.31 54.8113 42.52 55.51 40.3013 56.6813C38.2138 53.9275 34.8925 52.1613 31.16 52.2088C25.1275 52.2863 20.1738 57.185 20.0313 63.2163C19.8813 69.57 24.9875 74.7675 31.3075 74.7675C34.98 74.7675 38.2413 73.0113 40.3013 70.295C42.52 71.4663 45.3238 72.165 48.3725 72.165C53.3413 72.165 57.6588 70.3088 59.8513 67.58L64.1201 66.7213C66.7326 66.195 68.4888 63.7338 68.1388 61.0925H68.14Z" fill="#FED2A4"/>
<path d="M60.615 39.775C60.6512 39.2038 60.35 38.6588 59.84 38.4C58.52 37.7288 57.0587 36.5613 57.0587 35.2325V30.71C57.0587 30.3688 57.1525 30.045 57.3162 29.765C56.9837 29.1963 56.3462 28.825 55.6312 28.885C54.7025 28.9638 54.0062 29.7763 54.0062 30.7088V35.2313C54.0062 36.56 55.4675 37.7275 56.7875 38.3988C57.2975 38.6588 57.6 39.2025 57.5625 39.7738L56.48 56.5513L56.5475 56.695C56.7387 56.75 56.9287 56.77 57.115 56.7688C58.48 56.7588 59.59 55.6563 59.6775 54.2938L60.615 39.7738V39.775Z" fill="#FFBD86"/>
<path d="M25.1588 63.2175C25.2813 58.0125 28.9888 53.6512 33.88 52.505C33.0075 52.3012 32.0963 52.1987 31.1588 52.2112C25.1263 52.2887 20.1725 57.1875 20.0313 63.2187C19.8813 69.5725 24.9875 74.77 31.3075 74.77C32.1888 74.77 33.0463 74.6675 33.8688 74.4762C28.7913 73.295 25.0288 68.6837 25.1575 63.2175H25.1588Z" fill="#FFBD86"/>
<path d="M80.6975 30.6012C81.2025 30.6012 81.6125 30.1912 81.6125 29.6862V26.6774C81.6125 25.3749 80.5525 24.3162 79.2512 24.3162H72.8125C71.51 24.3162 70.4512 25.3762 70.4512 26.6774V30.6912H68.1675C68.1587 29.2812 67.0812 28.0887 65.705 27.9724C65.0325 27.9149 64.3787 28.1162 63.86 28.5062C63.4012 28.1612 62.8375 27.9624 62.2437 27.9624C61.65 27.9624 61.0862 28.1599 60.6287 28.5049C60.17 28.1599 59.6062 27.9624 59.0137 27.9624C58.4212 27.9624 57.8562 28.1599 57.3975 28.5062C56.8787 28.1162 56.225 27.9162 55.5525 27.9724C54.1775 28.0887 53.0987 29.2812 53.09 30.6912H50.8775V26.6762C50.8775 25.3737 49.8175 24.3149 48.5162 24.3149H42.0775C40.775 24.3149 39.7162 25.3749 39.7162 26.6762V41.2012C39.7162 42.5037 40.7762 43.5624 42.0775 43.5624H48.5162C49.8187 43.5624 50.8775 42.5024 50.8775 41.2012V37.1874H53.8025C54.2812 37.8387 55.0712 38.5537 56.3712 39.2137C56.5537 39.3062 56.6625 39.5024 56.6487 39.7149L55.6437 55.2912C53.465 54.3749 50.98 53.8949 48.3725 53.8949C45.5437 53.8949 42.8575 54.4599 40.5512 55.5349C38.21 52.8199 34.7537 51.2487 31.1475 51.2937C27.9912 51.3349 25.0062 52.5899 22.7425 54.8287C20.4775 57.0687 19.19 60.0387 19.1162 63.1937C19.0387 66.5087 20.27 69.6387 22.5837 72.0074C24.8987 74.3774 27.9962 75.6824 31.3087 75.6824C34.9037 75.6824 38.2312 74.1462 40.5525 71.4399C42.8575 72.5137 45.5437 73.0787 48.3725 73.0787C49.6837 73.0787 50.9825 72.9537 52.2362 72.7074C52.7325 72.6099 53.055 72.1287 52.9575 71.6324C52.86 71.1362 52.3787 70.8124 51.8825 70.9112C50.7462 71.1349 49.565 71.2487 48.3725 71.2487C45.5987 71.2487 42.8837 70.6224 40.7287 69.4849C40.7187 69.4799 38.8775 68.3437 38.175 67.6387C37.8175 67.2812 37.2387 67.2799 36.88 67.6374C36.5225 67.9949 36.5212 68.5737 36.8787 68.9324C37.47 69.5249 38.15 70.0624 38.9025 70.5399C36.945 72.6562 34.23 73.8524 31.3087 73.8524C28.3875 73.8524 25.8612 72.7437 23.8937 70.7299C21.9275 68.7162 20.8812 66.0562 20.9475 63.2387C21.01 60.5599 22.1062 58.0362 24.0312 56.1324C25.9562 54.2287 28.4925 53.1599 31.1725 53.1262C34.1475 53.0874 36.91 54.2824 38.9 56.4337C38.0075 57.0037 37.215 57.6587 36.55 58.3912C36.21 58.7662 36.2387 59.3449 36.6125 59.6849C36.7875 59.8437 37.0075 59.9224 37.2275 59.9224C37.4762 59.9224 37.7137 59.8099 37.9062 59.6224C39.3775 58.1812 40.7475 57.4849 40.7475 57.4849C42.9 56.3537 45.6075 55.7299 48.3737 55.7299C51.14 55.7299 53.8825 56.3612 56.0425 57.5074C56.3175 57.6537 56.6462 57.6499 56.9175 57.4974C57.1887 57.3462 57.365 57.0674 57.385 56.7574L58.4775 39.8362C58.5387 38.8937 58.0387 38.0099 57.2037 37.5862C55.84 36.8924 54.9225 35.9474 54.9225 35.2349V30.7124C54.9225 30.2387 55.2675 29.8374 55.7087 29.8012C56.125 29.7662 56.44 30.0299 56.5675 30.3062C56.7162 30.6312 57.0412 30.8399 57.4 30.8399C57.7587 30.8399 58.0837 30.6312 58.2325 30.3062C58.3737 29.9974 58.6812 29.7974 59.015 29.7974C59.3487 29.7974 59.6562 29.9974 59.7975 30.3062C59.9462 30.6312 60.2712 30.8399 60.63 30.8399C60.9887 30.8399 61.3137 30.6312 61.4625 30.3062C61.6037 29.9974 61.9112 29.7974 62.245 29.7974C62.5787 29.7974 62.8862 29.9974 63.0275 30.3062C63.1762 30.6312 63.5012 30.8399 63.86 30.8399C64.2187 30.8399 64.5437 30.6312 64.6925 30.3062C64.8187 30.0287 65.1337 29.7649 65.5512 29.8012C65.9925 29.8387 66.3375 30.2387 66.3375 30.7124V35.2349C66.3375 35.8237 65.6025 36.6187 64.37 37.3624C63.5412 37.8637 63.1025 38.8462 63.28 39.8074L64.5337 46.5987C64.625 47.0962 65.1025 47.4249 65.6 47.3324C66.0975 47.2412 66.4262 46.7637 66.3337 46.2662L65.08 39.4749C65.04 39.2587 65.135 39.0399 65.3162 38.9299C66.225 38.3812 66.9225 37.7962 67.4025 37.1912H70.45V41.2049C70.45 42.5074 71.51 43.5662 72.8112 43.5662H79.25C80.5525 43.5662 81.6112 42.5062 81.6112 41.2049V33.9612C81.6112 33.4562 81.2012 33.0462 80.6962 33.0462C80.1912 33.0462 79.7812 33.4562 79.7812 33.9612V41.2049C79.7812 41.4974 79.5437 41.7362 79.25 41.7362H72.8112C72.5187 41.7362 72.28 41.4987 72.28 41.2049V26.6799C72.28 26.3874 72.5175 26.1487 72.8112 26.1487H79.25C79.5425 26.1487 79.7812 26.3862 79.7812 26.6799V29.6887C79.7812 30.1937 80.1912 30.6037 80.6962 30.6037L80.6975 30.6012ZM49.0475 41.2024C49.0475 41.4949 48.81 41.7337 48.5162 41.7337H42.0775C41.785 41.7337 41.5462 41.4962 41.5462 41.2024V26.6774C41.5462 26.3849 41.7837 26.1462 42.0775 26.1462H48.5162C48.8087 26.1462 49.0475 26.3837 49.0475 26.6774V41.2024ZM50.8787 35.3574V32.5237H53.0912V35.2324C53.0912 35.2712 53.0912 35.3124 53.095 35.3574H50.88H50.8787ZM68.1625 35.3574C68.165 35.3162 68.1687 35.2737 68.1687 35.2324V32.5237H70.4512V35.3574H68.1625Z" fill="black"/>
<path d="M69.04 60.9276L67.11 50.4688C67.0187 49.9713 66.54 49.6426 66.0437 49.7351C65.5462 49.8263 65.2175 50.3038 65.31 50.8013L67.235 61.2363C67.5087 63.3838 66.065 65.3976 63.94 65.8251L59.6712 66.6838C59.4612 66.7263 59.2725 66.8413 59.1387 67.0076C58.3187 68.0276 57.1337 68.9376 55.7112 69.6413C55.2575 69.8651 55.0725 70.4151 55.2962 70.8676C55.4562 71.1901 55.78 71.3776 56.1175 71.3776C56.2537 71.3776 56.3925 71.3476 56.5225 71.2826C58.0637 70.5201 59.3787 69.5338 60.3487 68.4151L64.3025 67.6188C67.3762 67.0001 69.4613 64.0813 69.0488 60.9726C69.0463 60.9576 69.045 60.9426 69.0413 60.9276H69.04Z" fill="black"/>
<path d="M48.1062 50.3925V48.02C48.1062 47.515 47.6962 47.105 47.1912 47.105C46.6862 47.105 46.2762 47.515 46.2762 48.02V50.3925C46.2762 50.8975 46.6862 51.3075 47.1912 51.3075C47.6962 51.3075 48.1062 50.8975 48.1062 50.3925Z" fill="black"/>
<path d="M43.1825 52.2562C43.4162 52.2562 43.6512 52.1675 43.83 51.9875C44.1875 51.63 44.1875 51.05 43.83 50.6925L42.1525 49.015C41.795 48.6575 41.215 48.6575 40.8575 49.015C40.5 49.3725 40.5 49.9525 40.8575 50.31L42.535 51.9875C42.7137 52.1662 42.9475 52.2562 43.1825 52.2562Z" fill="black"/>
<path d="M51.8462 51.9888L53.5237 50.3113C53.8812 49.9538 53.8812 49.3738 53.5237 49.0163C53.1662 48.6588 52.5862 48.6588 52.2287 49.0163L50.5512 50.6938C50.1937 51.0513 50.1937 51.6313 50.5512 51.9888C50.73 52.1675 50.9637 52.2575 51.1987 52.2575C51.4337 52.2575 51.6675 52.1688 51.8462 51.9888Z" fill="black"/>
<path d="M38.465 69.6638C38.0675 69.7213 37.9063 70.2075 38.19 70.4925L40.0313 72.3338C40.2225 72.525 40.2225 72.8338 40.0313 73.0238L33.4163 79.6388C33.225 79.83 33.2263 80.1388 33.4163 80.3288L35.945 82.8575C36.1363 83.0488 36.445 83.0488 36.635 82.8575L43.25 76.2425C43.4413 76.0513 43.75 76.0513 43.94 76.2425L45.7813 78.0838C46.065 78.3675 46.5513 78.2063 46.61 77.8088L47.9025 68.925C47.95 68.6013 47.6725 68.325 47.3488 68.3713L38.465 69.6638Z" fill="#62DBFB"/>
<path d="M37.3288 76.4175C37.1388 76.2275 37.1375 75.9175 37.3288 75.7275L33.4163 79.64C33.225 79.8313 33.2263 80.14 33.4163 80.33L35.945 82.8588C36.1363 83.05 36.445 83.05 36.635 82.8588L40.5475 78.9463C40.3563 79.1375 40.0475 79.1375 39.8575 78.9463L37.3288 76.4175Z" fill="#01D0FB"/>
<path d="M48.6487 67.6262C49.0349 68.0124 49.2174 68.5649 49.1399 69.1049L47.8474 77.9887C47.7524 78.6437 47.3024 79.1799 46.6749 79.3887C46.0474 79.5974 45.3662 79.4362 44.8987 78.9687L43.5962 77.6662L37.5199 83.7424C36.8424 84.4199 35.7399 84.4199 35.0612 83.7424L32.5324 81.2137C32.2037 80.8849 32.0237 80.4487 32.0237 79.9849C32.0237 79.5199 32.2049 79.0837 32.5324 78.7549L38.6087 72.6787L37.3062 71.3762C36.8387 70.9087 36.6774 70.2274 36.8862 69.5999C37.0949 68.9724 37.6312 68.5224 38.2862 68.4274L47.1712 67.1349C47.2537 67.1237 47.3362 67.1174 47.4174 67.1174C47.8749 67.1174 48.3224 67.2999 48.6499 67.6262H48.6487ZM40.9149 71.4499C41.5924 72.1274 41.5924 73.2299 40.9149 73.9087L34.8387 79.9849L36.2899 81.4362L42.3662 75.3599C42.6949 75.0312 43.1312 74.8512 43.5949 74.8512C44.0587 74.8512 44.4962 75.0324 44.8237 75.3599L45.5912 76.1274L46.5174 69.7562L40.1462 70.6824L40.9137 71.4499H40.9149Z" fill="black"/>
</svg>
