<?xml version="1.0" encoding="UTF-8"?>
<svg id="Capa_2" xmlns="http://www.w3.org/2000/svg" viewBox="0 0 24 24">
  <defs>
    <style>
      .cls-1 {
        fill: #fff;
      }

      .cls-2 {
        fill: none;
      }
    </style>
  </defs>
  <g id="Capa_1-2" data-name="Capa_1">
    <g>
      <path class="cls-1" d="M7.55,21.75c9.05,0,14.01-7.5,14.01-14.01,0-.21,0-.43-.01-.64.96-.7,1.8-1.56,2.46-2.55-.9.4-1.85.66-2.83.77,1.03-.62,1.8-1.58,2.17-2.72-.97.57-2.02.98-3.13,1.19-.74-.79-1.72-1.31-2.79-1.49-1.07-.18-2.17,0-3.12.52-.96.51-1.72,1.32-2.16,2.31-.45.99-.56,2.09-.31,3.15-1.96-.1-3.87-.61-5.62-1.49-1.75-.89-3.29-2.13-4.53-3.65-.63,1.08-.82,2.37-.54,3.59.28,1.22,1.02,2.29,2.06,2.98-.78-.02-1.55-.24-2.23-.61v.06c0,1.14.39,2.24,1.11,3.12.72.88,1.72,1.48,2.84,1.71-.72.2-1.48.23-2.22.08.31.98.93,1.83,1.75,2.45.82.61,1.82.95,2.85.97-1.74,1.37-3.9,2.11-6.12,2.11-.39,0-.79-.02-1.18-.07,2.25,1.45,4.87,2.21,7.55,2.21Z"/>
      <rect class="cls-2" width="24" height="24"/>
    </g>
  </g>
</svg>